<?xml version="1.0" encoding="UTF-8" standalone="no"?><!DOCTYPE svg PUBLIC "-//W3C//DTD SVG 1.1//EN" "http://www.w3.org/Graphics/SVG/1.1/DTD/svg11.dtd"><svg width="100%" height="100%" viewBox="0 0 3508 4961" version="1.1" xmlns="http://www.w3.org/2000/svg" xmlns:xlink="http://www.w3.org/1999/xlink" xml:space="preserve" xmlns:serif="http://www.serif.com/" style="fill-rule:evenodd;clip-rule:evenodd;stroke-linejoin:round;stroke-miterlimit:2;"><g id="Layer-1" serif:id="Layer 1"><g><path d="M480.285,1862.59c-35.037,11.442 -73.77,19.193 -92.963,46.479c15.496,1.409 23.415,10.39 38.033,12.678c22.359,-15.67 45.07,-30.988 54.93,-59.157m59.157,92.963c6.341,-31.692 49.828,-48.598 46.484,-76.062c-25.004,27.117 -63.559,40.673 -84.513,71.834c16.375,-2.287 20.597,7.572 38.029,4.228m97.895,-364.632c-6.515,-27.291 -9.86,-57.753 -12.678,-88.741c-24.825,-41.021 -62.501,-88.383 -76.057,-147.892c-13.209,-57.748 8.976,-122.542 4.222,-185.926c-6.867,-92.611 -28.521,-184.165 12.678,-249.311c-73.244,-28.169 -141.908,-60.914 -207.054,-97.186c-12.326,-80.989 -12.852,-159.692 -8.45,-232.405c-0.884,-3.344 -3.523,-4.932 -8.451,-4.227c-66.381,44.722 -133.81,81.342 -135.219,177.475c-1.409,92.08 27.291,188.919 54.934,287.34c26.234,93.489 46.479,187.509 88.736,261.983c32.044,56.518 80.285,116.731 122.541,160.571c48.945,51.064 101.766,103.353 164.798,118.319m33.101,373.082c-4.579,-34.158 36.089,-45.427 25.351,-71.834c-23.589,27.112 -70.425,30.987 -80.285,71.834l54.934,0Zm-3.523,-234.697c12.852,8.276 48.067,11.973 59.157,8.45c-19.892,-35.037 -49.471,-60.566 -63.384,-101.408c-56.691,-7.399 -90.323,-53.704 -139.442,-63.39c-56.691,-11.264 -146.662,22.012 -194.377,54.934c-55.46,38.208 -95.781,96.308 -122.541,139.447c39.086,53.873 100.887,85.039 156.347,122.542c52.116,-12.678 91.202,-38.386 143.67,-50.712c-33.454,-36.971 -111.099,-29.752 -118.319,-92.958c74.128,-37.15 178.007,-66.907 274.662,-67.612c-1.583,19.898 1.409,35.215 4.227,50.707m79.581,123.072c8.981,48.241 -48.419,63.385 -54.929,109.864c42.077,-2.819 75.705,-14.439 109.863,-25.351c-24.299,-64.441 -54.934,-122.546 -88.735,-177.476c-24.125,2.992 -37.682,-4.58 -59.162,-4.227c-7.22,-13.909 -13.382,-28.874 -12.678,-50.707c-73.418,-0 -172.365,24.651 -236.628,54.934c23.59,39.79 73.949,52.821 122.542,67.607c-1.409,-15.491 6.51,-21.654 16.9,-25.35c7.746,9.154 2.819,30.987 4.228,46.479c-16.201,-16.023 -19.898,-5.28 -38.034,-8.451c-1.583,50.528 -41.904,62.328 -63.379,92.963c6.688,7.394 22.711,5.459 29.573,12.673c56.517,-32.396 107.933,-92.079 173.253,-101.408c-18.136,50.88 -70.604,67.429 -88.74,118.314c17.258,-0.352 34.684,-0.878 46.484,4.223l-0,-25.351c50.354,-25.704 86.974,-65.146 139.442,-88.736m915.191,1622.27c-8.455,-18.309 -17.61,-35.92 -25.356,-54.929c-21.832,3.518 -50.002,0.7 -59.157,16.901c21.302,26.938 48.946,33.096 84.513,38.028m0,-59.157c0.526,39.791 15.67,59.688 50.707,54.935c-7.398,-22.186 -17.605,-41.557 -29.579,-59.162c0.705,9.155 -14.965,1.935 -21.128,4.227m130.992,42.257c0.705,-23.242 -13.03,-32.045 -12.678,-54.935c-23.768,1.588 -45.422,5.285 -67.607,8.451c-9.334,37.503 25.177,31.166 29.578,54.934c21.302,1.588 36.794,-2.64 50.707,-8.45m-8.45,374.844c57.043,-82.93 179.411,-157.931 283.111,-152.125c-5.458,-11.442 -7.75,-26.055 -21.128,-29.578c-108.459,26.765 -211.103,59.335 -312.695,92.963c-43.661,114.269 -107.923,221.315 -114.086,363.402c-3.171,70.956 -4.228,146.309 -4.228,223.954c0.179,177.824 -43.313,280.646 -160.57,363.402c-68.669,48.415 -166.733,101.056 -266.211,97.181c-99.652,-3.865 -228.183,-66.198 -291.567,-130.987c-56.16,-57.574 -94.194,-148.602 -105.637,-232.405c-28.347,-208.994 109.69,-360.583 291.563,-363.402c20.071,16.548 -2.814,76.058 16.905,92.958c71.83,-30.987 139.795,-65.845 215.5,-92.958c-48.241,-74.301 -148.071,-97.012 -223.95,-143.67c2.64,33.98 23.763,49.472 21.128,88.736c-77.824,9.512 -172.722,15.848 -219.732,67.612c-64.794,80.811 -123.246,186.983 -122.542,308.468c1.231,256.699 171.666,363.044 363.402,431.004c43.835,15.496 101.587,29.578 143.665,25.356c73.244,-7.394 157.226,-67.255 207.054,-97.186c22.89,-13.735 49.65,-25.177 67.612,-38.034c98.065,-70.252 162.154,-212.864 152.12,-350.719c-7.572,-103.71 -25.355,-236.99 -8.455,-338.046c10.038,-59.862 57.574,-140.499 88.741,-185.926m482.767,1024.52c40.322,-125.355 61.981,-268.494 38.034,-426.777c-0.883,-3.349 -3.523,-4.932 -8.45,-4.227c-44.723,44.191 -152.825,40.316 -202.827,4.227c4.401,115.496 10.559,243.674 8.45,367.625c41.2,-34.863 38.908,-113.208 76.058,-152.125c24.294,11.8 17.958,41.73 25.351,63.385c17.079,50.18 44.192,101.944 63.384,147.892m26.765,-463.575c1.762,-29.757 45.249,-33.806 29.579,-67.612c-40.847,22.364 -107.05,35.567 -156.348,25.356c-17.431,-21.481 -37.498,-39.265 -67.607,-16.906c-1.761,24.299 20.95,24.125 16.901,50.712c37.676,32.397 129.409,32.218 177.475,8.45m94.725,-1028.75c0.347,-15.844 4.749,-11.974 -0,-25.356c-205.824,19.193 -398.439,38.034 -587.357,59.162c-1.761,21.475 6.515,32.923 12.678,46.479c160.044,-34.511 314.804,-58.1 485.939,-67.607c27.643,-1.588 67.259,7.041 88.74,-12.678m-90.676,938.78c108.455,-167.79 130.114,-474.848 122.542,-718.344c-114.265,11.091 -215.857,34.859 -321.146,54.925c73.071,173.953 104.758,456.365 67.613,676.097c45.953,22.185 84.334,8.098 130.991,-12.678m154.061,-938.78l-0,-25.356c-17.611,-19.193 -55.992,-8.277 -42.257,29.578c10.912,4.933 32.744,-4.575 42.257,-4.222m59.156,-4.228c4.402,-11.09 5.106,-25.877 4.223,-42.256c-20.423,1.409 -21.307,3.344 -46.479,4.227l0,42.257c16.901,1.409 23.416,-7.572 42.256,-4.228m21.124,-8.45c39.616,0.352 89.092,-30.462 76.062,-54.934c-18.836,8.802 -44.896,7.75 -71.835,16.905c1.231,15.318 -0.704,27.47 -4.227,38.029m74.479,179.937c38.029,-50.881 40.138,-136.976 -4.227,-181.699c-11.443,7.399 -21.481,17.432 -33.806,21.128c-83.104,25.53 -200.182,17.08 -295.79,25.356c-13.735,1.236 -28.869,10.738 -42.256,12.678c-65.668,9.681 -134.515,5.984 -202.827,16.896c-72.361,11.626 -142.087,27.469 -207.05,33.806c-11.973,6.341 -20.78,15.848 -33.806,21.128c-43.313,1.94 -95.25,19.898 -147.897,16.906c-19.893,-1.236 -41.373,-15.14 -59.157,-12.678c-29.052,3.875 -77.819,45.6 -80.285,71.835c-2.466,26.938 33.275,84.686 50.707,114.091c22.716,38.207 45.248,72.539 76.062,92.958c285.926,-118.135 620.453,-188.03 980.332,-232.405m4.402,28.879c75.71,-14.792 103.522,-152.299 54.755,-215.51c-3.696,15.854 -23.415,16.027 -25.351,33.806c38.908,67.965 -17.61,139.799 -29.404,181.704m167.085,-125.886c-15.318,-20.603 -27.291,-36.625 -12.678,-67.613c-9.155,-25.529 -45.422,-43.839 -80.285,-29.578c30.283,81.163 6.337,187.157 -38.029,232.231c-16.201,10.743 -45.779,7.925 -42.256,38.203c107.402,8.803 170.603,-63.206 173.248,-173.243m32.045,-669.051c24.825,-95.608 58.1,-184.165 -8.451,-240.682c-95.429,2.818 -186.983,5.458 -291.567,12.678c-133.81,9.155 -256.173,22.889 -367.624,29.578c-217.619,13.204 -466.924,60.035 -676.092,97.186c-62.15,11.095 -219.202,7.393 -257.757,46.484c-52.294,53.173 10.034,167.259 38.024,223.95c28.879,58.283 56.875,97.369 88.741,152.125c31.166,53.525 50.002,104.227 80.285,156.342c26.586,45.428 51.411,133.989 80.285,160.576c-3.87,-3.523 21.654,2.466 16.905,12.504c56.87,8.093 94.02,-16.906 122.542,-20.955c34.858,-4.932 72.892,-3.523 109.864,-8.45c267.615,-35.915 554.076,-49.828 794.411,-97.191c40.663,-28.347 99.473,-38.559 139.437,-67.785c57.753,-118.845 92.442,-307.059 130.997,-456.36m115.674,-949.35c12.147,-0.526 27.643,2.292 33.801,-4.223c-15.313,-18.488 -34.332,-33.275 -54.929,-46.479c-1.057,24.999 19.014,28.874 21.128,50.702m124.655,1436.17c26.056,-87.683 24.999,-200.718 12.678,-287.339c-12.499,-88.031 -40.495,-200.013 -76.062,-287.34c-35.742,-87.678 -82.399,-189.096 -126.77,-266.211c-46.657,-81.168 -91.196,-129.23 -135.214,-190.149c13.025,-9.512 43.482,-1.587 50.707,-16.905c-33.102,-17.605 -86.096,-15.318 -101.414,-50.707c10.559,-7.746 33.628,-2.992 38.029,-16.9c-95.781,1.404 -193.498,-16.727 -261.984,-54.935c-86.805,60.393 -158.635,155.996 -257.765,215.505c-67.077,40.142 -153.351,96.134 -245.084,97.191c-256.525,2.813 -479.423,-94.551 -697.215,-164.798c-45.249,70.247 -132.049,98.947 -211.282,135.219c22.89,2.466 58.81,-8.098 63.385,12.673c-16.196,40.147 -64.085,48.598 -84.513,84.513c25.003,-4.58 45.253,-13.909 71.84,-16.901c22.711,266.911 -54.23,538.759 -97.191,781.728c23.242,-2.113 16.375,-34.332 50.707,-25.35c9.155,44.365 6.515,100.53 25.355,135.214c21.129,-28.164 11.443,-87.148 42.257,-105.636c45.953,37.15 62.675,103.527 114.086,135.215c58.279,-29.048 108.107,-66.551 190.154,-71.83c-40.674,-95.956 -95.251,-178.002 -139.442,-270.434c-38.912,6.51 -103.354,22.884 -135.225,33.796c14.266,-44.891 74.301,-44.013 105.641,-71.83c-36.267,-24.299 -92.08,-11.973 -118.314,-21.128c20.598,-30.636 59.688,-10.564 101.414,-8.451c-36.798,-96.838 -141.382,-248.08 4.227,-300.017c-18.667,-56.338 -35.389,-119.371 -50.711,-181.703c-9.329,-37.498 -36.62,-89.435 -4.223,-114.087c16.375,86.448 22.185,212.513 76.063,274.662l-0,21.128c305.296,-55.282 603.021,-94.898 916.947,-139.447c-29.935,-8.093 -44.722,-31.335 -67.607,-46.479c-1.94,23.068 -12.152,56.691 -29.583,50.707c3.875,-20.771 10.211,-73.77 38.033,-84.513c13.552,30.109 30.988,56.343 67.608,63.385c7.219,-23.947 -18.489,-48.241 -16.901,-80.286c47.536,1.762 68.486,30.11 109.864,38.034c19.719,-5.111 45.422,-17.784 42.256,16.896c-43.492,4.406 -93.841,-18.131 -130.997,-33.801c8.634,23.415 23.768,49.654 12.678,80.285c146.488,-18.662 310.408,-20.245 469.043,-33.806c14.261,-45.775 22.885,-106.693 16.901,-160.571c-2.467,-22.006 -20.955,-51.763 -0,-63.379c36.088,32.392 14.613,137.149 21.128,185.921c16.548,-14.435 4.575,-57.396 33.806,-59.157c8.45,38.56 -28.174,67.255 -42.257,97.186c87.679,-23.59 162.511,3.175 185.922,80.29c0.178,99.652 -34.332,187.33 -54.935,278.884c36.099,14.261 62.154,-38.733 92.968,-29.578c5.984,32.749 -36.624,16.9 -38.033,42.256c36.446,18.488 97.19,12.678 109.868,54.934c-41.556,5.632 -107.576,-44.018 -173.253,-29.578c-26.581,98.773 -52.642,198.073 -80.28,295.789c67.428,2.992 113.912,26.939 177.471,33.806c14.434,22.185 19.366,53.873 38.028,71.835c16.197,-35.92 22.716,-81.52 46.484,-109.868c31.34,10.916 21.302,63.211 50.707,76.062m19.014,-1461.52c7.568,-13.556 36.62,-5.632 46.484,-16.9c-35.393,-20.955 -71.839,-40.848 -109.868,-59.157c17.431,29.047 41.021,51.937 63.384,76.057m66.903,2049.41c-2.461,-39.79 -32.392,-52.121 -38.024,-88.74c-6.167,-6.511 -17.788,-7.567 -20.954,-16.896c-67.081,-119.028 -136.103,-236.107 -215.51,-342.452c-16.543,6.336 -31.513,13.908 -46.657,21.128c-32.214,91.727 -36.615,211.282 -164.62,207.054c67.612,116.91 179.942,208.811 274.488,295.964c33.806,31.166 67.434,68.49 105.641,80.29c-27.291,-89.624 -74.301,-182.056 -92.963,-266.39c66.55,36.619 132.401,73.418 198.599,110.042m-54.225,-2171.95c37.498,33.806 102.292,113.912 156.343,54.934c-48.593,-21.833 -102.292,-38.56 -156.343,-54.934m-86.626,-42.257c101.592,13.204 208.111,102.823 300.017,59.157c-58.1,-104.579 -198.956,-214.447 -325.368,-240.855c-90.323,-18.841 -134.689,27.643 -215.505,46.484c9.681,21.123 -3.875,64.263 8.451,71.83c93.667,-16.549 254.238,-30.809 321.14,21.128c-17.074,10.212 -53.694,39.443 -71.83,21.128c-6.515,-24.825 25.177,-11.442 29.579,-25.351c-81.169,-16.727 -208.642,-22.363 -274.662,4.223c4.402,23.773 14.961,41.378 16.896,67.612c-15.844,12.147 -34.506,4.932 -54.925,0c-0.178,56.165 -36.624,76.058 -38.033,130.992c53.346,27.465 143.491,32.044 198.599,33.801c6.341,-18.662 -28.522,-52.285 -12.673,-80.28c35.389,5.805 67.433,50.706 105.641,67.607c12.325,-11.621 42.604,-5.284 50.706,-21.128c-22.185,-42.609 -70.956,-58.631 -84.512,-109.864c75.884,18.836 127.821,83.104 202.826,88.736c-11.973,-34.685 -49.118,-48.772 -76.057,-67.608c-28.879,-20.249 -66.377,-35.036 -80.29,-67.612m314.104,-665.349c19.545,-154.939 -62.858,-275.719 -122.546,-376.075c-23.411,77.993 -72.887,203.705 -130.987,240.855c-48.424,30.988 -111.452,32.045 -169.026,63.385c3.523,47.184 -10.038,77.293 -21.128,109.864c20.776,37.681 48.241,63.384 54.93,114.091c4.227,32.218 -8.977,68.312 -4.223,101.413c2.64,18.662 22.359,35.915 25.351,54.934c9.155,57.748 -28.869,96.834 -29.579,143.67c92.432,-20.602 183.813,-71.309 249.311,-143.67c36.094,-39.79 51.764,-96.486 80.285,-147.897c30.283,-54.403 60.566,-104.936 67.612,-160.57m-18.314,623.271c21.128,21.129 61.98,61.624 59.161,88.736c-4.049,39.79 -112.508,88.914 -160.575,105.641c-132.753,46.127 -302.126,82.399 -464.81,46.484c-0.705,40.668 47.01,53.872 38.029,88.735c-31.335,2.64 -55.639,-36.976 -84.513,-50.706c4.054,42.782 43.844,71.13 33.806,114.091c-43.487,-14.266 -73.244,-42.257 -109.864,-63.385c-41.025,54.756 -86.274,105.284 -130.992,156.343c48.946,39.79 121.837,46.836 207.05,50.712c32.045,1.404 80.637,-10.217 105.636,12.673c-3.518,26.06 -35.563,23.594 -50.702,38.028c24.12,29.405 89.619,17.432 109.864,50.712c-14.966,18.836 -54.23,13.378 -76.058,25.351c145.6,205.466 312.512,496.681 329.596,828.212c5.101,99.652 -7.751,182.755 -50.707,245.083c-28.174,-12.678 -37.329,-44.365 -46.484,-76.062c-19.892,26.586 -25.003,67.964 -46.484,92.963c-35.562,-9.507 -38.028,-52.116 -54.929,-80.285c-52.647,-7.042 -112.33,-46.484 -164.798,-38.029c-36.093,5.81 -46.831,48.062 -84.513,46.479c7.925,43.139 -18.136,52.294 -25.35,80.29c39.611,-34.863 86.621,-44.723 139.442,-29.583c13.204,22.011 30.809,39.616 38.028,67.612c34.511,-8.277 45.606,-13.909 80.286,-21.129c78.702,135.746 155.29,271.67 240.855,405.659c26.765,41.725 70.778,77.819 71.84,130.987c-83.808,-27.465 -138.916,-83.63 -219.732,-114.087c30.283,80.99 70.073,189.092 101.418,283.112c-73.597,-38.381 -133.106,-98.947 -194.381,-152.12c-85.039,-73.77 -163.563,-156.7 -236.628,-245.083c-30.641,-5.984 -45.075,-28.169 -67.612,-42.256c1.409,-35.568 -6.163,-38.034 -21.129,-59.162c-39.259,4.401 -80.463,6.867 -109.863,21.128c7.393,255.3 -9.507,540.347 -114.091,709.898c-1.936,21.655 20.245,19.188 16.9,42.257c-5.279,20.071 -15.844,34.858 -25.351,50.706c28.522,195.081 -6.693,391.046 -54.934,536.65c-66.55,-36.272 -51.411,-154.233 -101.409,-207.059c-13.035,33.633 -31.87,61.276 -50.711,92.968c-16.548,27.817 -22.533,69.721 -54.929,84.513c-19.193,6.51 2.287,-27.648 -16.906,-21.128c22.185,-79.581 8.45,-174.132 12.678,-270.439c3.344,-74.827 -13.204,-142.439 -12.678,-198.599c0.179,-19.019 1.935,-33.806 16.906,-46.484c-3.528,-16.201 -5.463,-33.98 -4.228,-54.93c20.424,-9.159 37.681,-21.48 67.612,-21.128c45.422,-170.96 1.231,-404.775 -38.034,-562.001c-78.528,-36.45 -176.592,36.268 -228.177,88.736c-51.942,52.82 -98.6,119.018 -118.319,177.476c-47.01,139.615 7.746,287.86 -4.228,431.004c-9.328,112.156 -47.536,217.618 -122.541,283.117c-64.789,56.512 -226.064,154.933 -312.69,169.02c-132.932,21.654 -332.41,-76.236 -409.881,-143.67c-53.525,-46.657 -128.174,-153.003 -143.67,-232.405c-24.651,-126.417 0.174,-239.798 42.256,-325.373c21.655,-44.013 68.312,-110.216 109.864,-139.437c47.362,-33.28 96.66,-40.326 177.476,-42.256c2.466,-46.132 -24.299,-63.038 -25.356,-105.641c60.214,14.965 124.829,45.07 181.703,76.057c26.582,14.44 48.946,39.091 71.83,59.162c23.242,20.245 57.048,35.915 63.385,67.603c-102.818,17.084 -181.872,78.88 -283.112,109.868c-3.697,-6.163 -3.344,-16.37 -16.901,-12.678c-4.401,-16.196 -4.401,-48.593 -4.227,-80.285c-159.514,3.523 -264.981,159.513 -240.856,338.046c20.776,153.882 116.379,246.14 253.534,295.79c186.1,67.433 355.472,-43.487 452.137,-152.12c89.792,-130.992 38.029,-385.935 67.607,-570.452c15.492,-95.955 61.271,-166.385 97.191,-245.083c-23.947,-7.745 -57.222,32.045 -76.062,29.574c-82.93,-55.103 -121.837,-154.229 -164.798,-249.306c17.783,-39.964 62.327,-53.168 84.512,-88.735c-13.556,-20.25 -46.131,-21.481 -67.612,-33.801c-23.768,-28.348 -34.153,-70.079 -63.379,-92.968c-44.018,-1.583 -94.551,18.662 -135.22,42.256c-29.226,16.906 -43.313,38.386 -71.835,29.583c-29.757,-37.855 -53.172,-82.046 -88.735,-114.096c-26.061,30.288 -26.939,85.749 -46.484,122.547c-58.805,-12.678 -25.53,-106.167 -54.934,-160.575c-25.53,9.859 -36.268,56.517 -54.93,59.157c-35.567,-12.674 -13.735,-58.984 -8.45,-80.286c20.95,-84.508 34.506,-178.88 50.702,-278.889c25.886,-158.809 65.146,-298.782 54.934,-469.033c-38.381,8.098 -72.187,16.901 -105.636,0c15.313,-45.253 69.016,-52.121 92.958,-88.74c-32.392,-12.678 -79.933,-10.212 -101.408,-33.806c18.131,-20.771 48.24,-11.795 71.83,-16.901c84.691,-18.31 154.938,-62.854 198.604,-122.541c-101.061,-46.832 -214.096,-81.695 -295.79,-147.893c-15.67,6.868 -9.507,35.389 -38.029,29.579c-7.398,-79.933 -80.816,-93.847 -118.319,-143.67c-145.252,50.002 -296.846,-1.588 -418.331,-63.385c-58.452,-29.757 -128.352,-64.967 -160.57,-101.413c-47.893,-54.23 -0,-117.609 46.479,-160.57c61.271,-56.696 145.962,-101.24 249.31,-109.869c-49.476,-85.039 -150.006,-165.324 -198.604,-295.789c-24.998,-66.903 -41.725,-146.136 -63.379,-228.183c-34.863,-132.401 -74.301,-300.717 16.9,-384.525c36.798,-33.806 98.948,-67.081 147.898,-71.835c-4.407,66.908 -9.334,187.335 4.222,261.989c59.688,33.275 119.723,66.198 190.149,88.735c-15.67,-146.31 67.612,-230.118 190.154,-261.989c41.373,-151.589 107.75,-278.184 283.112,-295.784c56.343,-53.525 105.993,-113.739 232.41,-97.191c45.774,-85.039 117.609,-157.931 232.405,-169.025c103.522,-10.034 194.024,41.551 266.206,88.74c107.05,-116.558 401.436,-199.661 545.101,-67.612c47.714,43.844 93.841,118.845 76.062,219.732c105.993,6.689 158.461,66.903 177.471,160.57c112.156,27.291 151.594,127.295 169.025,249.311c56.339,29.578 110.569,61.271 126.765,130.992c60.392,-25.178 117.262,-34.159 164.802,-63.385c87.327,-53.699 99.3,-172.544 143.665,-270.439c30.641,15.323 45.427,52.821 63.385,84.513c42.782,75.71 105.289,201.596 101.418,321.145c-1.766,53.699 -30.64,116.553 -54.934,169.021c-59.862,129.057 -146.841,250.894 -266.211,308.473c96.307,49.292 189.796,96.833 270.434,177.47" style="fill:#231f20;fill-rule:nonzero;"/><path d="M3064.93,1071c104.406,-65.846 166.907,-187.157 152.121,-359.174c-8.629,-1.231 -8.277,-11.443 -16.901,-12.678c-2.114,4.932 -4.58,9.512 -8.45,12.678c30.982,161.101 -38.565,289.627 -143.675,342.273c5.984,1.583 14.439,21.481 4.228,25.351c-23.064,-6.515 -42.783,-16.374 -67.613,-21.128c-10.033,23.947 32.571,28.526 33.807,54.934c-27.996,2.64 -30.631,-20.071 -59.157,-16.905c2.997,36.451 47.362,31.518 84.512,33.806c15.665,-14.261 -23.242,-25.177 -8.455,-38.029c11.8,5.106 29.231,4.58 46.484,4.223c5.632,-19.719 -9.333,-18.836 -16.901,-25.351m122.185,-485.939c59.693,100.352 142.092,221.137 122.546,376.075c-7.046,55.634 -37.324,106.167 -67.612,160.571c-28.521,51.411 -44.191,108.107 -80.285,147.897c-65.498,72.361 -156.874,123.067 -249.311,143.665c0.71,-46.832 38.739,-85.917 29.579,-143.665c-2.992,-19.019 -22.711,-36.272 -25.351,-54.934c-4.754,-33.102 8.45,-69.195 4.223,-101.414c-6.684,-50.706 -34.154,-76.414 -54.93,-114.091c11.09,-32.571 24.651,-62.68 21.128,-109.864c57.574,-31.34 120.607,-32.396 169.026,-63.384c58.1,-37.151 107.576,-162.863 130.987,-240.856" style="fill:#c7b07e;fill-rule:nonzero;"/><path d="M3295.57,1685.64c-91.906,43.666 -198.425,-45.953 -300.017,-59.157c13.913,32.571 51.411,47.362 80.29,67.608c26.939,18.84 64.084,32.927 76.062,67.612c-75.005,-5.637 -126.947,-69.9 -202.831,-88.736c13.556,51.233 62.327,67.255 84.513,109.864c-8.103,15.844 -38.382,9.507 -50.707,21.128c-38.208,-16.905 -70.252,-61.802 -105.641,-67.612c-15.849,27.995 19.014,61.623 12.673,80.285c-55.103,-1.761 -145.248,-6.336 -198.599,-33.801c1.409,-54.934 37.855,-74.832 38.033,-130.992c20.419,4.927 39.086,12.147 54.93,-0c-1.94,-26.234 -12.499,-43.844 -16.901,-67.612c66.02,-26.587 193.493,-20.95 274.662,-4.228c-4.401,13.914 -36.094,0.531 -29.579,25.356c18.136,18.31 54.756,-10.916 71.835,-21.128c-66.907,-51.937 -227.478,-37.677 -321.145,-21.128c-12.326,-7.567 1.235,-50.707 -8.451,-71.835c80.816,-18.841 125.182,-65.32 215.505,-46.479c126.417,26.408 267.268,136.271 325.368,240.855" style="fill:#968dc4;fill-rule:nonzero;"/><path d="M3217.05,711.827c14.786,172.012 -47.715,293.323 -152.12,359.174c7.572,6.515 22.532,5.632 16.9,25.351c-17.253,0.357 -34.684,0.883 -46.479,-4.223c-14.792,12.852 24.12,23.768 8.45,38.029c-37.15,-2.288 -81.515,2.644 -84.508,-33.806c28.522,-3.171 31.162,19.545 59.157,16.905c-1.235,-26.412 -43.839,-30.987 -33.806,-54.934c24.825,4.754 44.544,14.613 67.608,21.128c10.216,-3.87 1.761,-23.768 -4.228,-25.356c105.115,-52.641 174.662,-181.167 143.675,-342.268c3.875,-3.171 6.336,-7.746 8.45,-12.678c8.624,1.23 8.277,11.447 16.901,12.678" style="fill:#231f20;fill-rule:nonzero;"/><path d="M3238.53,1723.67c-54.052,58.983 -118.845,-21.128 -156.343,-54.934c54.051,16.374 107.75,33.101 156.343,54.934" style="fill:#968dc4;fill-rule:nonzero;"/><path d="M3098.38,3751.95c5.632,36.62 35.563,48.95 38.029,88.74c-66.203,-36.624 -132.049,-73.422 -198.6,-110.042c18.663,84.334 65.673,176.767 92.959,266.385c-38.208,-11.795 -71.83,-49.124 -105.636,-80.29c-94.546,-87.148 -206.881,-179.054 -274.488,-295.963c128,4.227 132.401,-115.322 164.619,-207.055c15.144,-7.214 30.109,-14.786 46.658,-21.128c79.407,106.346 148.428,223.429 215.504,342.452c3.166,9.334 14.792,10.386 20.955,16.901" style="fill:#968dc4;fill-rule:nonzero;"/><path d="M3115.99,1774.38c-9.864,11.268 -38.912,3.344 -46.484,16.905c-22.364,-24.125 -45.953,-47.01 -63.385,-76.062c38.029,18.309 74.475,38.207 109.869,59.157" style="fill:#968dc4;fill-rule:nonzero;"/><path d="M2041.46,2528.47c26.765,-19.723 -18.484,-58.278 -29.579,-80.111c-29.752,11.09 -28.874,52.82 -54.934,67.434c-16.196,-27.291 -7.919,-79.229 -16.901,-113.913l-12.677,-0c-34.68,54.051 -93.137,106.693 -152.12,122.537c7.75,-16.196 8.628,-39.265 12.677,-59.157c-38.733,-1.583 -60.918,48.424 -101.413,59.157c-6.867,6.162 -40.143,-4.928 -33.806,25.182c46.31,-8.629 74.301,-35.389 109.868,-54.935c4.402,25.704 -9.685,32.745 -12.677,50.707c79.228,2.992 116.2,-72.187 173.248,-105.641c5.632,36.625 12.147,72.544 21.128,105.641c34.332,-10.559 35.21,-54.756 67.607,-67.612c13.561,13.209 10.569,43.139 29.579,50.711m1021.71,436.994c12.326,86.621 13.378,199.656 -12.678,287.339c-29.405,-12.851 -19.367,-65.146 -50.707,-76.062c-23.768,28.348 -30.283,73.948 -46.483,109.868c-18.663,-17.962 -23.59,-49.65 -38.024,-71.835c-63.559,-6.867 -110.043,-30.814 -177.476,-33.806c27.643,-97.716 53.699,-197.016 80.285,-295.789c65.672,-14.44 131.696,35.21 173.248,29.578c-12.678,-42.256 -73.422,-36.446 -109.863,-54.934c1.409,-25.356 44.017,-9.507 38.028,-42.256c-30.809,-9.155 -56.869,43.839 -92.963,29.578c20.598,-91.549 55.113,-179.232 54.935,-278.884c-23.416,-77.115 -98.248,-103.88 -185.927,-80.29c14.083,-29.931 50.707,-58.626 42.257,-97.186c-29.231,1.761 -17.253,44.722 -33.806,59.162c-6.511,-48.777 14.965,-153.529 -21.128,-185.926c-20.955,11.616 -2.467,41.373 -0,63.379c5.989,53.878 -2.64,114.796 -16.901,160.571c-158.635,13.561 -322.555,15.144 -469.038,33.806c11.09,-30.631 -4.049,-56.87 -12.678,-80.285c37.151,15.67 87.505,38.207 130.997,33.801c3.166,-34.68 -22.538,-22.007 -42.257,-16.896c-41.382,-7.924 -62.327,-36.272 -109.868,-38.034c-1.583,32.045 24.12,56.339 16.901,80.286c-36.62,-7.042 -54.052,-33.276 -67.608,-63.38c-27.817,10.738 -34.158,63.737 -38.033,84.508c17.436,5.989 27.648,-27.639 29.583,-50.707c22.885,15.144 37.676,38.386 67.607,46.479c-313.926,44.549 -611.65,84.165 -916.947,139.447l-0,-21.128c-53.878,-62.149 -59.688,-188.214 -76.063,-274.662c-32.397,24.652 -5.106,76.589 4.228,114.087c15.317,62.332 32.044,125.365 50.706,181.703c-145.605,51.942 -41.021,203.179 -4.227,300.017c-41.726,-2.113 -80.811,-22.185 -101.414,8.451c26.235,9.155 82.047,-3.166 118.319,21.128c-31.34,27.817 -91.38,26.939 -105.641,71.835c31.866,-10.917 96.308,-27.291 135.22,-33.801c44.191,92.432 98.773,174.478 139.442,270.434c-82.047,5.279 -131.87,42.782 -190.149,71.83c-51.411,-31.688 -68.138,-98.065 -114.091,-135.215c-30.814,18.488 -21.128,77.472 -42.257,105.641c-18.84,-34.689 -16.196,-90.854 -25.35,-135.219c-34.333,-8.982 -27.47,23.237 -50.712,25.35c42.961,-242.969 119.902,-514.817 97.191,-781.728c-26.587,2.992 -46.832,12.321 -71.835,16.901c20.423,-35.915 68.312,-44.366 84.513,-84.513c-4.58,-20.771 -40.495,-10.207 -63.385,-12.673c79.228,-36.272 166.029,-64.972 211.277,-135.219c217.792,70.247 440.695,167.611 697.22,164.798c91.733,-1.057 178.007,-57.049 245.083,-97.191c99.126,-59.509 170.961,-155.112 257.761,-215.505c68.491,38.208 166.207,56.344 261.984,54.935c-4.401,13.908 -27.465,9.154 -38.029,16.9c15.318,35.389 68.317,33.102 101.414,50.707c-7.22,15.318 -37.682,7.398 -50.707,16.905c44.018,60.919 88.562,108.981 135.219,190.149c44.366,77.115 91.023,178.533 126.765,266.211c35.567,87.327 63.563,199.309 76.062,287.34" style="fill:#968dc4;fill-rule:nonzero;"/><path d="M2959.64,1812.41c-6.158,6.515 -21.654,3.697 -33.806,4.223c-2.109,-21.828 -22.185,-25.703 -21.128,-50.702c20.602,13.204 39.617,27.991 54.934,46.479" style="fill:#968dc4;fill-rule:nonzero;"/><path d="M2813.86,2595.38c11.443,-2.993 8.451,8.45 16.901,8.45c-1.236,8.629 -11.443,8.276 -12.678,16.9c-11.616,0 -10.033,-19.892 -4.223,-25.35" style="fill:#231f20;fill-rule:nonzero;"/><path d="M1250.39,2857.36c-12.499,-56.691 28.874,-70.605 63.385,-67.612c-8.629,-9.681 -4.575,-32.219 -16.901,-38.029c-19.193,25.708 -97.19,64.089 -46.484,105.641m97.191,-76.063c-3.523,-19.188 -2.645,-42.256 -25.356,-42.256c-0.173,22.711 5.106,39.974 25.356,42.256m29.579,-21.128c1.409,-16.9 -0,-30.988 -12.678,-33.806c-2.466,8.807 -10.386,11.978 -8.451,25.356c8.098,1.766 7.568,12.152 21.129,8.45m38.028,-16.9c19.367,1.587 22.007,-13.557 16.901,-25.351l-16.901,-0c-1.23,9.854 -8.271,17.431 0,25.351m549.328,312.69c13.904,108.633 299.66,79.938 245.083,-54.93c-50.533,-62.149 -258.118,-46.305 -245.083,54.93m553.551,-464.811c2.814,-33.28 -38.565,-17.079 -54.934,-16.9c-145.258,1.935 -313.926,22.006 -464.815,38.029c-132.928,24.998 -324.312,69.894 -460.588,92.963c-21.128,3.523 -63.911,-7.572 -67.607,25.351c144.548,-37.151 333.64,-66.372 498.616,-97.186c17.605,-4.932 16.548,8.976 29.579,8.45c81.868,-24.12 207.58,-48.24 325.368,-54.929c75.884,-4.228 160.922,7.215 194.381,4.222m190.149,-8.45c-2.997,-12.851 7.215,-12.499 4.223,-25.356c-63.559,13.561 -126.943,-9.859 -181.699,12.678c2.461,19.719 29.4,5.285 46.479,4.228c42.614,-2.466 103.175,-2.114 130.997,8.45m25.351,4.228c3.875,-15.849 30.283,-9.16 25.355,-33.806c-29.757,-6.337 -48.95,22.537 -25.355,33.806m59.162,4.222c1.756,-8.098 12.142,-7.567 8.45,-21.128c-20.955,6.868 -13.561,-14.787 -29.579,-12.678c-4.758,9.334 -10.921,17.258 -8.455,33.806c16.727,-7.041 12.857,-7.041 29.584,0m38.028,12.678c-8.45,0 -5.458,-11.442 -16.9,-8.45c-5.811,5.458 -7.394,25.351 4.222,25.351c1.236,-8.624 11.443,-8.272 12.678,-16.901m-29.052,-78.528c66.55,56.517 33.28,145.079 8.45,240.682c-38.555,149.306 -73.244,337.52 -130.992,456.364c-39.969,29.227 -98.773,39.438 -139.442,67.786c-240.334,47.358 -526.79,61.271 -794.411,97.191c-36.972,4.927 -75,3.518 -109.863,8.445c-28.522,4.049 -65.673,29.053 -122.542,20.955c4.754,-10.038 -20.776,-16.022 -16.905,-12.504c-28.869,-26.582 -53.694,-115.144 -80.286,-160.571c-30.283,-52.115 -49.119,-102.822 -80.285,-156.342c-31.866,-54.756 -59.861,-93.847 -88.735,-152.125c-27.996,-56.691 -90.323,-170.782 -38.029,-223.95c38.56,-39.091 195.607,-35.389 257.761,-46.484c209.163,-37.151 458.474,-83.987 676.087,-97.191c111.452,-6.684 233.819,-20.419 367.625,-29.578c104.584,-7.22 196.143,-9.86 291.567,-12.678" style="fill:#b09190;fill-rule:nonzero;"/><path d="M2801.18,2570.02c3.697,13.561 -6.694,13.03 -8.45,21.128c-16.727,-7.041 -12.857,-7.041 -29.584,0c-2.466,-16.548 3.702,-24.472 8.455,-33.806c16.018,-2.113 8.624,19.546 29.579,12.678" style="fill:#231f20;fill-rule:nonzero;"/><path d="M2758.93,2553.12c4.932,24.646 -21.48,17.957 -25.356,33.806c-23.594,-11.269 -4.401,-40.143 25.356,-33.806" style="fill:#231f20;fill-rule:nonzero;"/><path d="M2765.44,3367.42c-14.613,30.987 -2.64,47.009 12.678,67.612c-2.645,110.042 -65.851,182.046 -173.248,173.243c-3.523,-30.278 26.055,-27.46 42.251,-38.203c44.371,-45.074 68.317,-151.063 38.034,-232.231c34.863,-14.261 71.13,4.049 80.285,29.579" style="fill:#968dc4;fill-rule:nonzero;"/><path d="M2712.44,2557.34c2.992,12.857 -7.22,12.505 -4.223,25.356c-27.822,-10.564 -88.388,-10.916 -130.996,-8.45c-17.08,1.057 -44.018,15.491 -46.479,-4.228c54.755,-22.537 118.14,0.883 181.698,-12.678" style="fill:#231f20;fill-rule:nonzero;"/><path d="M2665.79,3345.41c48.767,63.21 20.955,200.717 -54.755,215.504c11.799,-41.899 68.316,-113.734 29.404,-181.698c1.936,-17.784 21.655,-17.958 25.351,-33.806" style="fill:#968dc4;fill-rule:nonzero;"/><path d="M1628.06,3719.73c29.931,-32.044 72.009,-51.937 88.736,-97.185c-15.844,-24.125 -69.721,-18.841 -101.414,-33.806c-16.548,-7.92 -24.646,-27.817 -38.029,-8.451c-0.53,-12.147 -5.279,-20.071 -21.128,-16.905c-1.409,5.637 -5.984,8.103 -4.227,16.905c29.226,42.609 54.582,89.088 76.062,139.442m974.348,-369.386c44.366,44.728 42.252,130.818 4.228,181.699c-359.884,44.375 -694.407,114.27 -980.337,232.41c-30.809,-20.424 -53.347,-54.756 -76.058,-92.963c-17.431,-29.405 -53.173,-87.153 -50.707,-114.091c2.462,-26.23 51.233,-67.96 80.281,-71.835c17.788,-2.462 39.264,11.447 59.162,12.678c52.641,2.997 104.584,-14.966 147.892,-16.901c13.03,-5.284 21.833,-14.792 33.806,-21.128c64.968,-6.342 134.689,-22.185 207.05,-33.806c68.316,-10.917 137.159,-7.215 202.831,-16.901c13.382,-1.94 28.522,-11.442 42.256,-12.678c95.603,-8.276 212.687,0.174 295.79,-25.355c12.321,-3.697 22.359,-13.73 33.806,-21.129" style="fill:#968dc4;fill-rule:nonzero;"/><path d="M2608.21,3297.17c13.03,24.472 -36.446,55.286 -76.063,54.934c3.523,-10.564 5.459,-22.711 4.228,-38.029c26.939,-9.16 52.999,-8.103 71.835,-16.905" style="fill:#342222;fill-rule:nonzero;"/><path d="M2463.14,2574.25c16.375,-0.178 57.748,-16.379 54.935,16.901c-33.459,2.992 -118.498,-8.45 -194.382,-4.223c-117.788,6.689 -243.5,30.809 -325.368,54.93c-13.03,0.526 -11.973,-13.383 -29.578,-8.451c-164.972,30.814 -354.069,60.036 -498.617,97.186c3.697,-32.923 46.479,-21.828 67.607,-25.351c136.277,-23.068 327.661,-67.959 460.588,-92.963c150.889,-16.017 319.558,-36.093 464.815,-38.029" style="fill:#231f20;fill-rule:nonzero;"/><path d="M2515.25,3318.3c0.883,16.38 0.174,31.166 -4.227,42.257c-18.836,-3.345 -25.351,5.636 -42.257,4.227l0,-42.256c25.177,-0.883 26.061,-2.819 46.484,-4.228" style="fill:#342222;fill-rule:nonzero;"/><path d="M2451.87,3339.43l-0,25.356c-9.512,-0.353 -31.34,9.155 -42.257,4.222c-13.735,-37.855 24.651,-48.771 42.257,-29.578" style="fill:#c4c6c8;fill-rule:nonzero;"/><path d="M2381.44,3650.36c-8.098,-1.757 -7.568,-12.152 -21.129,-8.451c-16.017,62.854 -39.611,118.136 -67.607,169.021c-42.782,-34.684 -53.704,-101.235 -105.636,-126.764c-3.349,33.449 33.449,56.869 54.929,84.512c21.659,27.991 34.511,68.139 59.157,80.281c26.234,-66.724 57.401,-128.526 80.286,-198.599m38.911,-65.142c7.572,243.496 -14.087,550.554 -122.541,718.344c-46.658,20.776 -85.039,34.863 -130.992,12.678c37.151,-219.732 5.458,-502.139 -67.612,-676.092c105.289,-20.071 206.881,-43.839 321.145,-54.93" style="fill:#968dc4;fill-rule:nonzero;"/><path d="M2388.49,3339.43c4.749,13.382 0.348,9.512 0,25.356c-21.48,19.719 -61.097,11.09 -88.74,12.678c-171.134,9.507 -325.894,33.096 -485.938,67.607c-6.163,-13.556 -14.44,-25.004 -12.678,-46.479c188.918,-21.128 381.533,-39.969 587.356,-59.162" style="fill:#342222;fill-rule:nonzero;"/><path d="M2360.31,3641.91c13.556,-3.701 13.03,6.694 21.128,8.451c-22.885,70.073 -54.051,131.875 -80.285,198.599c-24.646,-12.142 -37.498,-52.29 -59.157,-80.281c-21.481,-27.643 -58.279,-51.059 -54.934,-84.512c51.937,25.529 62.858,92.08 105.641,126.764c27.995,-50.885 51.589,-106.167 67.607,-169.021" style="fill:#231f20;fill-rule:nonzero;"/><path d="M2323.34,4325.92c15.67,33.806 -27.817,37.855 -29.579,67.613c-48.066,23.768 -139.799,23.946 -177.47,-8.451c4.049,-26.586 -18.663,-26.412 -16.906,-50.711c30.109,-22.359 50.176,-4.575 67.612,16.905c49.293,10.212 115.496,-2.992 156.343,-25.356" style="fill:#968dc4;fill-rule:nonzero;"/><path d="M2305.03,4430.33c23.946,158.283 2.292,301.421 -38.034,426.781c-19.188,-45.953 -46.305,-97.716 -63.385,-147.897c-7.393,-21.654 -1.052,-51.585 -25.35,-63.385c-37.151,38.917 -34.859,117.262 -76.058,152.125c2.109,-123.95 -4.049,-252.124 -8.45,-367.624c50.002,36.093 158.104,39.964 202.826,-4.228c4.932,-0.7 7.567,0.883 8.451,4.228" style="fill:#968dc4;fill-rule:nonzero;"/><path d="M1981.42,3051.74c4.932,78.523 218.67,65.319 215.504,-16.906c-1.935,-49.997 -74.475,-55.808 -114.086,-50.707c-43.14,5.459 -104.411,20.776 -101.418,67.613m228.182,-50.712c54.582,134.872 -231.175,163.567 -245.083,54.934c-13.03,-101.239 194.55,-117.083 245.083,-54.934" style="fill:#231f20;fill-rule:nonzero;"/><path d="M2027.9,3039.06c-17.079,70.074 171.839,66.025 118.319,-21.128c-29.058,-9.507 -109.343,-15.67 -118.319,21.128m169.021,-4.227c3.17,82.225 -210.573,95.429 -215.505,16.905c-2.992,-46.836 58.279,-62.154 101.418,-67.612c39.612,-5.101 112.151,0.709 114.087,50.707" style="fill:#342222;fill-rule:nonzero;"/><path d="M2137.76,3060.19l-0,-21.128c-19.01,-21.302 -86.448,-16.727 -92.963,12.678c11.625,28.869 70.43,24.294 92.963,8.45m8.455,-42.257c53.525,87.153 -135.398,91.207 -118.319,21.129c8.981,-36.798 89.262,-30.636 118.319,-21.129" style="fill:#231f20;fill-rule:nonzero;"/><path d="M2137.76,3039.06l-0,21.128c-22.533,15.844 -81.338,20.419 -92.963,-8.45c6.515,-29.405 73.953,-33.98 92.963,-12.678" style="fill:#b09190;fill-rule:nonzero;"/><path d="M2067.34,3680.47c-103.701,-5.806 -226.069,69.195 -283.112,152.125c-31.166,45.427 -78.702,126.064 -88.74,185.926c-16.901,101.056 0.883,234.336 8.455,338.046c10.033,137.855 -54.056,280.467 -152.12,350.719c-17.962,12.857 -44.723,24.299 -67.612,38.029c-49.829,29.936 -133.81,89.797 -207.054,97.191c-42.078,4.222 -99.826,-9.86 -143.665,-25.356c-191.737,-67.96 -362.172,-174.305 -363.402,-431.004c-0.705,-121.485 57.748,-227.657 122.541,-308.468c47.01,-51.764 141.909,-58.1 219.732,-67.612c2.64,-39.264 -18.488,-54.756 -21.128,-88.736c75.879,46.658 175.71,69.369 223.955,143.67c-75.71,27.113 -143.674,61.976 -215.504,92.958c-19.719,-16.9 3.165,-76.41 -16.906,-92.958c-181.872,2.819 -319.91,154.408 -291.562,363.402c11.442,83.803 49.476,174.831 105.636,232.405c63.385,64.789 191.915,127.122 291.567,130.987c99.478,3.875 197.547,-48.766 266.211,-97.181c117.257,-82.756 160.749,-185.574 160.571,-363.402c-0,-77.645 1.057,-152.998 4.227,-223.954c6.163,-142.087 70.426,-249.133 114.091,-363.402c101.588,-33.628 204.232,-66.198 312.691,-92.963c13.382,3.523 15.67,18.136 21.128,29.578" style="fill:#968dc4;fill-rule:nonzero;"/><path d="M2011.88,2448.36c11.095,21.832 56.343,60.387 29.578,80.111c-19.009,-7.572 -16.017,-37.503 -29.578,-50.712c-32.397,12.857 -33.275,57.053 -67.608,67.613c-8.981,-33.097 -15.496,-69.017 -21.128,-105.641c-57.048,33.453 -94.02,108.633 -173.248,105.641c2.992,-17.963 17.079,-25.004 12.673,-50.707c-35.563,19.545 -63.553,46.305 -109.864,54.934c-6.336,-30.109 26.939,-19.014 33.807,-25.182c40.494,-10.733 62.679,-60.74 101.413,-59.157c-4.049,19.898 -4.927,42.961 -12.678,59.157c58.983,-15.844 117.44,-68.486 152.12,-122.537l12.678,0c8.981,34.685 0.704,86.622 16.901,113.913c26.06,-14.613 25.182,-56.343 54.934,-67.433" style="fill:#231f20;fill-rule:nonzero;"/><path d="M1780,3402.81c-0.353,22.89 13.382,31.693 12.677,54.935c-13.908,5.81 -29.404,10.038 -50.706,8.45c-4.402,-23.768 -38.912,-17.431 -29.579,-54.934c22.185,-3.166 43.84,-6.863 67.608,-8.451" style="fill:#c4c6c8;fill-rule:nonzero;"/><path d="M1712.39,3470.42c-35.037,4.753 -50.176,-15.144 -50.707,-54.935c6.163,-2.287 21.833,4.933 21.128,-4.227c11.974,17.61 22.185,36.977 29.579,59.162" style="fill:#342222;fill-rule:nonzero;"/><path d="M1638.27,3679.24c17.605,-13.382 41.904,-20.245 42.434,-50.706c-30.813,-8.629 -61.627,-17.253 -92.963,-25.356c10.917,31.34 24.121,60.219 50.529,76.062m78.528,-56.69c-16.727,45.248 -58.805,65.141 -88.74,97.185c-21.481,-50.354 -46.832,-96.838 -76.058,-139.442c-1.761,-8.802 2.819,-11.268 4.223,-16.905c15.848,-3.166 20.602,4.753 21.128,16.905c13.383,-19.371 21.481,0.526 38.029,8.45c31.692,14.966 85.569,9.681 101.418,33.807" style="fill:#231f20;fill-rule:nonzero;"/><path d="M1680.7,3628.53c-0.526,30.457 -24.825,37.324 -42.435,50.707c-26.408,-15.844 -39.612,-44.723 -50.528,-76.062c31.34,8.102 62.154,16.726 92.963,25.355" style="fill:#968dc4;fill-rule:nonzero;"/><path d="M1636.33,3419.72c7.746,19.01 16.901,36.62 25.351,54.929c-35.563,-4.932 -63.206,-11.09 -84.508,-38.028c9.155,-16.196 37.324,-13.378 59.157,-16.901" style="fill:#342222;fill-rule:nonzero;"/><path d="M1432.1,2717.92c5.106,11.795 2.467,26.939 -16.9,25.356c-8.277,-7.924 -1.236,-15.496 -0,-25.356l16.9,0Z" style="fill:#231f20;fill-rule:nonzero;"/><path d="M1364.49,2726.37c12.678,2.818 14.082,16.905 12.678,33.806c-13.561,3.702 -13.03,-6.689 -21.128,-8.45c-1.935,-13.378 5.984,-16.553 8.45,-25.356" style="fill:#231f20;fill-rule:nonzero;"/><path d="M1322.23,2739.04c22.711,-0 21.833,23.063 25.351,42.256c-20.245,-2.287 -25.529,-19.545 -25.351,-42.256" style="fill:#231f20;fill-rule:nonzero;"/><path d="M1313.78,2789.75c-34.506,-2.993 -75.884,10.921 -63.385,67.612c-50.707,-41.557 27.296,-79.938 46.484,-105.641c12.326,5.81 8.272,28.348 16.901,38.029" style="fill:#231f20;fill-rule:nonzero;"/><path d="M691.566,1962.24c6.515,-46.479 63.91,-61.623 54.929,-109.863c-52.463,23.594 -89.088,63.032 -139.442,88.735l-0,25.356c-11.8,-5.106 -29.226,-4.58 -46.484,-4.228c18.136,-50.88 70.604,-67.433 88.74,-118.314c-65.319,9.334 -116.731,69.017 -173.248,101.409c-6.867,-7.215 -22.89,-5.28 -29.578,-12.673c21.48,-30.635 61.796,-42.43 63.384,-92.963c18.131,3.171 21.833,-7.567 38.029,8.45c-1.409,-15.491 3.518,-37.324 -4.228,-46.479c-10.385,3.697 -18.309,9.86 -16.9,25.351c-48.593,-14.787 -98.947,-27.817 -122.542,-67.607c64.263,-30.283 163.21,-54.935 236.633,-54.935c-0.705,21.833 5.458,36.799 12.678,50.707c21.476,-0.352 35.032,7.22 59.157,4.228c33.801,54.934 64.436,113.034 88.735,177.475c-34.153,10.912 -67.786,22.538 -109.863,25.351" style="fill:#968dc4;fill-rule:nonzero;"/><path d="M726.073,1737.76c-11.09,3.523 -46.305,-0.174 -59.157,-8.451c-2.818,-15.491 -5.811,-30.809 -4.228,-50.706c-96.659,0.704 -200.539,30.461 -274.661,67.607c7.22,63.211 84.865,55.991 118.319,92.963c-52.469,12.326 -91.554,38.029 -143.67,50.707c-55.46,-37.503 -117.262,-68.665 -156.348,-122.542c26.76,-43.135 67.082,-101.235 122.542,-139.442c47.714,-32.923 137.685,-66.198 194.376,-54.934c49.119,9.685 82.751,55.991 139.442,63.384c13.914,40.847 43.487,66.377 63.385,101.414" style="fill:#968dc4;fill-rule:nonzero;"/><path d="M695.79,1892.17c10.738,26.408 -29.93,37.677 -25.351,71.835l-54.934,-0c9.86,-40.847 56.691,-44.723 80.285,-71.835" style="fill:#968dc4;fill-rule:nonzero;"/><path d="M510.744,1222.59c2.818,-40.669 -22.185,-86.8 -50.707,-109.864c-14.613,12.147 13.557,31.866 0,42.257c-77.114,-111.625 -167.963,-209.521 -181.698,-384.53l-12.678,-0c-0,8.45 -11.442,5.458 -8.45,16.905c14.965,94.194 45.248,180.289 92.963,253.533c25.177,38.555 51.937,79.229 76.057,109.864c22.538,28.7 53.173,56.344 84.513,71.835m113.918,279.594c2.818,30.983 6.157,61.444 12.673,88.735c-63.033,-14.965 -115.848,-67.255 -164.793,-118.314c-42.257,-43.844 -90.497,-104.058 -122.547,-160.575c-42.251,-74.475 -62.501,-168.495 -88.735,-261.984c-27.644,-98.421 -56.344,-195.254 -54.935,-287.339c1.41,-96.129 68.843,-132.753 135.22,-177.471c4.932,-0.705 7.572,0.878 8.45,4.223c-4.401,72.713 -3.87,151.415 8.45,232.405c65.146,36.272 133.811,69.021 207.055,97.19c-41.195,65.147 -19.541,156.696 -12.673,249.306c4.753,63.385 -17.432,128.179 -4.228,185.926c13.556,59.514 51.233,106.872 76.063,147.898" style="fill:#c7b07e;fill-rule:nonzero;"/><path d="M585.924,1879.49c3.344,27.465 -40.143,44.37 -46.479,76.063c-17.432,3.344 -21.659,-6.516 -38.034,-4.228c20.955,-31.161 59.514,-44.718 84.513,-71.835" style="fill:#968dc4;fill-rule:nonzero;"/><path d="M460.038,1112.73c28.522,23.063 53.525,69.195 50.707,109.863c-31.34,-15.491 -61.975,-43.134 -84.513,-71.834c-24.12,-30.636 -50.88,-71.304 -76.057,-109.864c-47.715,-73.244 -77.998,-159.34 -92.963,-253.533c-2.992,-11.448 8.45,-8.451 8.45,-16.901l12.678,-0c13.73,175.005 104.584,272.9 181.698,384.525c13.557,-10.385 -14.613,-30.109 0,-42.256" style="fill:#231f20;fill-rule:nonzero;"/><path d="M387.323,1909.07c19.188,-27.291 57.927,-35.037 92.963,-46.48c-9.859,28.17 -32.57,43.487 -54.934,59.157c-14.613,-2.292 -22.537,-11.268 -38.029,-12.677" style="fill:#968dc4;fill-rule:nonzero;"/></g><path d="M2401.28,577.604c43.675,16.008 105.293,42.951 173.243,21.113c-48.588,42.609 -136.957,23.247 -173.243,-21.113" style="fill:#191b3f;fill-rule:nonzero;"/><path d="M752.522,732.349c28.883,88.03 73.075,160.748 130.982,219.741c-85.044,-31.88 -132.218,-101.601 -130.982,-219.741" style="fill:#191b3f;fill-rule:nonzero;"/><path d="M2331.3,785.856c-14.102,1.414 -23.783,7.22 -29.579,16.92c-31.533,-2.307 -50.726,-16.92 -80.295,-21.147c15.859,-37.657 61.797,-45.239 76.063,-84.494c34.149,6.863 34.149,47.527 33.811,88.721" style="fill:#191b3f;fill-rule:nonzero;"/><path d="M1084.43,622.671c6.857,-1.221 7.219,4.039 12.668,4.227c-12.495,31.171 -10.917,76.41 -25.356,105.641c-30.626,-29.4 -11.264,-88.224 12.688,-109.868" style="fill:#191b3f;fill-rule:nonzero;"/><path d="M2398.98,583.04c92.78,40.148 45.422,215.51 -46.493,219.737c11.447,-46.667 -3.697,-91.92 -21.138,-122.561c25.886,-29.038 55.113,-54.746 67.631,-97.176" style="fill:#191b3f;fill-rule:nonzero;"/><path d="M1076.56,597.824c-21.664,29.057 -56.17,67.607 -38.029,122.556c-59.335,2.273 -23.763,-94.203 8.455,-109.868c-57.583,-11.983 -104.608,58.442 -139.456,97.185c-0.705,27.47 -18.657,37.687 -16.901,67.603c-29.747,-137.328 37.151,-238.394 139.442,-270.424c24.999,21.475 26.239,66.709 46.489,92.948" style="fill:#191b3f;fill-rule:nonzero;"/><path d="M2410.6,462.713c91.568,8.446 137.854,206.176 59.142,274.672c8.803,-84.523 1.062,-156.531 -54.91,-185.931c8.967,-24.121 4.566,-68.5 -4.232,-88.741" style="fill:#191b3f;fill-rule:nonzero;"/><path d="M2052.36,207.918c-76.034,18.156 -152.994,35.491 -195.067,84.73c-23.937,-3.349 -29.192,-27.078 -40.027,-44.751c53.993,-34.458 161.574,-60.87 235.094,-39.979" style="fill:#191b3f;fill-rule:nonzero;"/><path d="M2359.89,326.506c-33.092,-12.326 -60.576,-65.855 -88.74,-97.195c-95.767,-4.045 -204.048,-63.206 -329.601,-46.48c-47.7,6.342 -92.78,44.38 -135.215,21.134c107.051,-192.968 603.737,-210.042 553.556,122.541" style="fill:#191b3f;fill-rule:nonzero;"/><path d="M998.049,1005.44c-12.326,-4.401 -27.475,-4.937 -41.021,-12.687c-97.369,-55.451 -221.494,-213.381 -164.808,-338.037c11.795,-140.508 89.633,-251.082 228.183,-278.899c6.877,6.878 -3.697,17.606 -0,33.821c-178.716,9.145 -287.176,294.718 -164.788,452.128c5.81,-37.156 -31.876,-80.102 -38.034,-135.21c-17.263,-155.658 84.87,-269.396 194.362,-304.25c7.755,19.019 9.164,44.361 12.687,67.608c-167.794,29.573 -201.234,284.168 -118.323,435.231c30.119,-18.314 -11.245,-49.828 -12.659,-76.052c20.409,8.445 19.362,26.05 33.806,42.246c20.598,23.247 49.467,24.487 71.83,42.266c16.375,13.031 16.375,45.065 42.247,42.247c23.956,-6.158 -9.333,-26.586 -0,-29.578c17.972,3.696 34.684,6.158 50.19,7.755" style="fill:#191b3f;fill-rule:nonzero;"/><path d="M811.942,1183.79c-7.389,-4.57 -14.787,-8.803 -19.719,-13.566c-26.77,-25.341 -66.025,-71.473 -101.409,-114.081c-50.364,-60.745 -103.527,-120.785 -97.195,-219.733c4.932,-77.997 76.593,-144.726 156.357,-164.793c9.15,29.236 -13.74,49.298 -16.915,76.048c-13.725,113.932 70.595,237.352 173.243,232.415c23.966,6.515 49.829,36.982 74.654,47.005" style="fill:#191b3f;fill-rule:nonzero;"/><path d="M781.475,1233.79c-8.44,-4.739 -19.188,-7.558 -27.267,-12.862c-60.764,-75.874 -125.895,-147.535 -152.134,-257.751c63.911,80.469 126.943,161.984 199.14,234.355" style="fill:#191b3f;fill-rule:nonzero;"/><path d="M768.27,1282.74c-10.559,-8.46 -25.684,-13.035 -35.21,-19.546c-79.919,-54.934 -202.996,-165.324 -160.556,-304.249c52.453,113.739 108.092,224.312 201.065,297.556" style="fill:#191b3f;fill-rule:nonzero;"/><path d="M771.625,1381.51c-10.921,-10.559 -27.117,-17.079 -38.564,-25.341c-55.986,-41.026 -106.505,-95.261 -156.333,-147.902c0.347,-41.2 -19.203,-62.507 -16.915,-105.646c42.604,63.91 91.023,120.789 152.129,169.035c15.666,12.504 32.74,29.911 54.061,35.915" style="fill:#191b3f;fill-rule:nonzero;"/><path d="M789.419,1464.09c-39.805,-34.332 -85.039,-63.906 -123.965,-99.488c-38.898,-35.722 -84.151,-74.822 -101.414,-130.977c70.962,39.78 122.904,133.453 211.813,170.251" style="fill:#191b3f;fill-rule:nonzero;"/><path d="M768.27,1509.86c-9.488,-4.918 -21.476,-8.093 -30.983,-10.028c-69.016,-55.103 -153.351,-117.084 -173.243,-207.064c7.219,-4.913 27.3,19.912 42.261,33.811c44.529,41.383 103.334,88.919 143.67,135.224c14.429,-1.057 22.696,11.269 31.33,14.623" style="fill:#191b3f;fill-rule:nonzero;"/><path d="M752.607,1593.67c-5.106,-2.109 -10.574,-4.054 -15.318,-5.101c-37.31,-33.116 -67.076,-73.785 -109.873,-101.423c-17.605,-41.547 -45.77,-72.549 -54.915,-122.551c59.316,62.52 116.195,127.483 197.18,168.335" style="fill:#191b3f;fill-rule:nonzero;"/><path d="M735.878,1646.49c-29.747,-33.628 -92.606,-50.523 -91.539,-117.083c37.136,23.946 67.776,53.862 102.644,80.101" style="fill:#191b3f;fill-rule:nonzero;"/><path d="M724.977,1704.42c-24.829,-28.01 -52.82,-55.827 -55.296,-90.507c21.495,16.196 37.498,37.86 61.797,51.238" style="fill:#191b3f;fill-rule:nonzero;"/><path d="M2735.63,1406.16c68.669,-10.043 115.342,-76.231 152.478,-130.297c17.084,94.208 -53.709,176.429 -143.511,185.062" style="fill:#191b3f;fill-rule:nonzero;"/><path d="M2717.16,1324.47c18.638,3.508 45.046,-13.566 56.851,-23.247c34.177,-27.648 85.598,-94.551 92.982,-139.442c4.232,-25.877 -3.2,-47.71 -0,-71.835c31.673,53.694 -21.833,117.093 16.886,152.12c-21.287,48.772 -56.329,105.294 -101.408,130.997c-13.557,7.731 -41.914,5.106 -49.66,18.483" style="fill:#191b3f;fill-rule:nonzero;"/><path d="M2691.78,1247.34c8.802,-1.921 17.267,-10.028 23.082,-13.72c54.746,-36.277 96.11,-132.58 122.522,-202.832c55.123,98.243 -28.502,256.695 -123.767,280.825" style="fill:#191b3f;fill-rule:nonzero;"/><path d="M2663.97,1186.25c25.554,-4.228 58.12,-38.912 80.464,-45.596c12.34,-24.294 35.568,-37.672 50.726,-59.162c-14.265,56.874 -60.928,113.56 -108.628,152.834" style="fill:#191b3f;fill-rule:nonzero;"/><path d="M2619.61,1104.39c22.523,5.106 52.309,-15.323 65.682,-27.117c60.04,-52.816 119.013,-197.731 88.726,-287.345c29.226,23.059 56.874,55.282 63.374,97.181c8.282,52.478 -29.916,95.082 -21.118,143.675c-42.088,57.748 -88.919,110.573 -161.449,138.033" style="fill:#191b3f;fill-rule:nonzero;"/><path d="M2597.77,1062.13c7.567,-3.697 13.928,-10.043 19.912,-14.444c68.293,-48.762 105.805,-163.375 130.983,-245.079c1.056,-3.696 -1.588,-15.322 -4.233,-12.673c12.866,-13.035 21.157,53.525 21.157,54.935c3.156,96.476 -57.231,193.314 -122.561,240.85c-15.51,8.46 -25.177,-3.335 -34.148,-1.752" style="fill:#191b3f;fill-rule:nonzero;"/><path d="M2572.42,1002.09c7.915,-4.228 14.792,-13.373 19.888,-17.774c54.225,-47.372 104.773,-146.131 126.779,-228.183c31.504,10.386 -15.496,35.042 8.465,54.93c-29.395,94.724 -67.607,180.472 -137.169,235.218" style="fill:#191b3f;fill-rule:nonzero;"/><path d="M2561.87,964.76c11.795,-5.449 23.585,-13.909 30.438,-18.484c6.693,16.196 -12.654,22.007 -27.277,31.345" style="fill:#191b3f;fill-rule:nonzero;"/><path d="M2530.16,903.669c7.046,-8.267 13.73,-17.948 19.912,-24.999c30.978,-35.746 76.921,-79.937 84.489,-139.442c7.938,-61.985 -7.568,-125.36 -46.46,-160.575c2.447,-27.817 -9.865,-40.852 -8.45,-67.603c77.471,46.127 130.625,132.749 114.096,253.519c-11.279,82.052 -83.118,141.04 -131.026,181.708c-1.573,0.358 -3.151,0.536 -4.401,0.705" style="fill:#191b3f;fill-rule:nonzero;"/><path d="M2447.77,901.727c2.645,-8.267 5.087,-16.543 9.319,-23.058c78.717,-56.513 122.011,-148.419 131.011,-274.657c26.929,43.83 40.476,104.574 25.346,160.561c-14.786,54.76 -77.129,88.923 -106.186,132.048" style="fill:#191b3f;fill-rule:nonzero;"/><path d="M2554.31,527.951c-9.874,-28.526 -38.039,-45.601 -29.612,-84.508c-33.811,-64.446 -78.5,-100.892 -169.011,-101.428c12.513,33.995 30.987,61.981 42.266,97.196c123.921,29.935 150.339,235.04 76.052,333.818c-14.603,3.523 -17.774,-7.924 -25.341,0c-12.374,34.178 -28.092,71.169 -50.784,103.431c2.988,4.29 5.294,8.991 6.805,14.082l18.952,9.43c16.915,-26.581 35.586,-51.768 63.027,-67.776c58.288,-73.611 106.196,-193.503 67.646,-304.245" style="fill:#191b3f;fill-rule:nonzero;"/><path d="M2186.89,795.157c23.237,-41.368 74.286,-55.276 105.636,-88.735c48.781,-66.729 102.658,-94.377 101.428,-190.149c-1.245,-107.581 -87.52,-263.393 -211.282,-283.117c-67.081,-10.742 -177.654,-13.903 -249.311,25.347c-14.265,7.755 -23.594,28.883 -38.029,42.266c-53.356,49.466 -142.265,128.882 -147.911,215.504c-1.062,17.079 7.403,35.211 8.465,54.934c4.039,77.993 -15.849,165.151 -63.39,190.149c-9.338,-23.42 17.789,-38.912 25.361,-59.162c63.206,-168.673 -58.293,-289.096 -143.68,-359.164l-25.341,-0c-25.549,-33.102 -60.204,-46.132 -92.982,-50.707c-133.801,-18.845 -199.656,49.466 -257.737,114.082c-14.449,16.022 -53.882,72.008 -59.186,84.508c-16.003,37.691 -24.27,113.738 -21.114,164.802c2.119,35.558 15.497,68.848 12.683,101.414c-6.158,68.842 -111.273,100.356 -164.808,46.474c-11.973,-12.137 -33.275,-50.519 -8.445,-71.82c13.204,14.96 8.098,48.226 21.133,63.374c84.682,54.939 170.956,-21.128 126.755,-114.096c22.363,112.513 -110.39,102.837 -130.987,33.821c9.68,-12.861 11.794,-33.29 16.905,-50.721c-96.838,26.06 -100.004,220.268 0,245.083c6.515,-7.572 5.637,-22.523 25.356,-16.906c1.052,17.437 -5.637,16.558 -0,29.589c47.594,6.254 87.239,16.919 124.052,16.852c12.639,-8.624 29.197,-11.896 48.713,-5.579c57.898,18.759 134.718,-122.797 185.796,-152.245c31.673,-18.267 83.91,-3.301 90.512,36.822c8.102,49.042 4.295,44.602 53.505,53.959c36.697,6.979 70.735,25.066 107.374,31.007c11.302,1.829 22.305,1.197 33.275,-0.14c13.175,-24.694 43.12,-39.64 70.947,-31.026c5.236,1.626 10.583,2.818 15.984,3.817c0.912,-0.632 1.578,-1.394 2.543,-2.007c40.133,-25.805 88.069,-44.216 124.144,-75.797c26.34,-23.054 42.811,-56.291 78.128,-66.908c46.406,-13.952 76.998,27.296 93.315,63.573c15.385,34.216 10.771,71.116 19.304,105.737l311.102,-13.102c32.566,-28.165 54.235,-66.193 61.073,-108.633c-54.374,68.143 -182.557,48.762 -249.286,16.9" style="fill:#191b3f;fill-rule:nonzero;"/><path d="M1745.08,448.511c-45.239,-112.479 -181.177,-134.317 -291.558,-181.684c109.314,-76.603 274.483,10.381 316.918,114.081c37.136,-18.469 -16.92,-66.024 -33.81,-80.28c-78.36,-65.836 -215.162,-117.436 -312.7,-38.029c-140.847,-14.082 -211.456,107.75 -291.558,181.704c-19.362,45.427 -25.891,103.696 -38.033,156.342c-29.227,-51.942 -67.26,-132.396 -46.489,-207.049c44.563,-71.492 119.733,-146.145 240.865,-114.096c44.553,-77.65 104.237,-159.147 211.282,-173.248c110.578,-14.444 205.466,47.352 266.211,105.641c10.221,1.751 9.145,-7.741 21.114,-4.233c14.975,37.156 41.923,62.347 54.958,101.409c-38.043,52.13 -81.361,98.971 -105.65,164.802c-40.167,-41.551 -76.41,-86.978 -122.556,-122.536c44.553,8.976 95.964,47.541 109.878,101.408c10.207,1.771 9.14,-7.741 21.128,-4.232" style="fill:#191b3f;fill-rule:nonzero;"/><path d="M775.853,1403.88c4.213,20.236 8.976,40.49 13.566,60.214" style="fill:#191b3f;fill-rule:nonzero;"/><path d="M766.003,1307.57c-0.897,24.468 1.409,49.298 5.622,73.939" style="fill:#191b3f;fill-rule:nonzero;"/><path d="M773.567,1256.5c-2.475,8.633 -4.058,17.436 -5.299,26.239" style="fill:#191b3f;fill-rule:nonzero;"/><path d="M801.216,1197.53c-3.716,5.106 -7.046,10.733 -10.405,16.539c-3.523,6.515 -6.515,13.04 -9.334,19.719" style="fill:#191b3f;fill-rule:nonzero;"/><path d="M980.96,1027.09c-3.682,7.924 -6.158,16.9 -6.327,26.239c-1.235,58.269 -41.368,57.39 -86.795,77.645c-30.467,13.551 -55.639,29.574 -75.894,52.82" style="fill:#191b3f;fill-rule:nonzero;"/><path d="M1091.72,954.031c-0.55,0.516 -1.066,1.221 -1.597,1.757c-14.43,16.022 -29.762,35.572 -53.873,35.915c-14.608,0.173 -27.648,5.279 -38.202,13.739" style="fill:#191b3f;fill-rule:nonzero;"/><path d="M731.477,1665.15c-2.819,13.203 -5.092,26.238 -6.501,39.269" style="fill:#191b3f;fill-rule:nonzero;"/><path d="M746.984,1609.51c-4.232,12.495 -7.943,24.651 -11.104,36.982" style="fill:#191b3f;fill-rule:nonzero;"/><path d="M769.682,1532.93c0.723,4.57 1.582,8.972 2.649,13.373c-7.224,16.027 -13.908,31.687 -19.724,47.367" style="fill:#191b3f;fill-rule:nonzero;"/><path d="M781.306,1476.42c-8.272,9.502 -12.142,21.128 -13.035,33.434" style="fill:#191b3f;fill-rule:nonzero;"/><path d="M2507.26,896.621c-14.068,-1.926 -28.854,0.362 -40.649,6.52c-6.356,-0.348 -12.519,-1.052 -18.841,-1.414" style="fill:#191b3f;fill-rule:nonzero;"/><path d="M2558.32,946.981c-0.338,-2.288 -0.854,-4.571 -1.23,-6.863c-2.616,-17.089 -13.2,-29.395 -26.929,-36.451" style="fill:#191b3f;fill-rule:nonzero;"/><path d="M2565.03,977.621c-1.241,-4.227 -2.312,-8.46 -3.161,-12.861" style="fill:#191b3f;fill-rule:nonzero;"/><path d="M2590.38,1046.28c-6.505,-14.618 -12.692,-29.038 -17.962,-44.191" style="fill:#191b3f;fill-rule:nonzero;"/><path d="M2608.88,1083.97c-3.885,-7.398 -7.393,-14.444 -11.109,-21.837" style="fill:#191b3f;fill-rule:nonzero;"/><path d="M2654.82,1168.82c-11.621,-21.645 -23.594,-42.951 -35.215,-64.427" style="fill:#191b3f;fill-rule:nonzero;"/><path d="M2686.53,1234.33c-6.882,-16.389 -14.444,-32.397 -22.562,-48.076" style="fill:#191b3f;fill-rule:nonzero;"/><path d="M2713.62,1311.61c-6.153,-21.655 -13.547,-43.135 -21.838,-64.273" style="fill:#191b3f;fill-rule:nonzero;"/><path d="M2732.81,1391.55c-4.401,-22.547 -9.666,-45.06 -15.651,-67.077" style="fill:#191b3f;fill-rule:nonzero;"/><path d="M2744.6,1460.92c-2.813,-18.315 -5.434,-36.629 -8.967,-54.765" style="fill:#191b3f;fill-rule:nonzero;"/><path d="M2204,355.655c-142.969,6.699 -272.393,65.325 -359.183,152.125c-26.239,79.412 -56.151,155.117 -59.153,257.766c24.29,-94.015 70.431,-166.207 101.419,-253.538c65.483,-91.028 356.534,-132.753 380.297,25.351c-32.397,-19.719 -41.909,-62.328 -76.072,-80.281c-72.346,-20.954 -178.171,-13.208 -236.618,25.351c-76.41,71.483 -122.547,173.244 -147.907,295.785c24.999,-21.475 23.951,-69.016 71.835,-67.607c45.958,-111.973 222.029,-141.908 367.644,-114.086c15.129,79.933 16.191,200.008 -67.622,207.054c-5.28,-23.599 23.609,-13.03 29.588,-25.361c21.833,-36.614 38.893,-93.31 25.341,-152.11c-111.963,-48.955 -292.088,-16.201 -325.378,80.28c88.929,2.293 202.663,13.561 223.97,97.191c-6.704,10.738 -20.081,30.63 -33.811,21.123c-2.104,-17.605 12.316,-18.662 8.465,-38.029c-35.573,-52.641 -143.323,-82.929 -207.064,-59.161c-47.541,17.788 -50.186,70.961 -88.741,80.29c-16.895,34.158 -51.753,71.835 -84.503,76.057c13.016,-36.093 55.62,-46.122 54.93,-84.508c-29.057,-50.537 -2.471,-114.795 12.678,-177.475c25.36,-105.458 17.069,-116.558 92.968,-173.249c68.842,-51.406 213.197,-114.086 316.917,-92.968" style="fill:#030405;fill-rule:nonzero;"/><path d="M1527.11,895.384c-22.533,-6.163 1.935,-29.584 -0,-42.257c-36.967,-56.696 -80.305,-159.166 -164.793,-152.125c-41.383,3.35 -78.365,35.92 -114.096,54.939c-29.226,60.919 -42.956,137.329 -114.101,156.343c5.125,-21.485 29.762,-23.773 42.261,-38.033c21.307,-24.294 27.996,-56.687 33.811,-97.186c22.537,-53.347 111.273,-65.141 156.357,-97.191c6.327,-4.401 57.217,13.909 67.608,21.128c36.257,24.82 73.417,81.873 97.176,126.765c10.559,19.902 28.888,61.806 -4.223,67.617" style="fill:#030405;fill-rule:nonzero;"/><path d="M1607.4,865.801c-9.696,-19.724 14.251,-38.033 33.81,-42.251c13.716,-39.974 40.49,-70.783 29.564,-122.547c-15.312,-72.891 -62.129,-184.869 -122.531,-211.277c-65.851,-28.695 -196.664,-48.419 -257.761,-21.133c-61.792,27.47 -80.812,115.853 -92.968,202.832c-37.493,-77.819 38.564,-145.779 59.171,-207.054c96.11,-48.246 226.407,-2.988 321.141,12.677c39.626,54.761 118.488,166.738 109.854,266.212c-4.039,45.779 -37.155,114.796 -80.28,122.541" style="fill:#030405;fill-rule:nonzero;"/><path d="M1548.24,844.671c-22.006,-24.652 13.909,-35.385 16.896,-59.157c4.744,-37.329 -33.454,-122.542 -71.835,-164.793c-37.498,-41.2 -121.663,-68.843 -160.58,-42.257c0.198,18.484 2.466,39.081 -8.431,46.479c-24.482,-15.139 -7.403,-66.902 8.431,-80.28c97.2,-4.406 170.449,54.756 211.287,135.215c27.286,53.703 63.037,122.015 4.232,164.793" style="fill:#030405;fill-rule:nonzero;"/><path d="M619.027,898.452c5.642,1.414 6.689,7.403 12.688,8.46c45.239,91.549 120.239,174.657 219.722,211.277c16.558,6.153 44.018,-5.811 50.707,21.123c-32.74,11.795 -82.568,-14.434 -114.101,-33.801c-29.038,-17.957 -72.52,-55.813 -101.409,-84.513c-32.739,-32.575 -80.468,-82.399 -67.607,-122.546" style="fill:#030405;fill-rule:nonzero;"/><path d="M707.766,716.756c-61.623,123.599 68.843,296.49 177.476,329.596c19.376,5.984 44.549,-9.155 50.706,16.901c-48.076,14.97 -109.873,-24.289 -147.902,-59.157c-71.12,-65.141 -138.033,-164.972 -105.641,-274.662c-1.221,-6.867 4.054,-7.219 4.233,-12.678l21.128,0Z" style="fill:#030405;fill-rule:nonzero;"/><path d="M1800.69,824.853c-7.741,14.801 -18.315,28.425 -34.178,35.37c66.864,1.752 86.342,-36.88 131.774,-76.97c48.207,-42.546 98.247,-23.314 123.83,32.74c12.924,28.29 16.708,59.948 19.632,90.588c33.29,1.969 76.965,-3.537 101.24,-26.63c-29.333,-17.141 -55.47,-35.977 -72.607,-65.947c-12.92,-22.556 -17.422,-49.736 -37.402,-67.805c-50.895,-46.059 -135.248,-30.794 -177.958,15.945c-23.006,25.187 -40.915,51.214 -69.017,71.512" style="fill:#191b3f;fill-rule:nonzero;"/><path d="M1348.8,766.164c58.597,-1.641 92.572,4.141 107.291,64.046c12.215,49.847 28.546,82.958 82.602,94.941c45.634,10.12 91.057,0 131.638,-21.765c18.532,-9.946 81.564,-42.324 39.506,-49.389c-24.671,-4.155 -60.788,12.465 -85.69,15.713c-26.307,3.432 -51.991,3.422 -78.249,-0.333c-20.829,28.749 -30.177,-15.66 -37.363,-29.322c-10.752,-20.496 -25.655,-46.677 -42.116,-63.593c-28.203,-28.975 -103.706,-60.85 -129.38,-10.298" style="fill:#191b3f;fill-rule:nonzero;"/><path d="M2381.72,848.333c3.209,4.666 4.324,12.61 2.417,20.027c-76.564,66.165 -192.315,77.477 -287.339,51.243c-25.501,-7.041 -42.459,-16.973 -49.167,-44.279c3.552,-3.093 7.499,-7.504 11.278,-9.386" style="fill:#191b3f;fill-rule:nonzero;"/><path d="M2393.43,842.46c-39.612,85.444 -135.862,95.733 -218.874,95.927c-39.549,0.086 -81.549,5.771 -114.202,-21.244c-45.943,-38.044 -28.029,-71.227 27.972,-67.786c90.834,5.569 171.737,37.213 258.171,-6.897" style="fill:#191b3f;fill-rule:nonzero;"/><path d="M1037.73,877.67c-17.349,-0.42 -62.602,-18.165 -58.838,14.695c2.823,24.835 43.67,22.157 61.28,25.877c8.393,-15.708 2.548,-33.999 -17.093,-34.699" style="fill:#191b3f;fill-rule:nonzero;"/><path d="M1116.96,921.689c113.314,43.636 202.942,-19.671 217.362,-136.957c-34.843,32.078 -68.596,65.411 -103.831,96.93c-13.421,12.021 -32.566,27.122 -50.132,32.237c-19,5.531 -41.045,-4.599 -57.516,7.79" style="fill:#191b3f;fill-rule:nonzero;"/><path d="M2540.17,892.347c-29.964,9.097 -24.028,46.266 5.83,49.958c33.825,4.175 36.605,-34.786 11.771,-49.958" style="fill:#191b3f;fill-rule:nonzero;"/><path d="M2507.89,874.741c15.086,18.358 -38.308,45.162 -54.992,37.571c-38,-17.263 30.042,-44.911 52.063,-40.51" style="fill:#191b3f;fill-rule:nonzero;"/><path d="M2637.01,1097.76c-83.49,-29.12 21.152,117.807 38.135,41.083" style="fill:#191b3f;fill-rule:nonzero;"/><path d="M2681.03,1179.92c-28.618,-18.542 -44.298,30.992 -16.162,45.813c35.379,18.633 44.013,-23.937 45.045,-48.289c-7.441,-0.661 -15.409,1.848 -20.081,5.415" style="fill:#191b3f;fill-rule:nonzero;"/><path d="M2733.85,1232.73c-31.05,1.028 -97.267,40.645 -43.815,69.2c48.897,26.114 82.057,-40.273 61.421,-78.002" style="fill:#191b3f;fill-rule:nonzero;"/><path d="M2742.65,1317.84c-47.184,-4.416 -53.607,61.975 -13.73,67.549c41.344,5.791 108.908,-81.25 48.94,-64.62" style="fill:#191b3f;fill-rule:nonzero;"/><path d="M2763.17,1400c-9.551,3.397 -23.098,6.206 -34.685,9.299c-17.34,23.706 2.505,49.197 27.923,47.691c24.791,-1.467 66.855,-27.383 68.399,-54.046" style="fill:#191b3f;fill-rule:nonzero;"/><path d="M785.378,1153.51c15.095,26.118 60.508,50.007 83.426,15.834c25.824,-38.497 -42.299,-40.476 -62.877,-18.763" style="fill:#191b3f;fill-rule:nonzero;"/><path d="M779.515,1179.92c18.435,8.233 54.606,22.315 19.323,38.603c-25.114,11.587 -63.891,-29.352 -34.004,-35.664" style="fill:#191b3f;fill-rule:nonzero;"/><path d="M738.423,1235.67c11.278,1.612 53.68,4.469 42.228,26.35c-10.864,20.776 -40.524,-9.792 -51.03,-17.548" style="fill:#191b3f;fill-rule:nonzero;"/><path d="M738.423,1303.17c59.591,-12.741 57.704,96.138 0,41.083" style="fill:#191b3f;fill-rule:nonzero;"/><path d="M2700.59,1441.79c-33.232,-26.89 -50.751,-61.946 -39.023,-102.055c-23.32,-23.522 -32.31,-48.26 -27.706,-80.029c-17.895,-13.122 -33.927,-31.171 -34.038,-54.341c-0.198,-37.879 -8.547,-47.343 -26.364,-83.649c-20.385,-41.498 -55.055,-83.909 -42.778,-125.345c-15.26,-12.62 -27.093,-24.83 -34.072,-42.536c-22.151,-1.154 -40.475,-6.931 -52.719,-22.852c-24.767,3.47 -45.514,-0.791 -61.69,-14.975c-57.092,32.301 -110.356,70.73 -175.729,86.608c-59.693,14.487 -153.867,-0.599 -187.963,-58.791c-6.631,-11.336 -9.748,-32.063 -13.247,-53.293c-2.741,-9.353 -4.498,-19.092 -5.627,-29.052c-1.313,-5.497 -2.785,-10.762 -4.537,-15.502c-2.34,-4.763 -4.71,-9.434 -7.176,-14.014c-6.621,-9.305 -15.776,-13.749 -29.308,-9.203c-34.631,11.635 -64.963,31.373 -97.736,47.043c-36.277,17.355 -71.203,30.785 -108.15,25.544c-13.098,12.181 -25.723,22.837 -35.693,31.157c-72.453,60.426 -166.058,63.066 -239.722,6.998c-15.4,-11.728 -28.449,-26.177 -43.646,-38.082c-43.024,-33.686 -83.707,3.976 -121.239,26.953c-38.038,23.276 -74.151,43.564 -118.69,50.253c-13.17,1.974 -27.083,2.249 -41.354,1.385c-15.819,22.05 -37.392,38.642 -65.643,49.215c-17.47,6.525 -38.429,13.344 -59.316,16.032c-12.157,63.395 -61.107,120.09 -126.07,123.357c-11.76,27.962 -36.006,55.118 -62.347,65.938c-6.5,24.4 -19.429,45.837 -39.317,62.192c4.725,10.318 7.823,20.791 9.609,31.365c12.721,40.321 13.459,90.226 3.957,137.569c22.04,32.904 15.178,74.576 -7.997,112.103c-7.065,11.418 -30.384,24.98 -29.486,40.138c0.786,13.662 1.718,26.779 0.825,40.447c-1.723,25.587 -16.201,51.811 -30.573,74.117c48.849,81.135 78.543,170.903 134.558,249.393c47.715,66.734 157.395,117.44 249.311,156.343c242.434,102.648 606.366,235.768 883.146,190.144c149.302,-61.778 285.742,-185.034 418.332,-300.008c41.537,-35.905 81.882,-86.429 118.309,-135.215c38.202,-51.228 88.229,-95.955 114.086,-143.674c36.963,-67.994 65.918,-157.11 68.568,-243.467c-23.411,-12.513 -32.624,-31.484 -31.745,-58.211" style="fill:#968dc4;fill-rule:nonzero;"/><path d="M891.688,2059.45c9.146,3.523 14.961,10.386 12.673,25.361c-8.802,-3.885 -12.842,-12.509 -12.673,-25.361" style="fill:#030405;fill-rule:nonzero;"/><path d="M807.163,1962.25c19.376,10.405 46.151,20.959 38.034,46.494c-19.705,-6.511 -48.077,-23.947 -38.034,-46.494" style="fill:#030405;fill-rule:nonzero;"/><path d="M1910.05,1903.11c99.826,-40.322 160.918,126.58 33.797,114.081c2.099,-30.278 -18.836,-37.503 -33.797,-50.706c-48.955,22.884 -64.789,91.92 -59.171,156.342c212.329,-32.566 416.044,-102.649 561.996,-219.717c19.729,-15.854 31.181,-44.892 59.171,-50.712c12.143,21.307 -15.679,35.568 -29.578,46.479c-45.779,35.582 -105.631,76.41 -164.798,101.418c-50.021,42.966 -126.233,59.693 -194.381,84.518c16.548,112.137 -124.313,118.657 -215.505,122.541c-5.81,-20.954 -16.538,-36.991 -16.905,-63.399c-45.953,-5.101 -37.667,44.023 -50.702,71.84c-48.593,30.278 -132.391,14.792 -185.931,-4.232c-6.153,-16.36 -9.666,-35.38 -8.445,-59.143c-104.232,-13.566 -214.105,-27.3 -316.923,-42.261c5.111,-14.787 9.174,-30.278 25.365,-33.811c9.493,8.808 12.847,23.763 25.342,29.583c149.485,12.862 352.475,58.631 494.393,21.129c3.171,-22.885 -5.275,-34.149 -4.232,-54.935c-16.36,-3.334 -26.408,-13.035 -46.474,-12.673c1.052,-27.817 -0,-53.525 -12.669,-67.607c-34.332,-0.531 -33.116,34.511 -59.161,42.247c-47.72,-32.566 -34.854,-111.452 29.583,-118.309c17.784,-72.54 142.955,-91.023 169.025,-12.673" style="fill:#030405;fill-rule:nonzero;"/><path d="M1597.37,1767.89c-4.064,10.028 -7.403,20.775 -25.361,16.9c-3.185,-17.431 14.42,-26.596 25.361,-16.9" style="fill:#030405;fill-rule:nonzero;"/><path d="M1588.9,1738.3c-5.82,11.094 -10.559,23.251 -25.346,25.36c-2.987,-19.183 12.659,-34.863 25.346,-25.36" style="fill:#030405;fill-rule:nonzero;"/><path d="M1817.08,1725.63c44.553,16.023 28.695,92.433 76.038,105.636c-25.162,16.544 -79.561,-13.734 -122.512,-4.232c1.414,-14.082 19.188,-11.79 33.801,-12.663c9.15,-36.799 -27.817,-47.01 -16.92,-71.84c38.227,6.862 8.465,81.689 63.389,71.84c-1.404,-37.86 -38.564,-58.1 -33.796,-88.741" style="fill:#030405;fill-rule:nonzero;"/><path d="M1521.29,2050.99c-75.531,-1.216 -160.406,14.623 -236.618,-8.436c-185.236,-56.169 -331.362,-235.745 -414.118,-384.525c-13.74,-24.82 -34.506,-61.28 -33.821,-76.067c2.819,-58.453 140.683,-126.234 219.737,-126.769c190.685,-1.221 320.084,93.498 401.445,211.282c15.468,22.363 35.211,45.422 46.479,71.83c26.215,61.989 71.816,197.542 16.896,266.216c-4.57,19.723 11.095,33.265 0,46.469" style="fill:#030405;fill-rule:nonzero;"/><path d="M1584.67,1717.17c-6.496,11.795 -16.896,19.729 -29.574,25.361c-33.801,-190.14 -98.248,-349.668 -291.577,-380.293l0,-12.688c172.201,29.231 272.562,166.922 300.037,354.957c-2.133,13.372 19.357,3.151 21.114,12.663" style="fill:#030405;fill-rule:nonzero;"/><path d="M1415.66,1125.6c13.03,-19.367 -19.193,-68.138 4.227,-84.508c24.83,4.927 24.999,30.461 38.034,46.479c42.425,51.763 107.388,85.217 152.11,135.224c12.499,-41.909 -10.574,-100.535 8.441,-130.997c49.143,77.646 108.459,145.079 169.02,211.282c34.526,-44.37 36.277,-121.489 71.835,-164.798c9.527,29.926 1.771,77.11 4.233,114.087c47.372,-31.514 69.547,-88.21 118.333,-118.314c11.249,29.226 -1.955,67.786 -4.232,97.19c59.325,-51.946 106.871,-115.674 181.703,-152.129c1.047,44.722 -28.353,58.983 -33.811,97.19c47.526,-41.551 115.853,-63.91 177.485,-80.285c72.178,11.974 149.461,10.917 202.813,42.261c61.975,36.441 129.935,118.31 105.636,185.931c-72.178,-70.609 -180.801,-138.568 -300.013,-126.778c-144.374,14.265 -231.705,132.584 -321.145,198.608c-23.947,78.698 -30.452,162.332 4.232,236.623c9.507,-223.612 185.395,-353.175 414.114,-274.656c84.314,28.869 136.45,80.106 130.987,194.381c-7.225,149.654 -113.377,229.403 -185.941,312.69c-45.939,28.865 -138.207,56.682 -194.357,25.361c-18.503,4.203 -32.228,35.21 -46.494,29.564c-27.098,-38.198 -58.973,-83.625 -80.28,-130.997c-16.384,-36.257 -19.893,-73.249 -33.816,-118.314c-8.614,-27.807 -31.335,-51.57 -38.019,-80.275c-13.397,-57.41 -1.597,-140.147 4.208,-177.471c-68.292,54.934 -185.723,22.344 -261.964,-12.697c-88.2,-40.659 -153.003,-99.117 -240.87,-139.433c-130.804,-60.035 -400.905,-119.897 -532.408,-16.896c7.736,-76.776 90.13,-115.505 181.689,-122.551c-1.771,-32.918 -41.2,-5.801 -46.474,-38.024c11.259,-16.732 60.556,-10.395 101.413,-8.45c28.883,1.226 59.866,5.275 80.285,8.45c-9.526,-41.204 -48.964,-52.468 -54.949,-97.19c74.837,29.404 145.808,99.304 223.975,139.442" style="fill:#030405;fill-rule:nonzero;"/><path d="M1466.36,1987.61c-34.341,42.266 -107.412,4.937 -97.19,-42.262c11.1,-51.406 112.682,-29.916 97.19,42.262" style="fill:#030405;fill-rule:nonzero;"/><path d="M1466.36,1987.61c-34.341,42.266 -107.412,4.937 -97.19,-42.262c11.1,-51.406 112.682,-29.916 97.19,42.262" style="fill:#030405;fill-rule:nonzero;"/><path d="M1466.36,1987.61c-34.341,42.266 -107.412,4.937 -97.19,-42.262c11.1,-51.406 112.682,-29.916 97.19,42.262" style="fill:#030405;fill-rule:nonzero;"/><path d="M1466.36,1987.61c-34.341,42.266 -107.412,4.937 -97.19,-42.262c11.1,-51.406 112.682,-29.916 97.19,42.262" style="fill:#030405;fill-rule:nonzero;"/><path d="M1466.36,1987.61c-34.341,42.266 -107.412,4.937 -97.19,-42.262c11.1,-51.406 112.682,-29.916 97.19,42.262" style="fill:#030405;fill-rule:nonzero;"/><path d="M1466.36,1987.61c-34.341,42.266 -107.412,4.937 -97.19,-42.262c11.1,-51.406 112.682,-29.916 97.19,42.262" style="fill:#030405;fill-rule:nonzero;"/><path d="M1466.36,1987.61c-34.341,42.266 -107.412,4.937 -97.19,-42.262c11.1,-51.406 112.682,-29.916 97.19,42.262" style="fill:#030405;fill-rule:nonzero;"/><path d="M1466.36,1987.61c-34.341,42.266 -107.412,4.937 -97.19,-42.262c11.1,-51.406 112.682,-29.916 97.19,42.262" style="fill:#030405;fill-rule:nonzero;"/><path d="M1466.36,1987.61c-34.341,42.266 -107.412,4.937 -97.19,-42.262c11.1,-51.406 112.682,-29.916 97.19,42.262" style="fill:#030405;fill-rule:nonzero;"/><path d="M1864.33,2133.64c69.735,-6.346 127.831,-24.482 185.926,-42.266c16.21,4.763 14.623,35.741 8.465,50.702c-46.32,24.13 -110.038,53.356 -173.239,46.488c-15.511,-9.864 -20.081,-30.63 -21.152,-54.924" style="fill:#fff;fill-rule:nonzero;"/><path d="M2002.02,1990.5c-7.384,9.512 -25.515,8.281 -38.014,12.677c-33.276,-89.956 -124.487,-21.113 -122.542,54.93c-17.427,3.354 -21.659,-6.51 -38.034,-4.223c21.669,-74.127 -65.141,-94.02 -80.285,-38.024c-36.074,-16.896 -20.071,-84.865 29.584,-76.053c18.309,-88.214 128.356,-89.985 164.797,-16.905c48.777,-14.444 93.494,10.376 84.494,67.598" style="fill:#968dc4;fill-rule:nonzero;"/><path d="M1506.58,2032.89c-285.935,30.64 -442.123,-131.151 -566.229,-308.458c-15.51,-22.175 -86.829,-112.687 -84.527,-147.907c3.166,-48.583 133.12,-114.057 211.282,-114.057c134.529,-0 255.806,60.899 338.027,147.868c70.083,74.137 128.55,204.772 122.561,308.492c-2.645,46.802 -29.4,56.84 -21.114,114.062" style="fill:#fff;fill-rule:nonzero;"/><path d="M2116.65,1906.93c-1.921,-37.165 -35.379,-53.525 -50.721,-80.299c-110.216,-192.967 -37.305,-481.899 211.282,-477.489c66.193,1.241 182.938,30.631 215.504,80.295c49.134,74.996 21.153,207.05 -21.118,274.657c-37.518,59.866 -131.359,169.204 -215.505,181.703c-68.326,10.207 -109.695,-38.564 -139.442,21.133" style="fill:#fff;fill-rule:nonzero;"/><path d="M1226.38,1014.89c73.766,38.912 137.348,88.031 202.822,135.22c19.743,-14.792 1.96,-55.639 0,-76.063c71.14,58.457 138.241,120.959 202.846,185.926c14.073,-34.506 -12.678,-74.475 -4.223,-126.759c37.484,54.046 94.363,100.882 135.215,156.338c10.902,14.796 19.362,45.248 42.266,42.261c-0.898,-42.435 22.175,-84.156 38.029,-122.547c21.451,19.898 -8.803,69.553 16.886,80.286c34.351,-41.726 64.789,-87.327 101.408,-126.765c14.614,34.859 -13.382,84.513 0,118.314c20.979,-1.583 18.677,-26.403 25.38,-42.251c43.121,-44.197 86.443,-88.21 135.21,-126.769c8.455,30.104 -33.637,67.081 -25.375,97.185c70.252,-35.21 121.49,-89.44 202.851,-97.185c35.727,-3.345 65.855,13.377 109.868,4.218c81.675,20.964 164.61,73.953 194.357,160.575c-12.137,4.753 -32.044,-20.593 -54.91,-33.797c-59.355,-33.989 -144.741,-69.021 -228.206,-71.844c-162.342,15.318 -245.078,143.853 -354.952,211.282c-31.32,19.183 -74.653,43.144 -126.75,38.033c-157.052,-15.327 -279.26,-152.651 -418.321,-202.836c-128.888,-41.726 -333.138,-81.511 -460.593,-16.896c43.121,-49.828 106.153,-77.462 194.353,-71.835c2.306,-30.461 -33.242,-23.068 -38.029,-46.484c61.111,4.233 110.935,2.993 164.822,16.901c-7.215,-39.259 -41.195,-51.764 -54.954,-84.508" style="fill:#191b3f;fill-rule:nonzero;"/><path d="M2217.97,1714.92c30.819,-1.39 78.355,22.006 80.305,63.389c4.232,86.269 -150.894,57.926 -135.215,-25.356c3.514,-18.314 23.228,-36.619 54.91,-38.033" style="fill:#030405;fill-rule:nonzero;"/><path d="M2202.44,1729.6c26.963,-13.011 81.024,13.397 71.84,59.166c-16.023,80.643 -154.051,-19.193 -71.84,-59.166" style="fill:#191b3f;fill-rule:nonzero;"/><path d="M1478.62,1958.01c-46.465,51.542 -138.144,0.155 -122.358,-58.988c17.093,-64.437 146.29,-31.461 122.358,58.988" style="fill:#030405;fill-rule:nonzero;"/><path d="M1469.23,1949.47c-34.337,42.262 -107.393,4.937 -97.172,-42.261c11.066,-51.416 112.668,-29.916 97.172,42.261" style="fill:#191b3f;fill-rule:nonzero;"/><path d="M1618.75,2152.68c0,-0 145.533,5.318 177.544,-0c-1.477,11.746 2.919,41.098 -8.803,51.358c-14.685,5.868 -158.461,7.335 -161.381,-5.874c-2.958,-13.203 -13.218,-17.61 -7.36,-45.484" style="fill:#fff;fill-rule:nonzero;"/><g opacity="0.24"><path d="M2225.91,1780.79c0,9.28 -7.166,16.828 -16.003,16.828c-8.836,0 -16.008,-7.548 -16.008,-16.828c0,-9.3 7.172,-16.828 16.008,-16.828c8.837,-0 16.003,7.528 16.003,16.828" style="fill:#fff;fill-rule:nonzero;"/></g><g opacity="0.24"><path d="M1456.13,1922.31c-0,9.299 -7.181,16.833 -16.027,16.833c-8.832,-0 -15.984,-7.534 -15.984,-16.833c0,-9.3 7.152,-16.829 15.984,-16.829c8.846,0 16.027,7.529 16.027,16.829" style="fill:#fff;fill-rule:nonzero;"/></g><g opacity="0.24"><path d="M1410.41,1908.39c0,5.27 -4.584,9.541 -10.26,9.541c-5.675,-0 -10.289,-4.271 -10.289,-9.541c0,-5.265 4.614,-9.541 10.289,-9.541c5.676,-0 10.26,4.276 10.26,9.541" style="fill:#fff;fill-rule:nonzero;"/></g><g opacity="0.24"><path d="M2237.92,1749.93c-0,5.27 -4.59,9.546 -10.27,9.546c-5.665,-0 -10.274,-4.276 -10.274,-9.546c-0,-5.26 4.609,-9.531 10.274,-9.531c5.68,-0 10.27,4.271 10.27,9.531" style="fill:#fff;fill-rule:nonzero;"/></g><g opacity="0.24"><path d="M1913.69,1882.66c4.686,-28.859 -9.59,-67.366 -43.376,-65.165c3.276,-38.84 -24.956,-102.586 -70.412,-99.922c3.543,17.561 14.295,36.962 16.148,55.035c-20.998,-16.968 -35.847,-42.039 -64.576,-41.817c-4.291,31.147 39.047,40.9 33.878,76.917c-10.361,-4.329 -19.685,0.352 -29.381,-1.994c-7.856,9.522 -11.022,21.022 -8.802,33.681c2.775,1.984 7.514,3.185 10.641,5.164c-29.279,10.052 -44.964,47.859 -56.17,74.088c-24.294,2.621 -44.186,30.684 -38.685,55.466c5.101,23.068 29.28,33.646 34.197,19.815c-4.058,-28.488 23.353,-32.706 46.745,-34.974c2.948,-27.542 21.654,-50.591 54.838,-56.454c28.164,-4.966 57.381,-0.579 78.919,15.173c6.583,3.851 12.388,8.773 16.611,15.129c40.297,1.617 85.246,-9.879 107.398,35.674c-3.789,-32.619 -60.972,-96.756 -87.973,-85.816" style="fill:#030405;fill-rule:nonzero;"/></g><g opacity="0.24"><path d="M1882.06,2192.42c-6.877,-9.131 -7.876,-19.835 -8.011,-30.94c-0.241,-20.612 18.966,-28.642 34.279,-24.328c0.922,-0.376 1.728,-0.835 2.717,-1.134c21.944,-6.722 43.912,-8.855 66.164,-7.258c9.03,-2.037 17.934,-4.464 26.273,-5.946c3.33,-0.593 6.674,-0.622 9.903,-0.255c3.195,0.419 6.259,1.303 9.083,2.649c6.312,2.987 11.341,8.238 13.517,16.046c3.436,12.49 -3.856,28.773 -17.195,32.088c-0.072,0.705 -0.396,1.313 -0.536,2.003c-32.015,2.881 -84.392,14.039 -106.789,30.081c-11.867,-0.256 -21.08,-2.003 -29.405,-13.006m440.951,-215.799l8.802,-4.402c1.487,-1.612 2.891,-1.361 4.165,-0.921c-2.649,1.998 -5.395,3.909 -8.218,5.805c-1.405,-0.227 -2.891,-0.429 -4.749,-0.482m-544.994,215.799c-25.289,48.158 -99.536,33.062 -139.872,16.538c-10.038,-4.111 -20.805,-12.986 -19.396,-25.471c2.206,-19.116 11.008,-39.728 32.605,-43.063c12.374,-1.911 22.112,3.919 27.744,12.254l76.106,-0c20.718,-0 32.016,22.247 22.813,39.742m585.146,-247.641c-6.554,8.788 -14.84,16.756 -24.159,24.115c-21.736,0.14 -77.684,27.528 -108.734,52.531c-24.328,7.977 -47.213,14.217 -64.509,19.319c-15.27,4.517 -30.636,8.817 -46.05,13.064c-17.74,7.156 -35.625,13.628 -53.761,18.695c-9.286,2.606 -18.6,4.986 -27.943,7.244c-7.803,2.698 -15.612,5.41 -23.42,8.113c-2.679,2.746 -6.028,5.067 -10.26,6.65c-8.721,3.286 -17.509,6.221 -26.326,8.889c-0.69,0.222 -1.409,0.396 -2.095,0.608c-8.431,2.505 -16.871,4.812 -25.351,6.877c-106.977,26.085 -218.598,16.496 -328.64,19.179c-6.698,0.164 -13.479,-0.227 -20.216,-0.512c-70.667,8.074 -142.729,-1.582 -211.074,-21.441c-3.171,0.255 -6.395,0.178 -9.565,0.555c-10.038,1.216 -16.983,-2.703 -21.003,-8.803l-49.423,-0c22.064,69.132 200.838,63.317 259.05,66.685c-16.399,69.813 46.469,89.74 105.167,91.53c32.518,1.004 162.911,4.117 151.546,-43.207c42.247,43.999 186.047,33.797 235.769,3.504c37.464,-22.842 15.839,-62.27 45.953,-89.035c3.653,-3.238 8.282,-6.1 13.276,-8.807c49.916,-8.446 101.824,-25.525 140.997,-46.658c41.257,-22.272 139.254,-104.521 140.074,-152.945c-10.641,10.998 -24.429,18.203 -39.303,23.85" style="fill:#030405;fill-rule:nonzero;"/></g><g opacity="0.24"><path d="M2904.03,1430.81c7.977,42.917 -83.9,85.425 -118.078,102.007c-2.147,11.003 -2.514,27.387 0.131,38.41c58.418,-20.076 151.502,-11.694 210.036,1.187c-37.28,27.817 -56.213,58.65 -9.989,87.597c-85.102,-25.969 -74.6,17.706 -29.733,68.36c-47.416,-28.913 -164.47,-43.217 -110.023,47.053c-62.048,-6.438 -117.696,0.396 -175.073,-28.69c50.345,-80.31 65.687,-172.969 70.542,-266.839c42.329,-8.267 142.174,-84.127 175.391,-44.684" style="fill:#030405;fill-rule:nonzero;"/></g><g opacity="0.24"><path d="M844.063,1589.27c4.845,233.457 171.284,392.362 393.602,447.586c55.987,13.914 113.049,15.535 170.459,14.604c-221.802,-18.619 -350.154,-165.971 -476.957,-328.568c-32.257,-41.383 -61.005,-83.697 -87.104,-129.221" style="fill:#030405;fill-rule:nonzero;"/></g><g opacity="0.24"><path d="M1262.22,1351.58c173.899,-29.858 303.231,117.947 335.387,279.43c8.962,44.963 3.228,89.155 -6.018,133.559c-48.251,-10.212 -52.652,-158.264 -73.457,-199.497c-35.895,-71.227 -71.391,-119.376 -138.786,-165.642c-38.892,-26.683 -76.101,-31.77 -121.166,-44.424c2.935,-5.873 6.617,-2.036 12.842,-3.426" style="fill:#030405;fill-rule:nonzero;"/></g><g opacity="0.24"><path d="M1944.47,1408.8c3.402,-2.157 7.19,-6.862 12.412,-8.267c-15.332,31.181 -51.358,22.094 -68.944,46.591c-17.938,25.008 -3.508,77.785 4.16,104.733c13.383,47.025 54.611,127.73 109.164,134.549c-4.213,-50.731 -38.931,-86.868 -39.129,-140.475c-0.179,-46.735 25.317,-105.004 -0.816,-149.572c-13.373,-3.359 -19.082,2.321 -25.65,12.441" style="fill:#030405;fill-rule:nonzero;"/></g><g opacity="0.24"><path d="M2146.95,1888.58c162.332,45.548 335.865,-26.326 378.02,-203.565c10.081,-42.416 7.915,-86.53 4.956,-129.646c-29.091,134.399 -110.761,278.745 -243.466,328.612c-47.961,18.034 -88.683,22.947 -139.51,13.402" style="fill:#030405;fill-rule:nonzero;"/></g><g opacity="0.24"><path d="M496.332,1540.85c14.546,66.728 42.691,87.794 103.527,109.265c39.076,13.797 85.314,55.692 120.887,78.62c46.083,29.718 45.065,69.924 63.259,117.904c21.953,57.926 35.591,81.149 -45.119,72.09c40.819,-97.456 -63.495,-46.18 -105.172,-30.567c-0.415,-23.02 15.129,-40.297 11.621,-64.949c-54.746,-5.767 -84.836,55.866 -139.737,55.668c7.447,-14.111 17.765,-28.763 25.501,-42.469c-57.845,-4.406 -110.385,-25.37 -139.737,-78.668c46.137,-49.973 162.462,-80.391 228.043,-65.609c22.185,4.995 55.967,43.361 73.335,20.718c24.159,-31.504 -37.401,-87.081 -58.375,-100.429c-33.183,-21.099 -119.824,-66.473 -142.434,-71.574" style="fill:#030405;fill-rule:nonzero;"/></g><g opacity="0.24"><path d="M276.25,612.104c-1.288,2.905 -2.268,6.028 -3.455,9.02c2.63,-1.539 5.106,-3.122 7.856,-4.618l-4.401,-4.402Z" style="fill:#030405;fill-rule:nonzero;"/><path d="M658.521,1601.82c-3.04,-36.026 -18.175,-85.275 -30.756,-119.535c-14.927,-40.664 -50.243,-62.41 -67.902,-99.796c-20.269,-42.879 4.44,-87.645 -6.408,-127.358c-6.4,-23.464 -34.255,-42.522 -62.318,-59.263c-3.195,-3.205 -6.361,-6.342 -9.348,-9.368c-50.553,-50.957 -100.859,-108.493 -142.058,-167.346c-70.735,-101.085 -113.397,-280.925 -66.937,-398.033c-82.066,48.091 -98.812,115.742 -82.963,209.733c24.559,145.503 63.191,305.084 124.042,439.59c49.862,110.206 126.89,213.554 228.849,279.207c34.317,30.452 76.187,52.825 115.799,52.169" style="fill:#030405;fill-rule:nonzero;"/></g><g opacity="0.24"><path d="M3313.38,943.731c0.014,0.584 -0.102,1.153 -0.102,1.747c0.044,0.608 0.029,1.192 0.102,1.814c0.212,6.477 -0.073,-3.638 -0,-3.561" style="fill:#030405;fill-rule:nonzero;"/><path d="M3175.41,594.481c-0.685,-2.843 -1.067,-5.237 -1.308,-7.413l-14.772,11.833c2.123,-1.882 12.301,-1.824 16.08,-4.42" style="fill:#030405;fill-rule:nonzero;"/><path d="M3323.55,832.425c-12.678,-36.697 -40.191,-69.002 -52.56,-106.828c-12.837,-39.26 -13.218,-72.588 -37.715,-107.509c-9.609,-13.706 -63.052,-67.023 -59.176,-31.017l7.234,-5.776c4.29,136.252 53.708,300.056 -50.142,415.513c-24.034,26.745 -55.152,46.932 -80.02,73.186c5.463,3.151 11.042,9.835 15.385,11.862c-16.76,9.469 -36.05,15.993 -55.325,15.081c5.352,4.894 9.087,15.477 14.492,20.602c-16.089,5.256 -34.843,7.958 -50.069,1.414c-16.983,16.032 -35.032,27.407 -44.641,47.773c-14.463,9.295 -28.019,18.643 -32.237,26.369c-11.24,20.549 3.735,52.362 4.729,74.026c2.235,49.249 -8.933,101.881 -29.737,146.068c84.377,43.941 181.988,-26.538 254.566,-108.083c47.878,-31.152 88.759,-84.131 84.329,-116.055c3.287,-5.704 6.303,-11.187 8.918,-16.269c22.05,-42.787 69.929,-57.738 74.403,-110.177c-3.412,2.843 -6.028,7.012 -9.228,10.125c-3.711,-43.883 26.563,-83.21 26.519,-127.252c-3.648,-42.671 25.703,-68.452 10.275,-113.053" style="fill:#030405;fill-rule:nonzero;"/></g><g opacity="0.24"><path d="M2491.66,1128.43c-26.48,-23.44 -53.588,-44.163 -99.748,-54.437c-59.543,-13.257 -130.109,-24.69 -187.056,4.02c9.083,-16.283 22.871,-30.442 37.3,-43.666c-85.453,24.425 -159.339,20.516 -223.052,91.192c-2.466,-25.061 2.471,-50.286 12.75,-72.607c-57.492,18.354 -95.183,66.329 -139.307,104.864c3.345,-36.759 -17.769,-85.289 -31.596,-117.175c-31.895,48.743 -81.124,83.808 -114.158,132.874c-43.135,-69.277 -115.486,-127.884 -183.504,-148.052c1.8,3.499 2.65,7.326 3.335,11.177c-4.749,25.569 -7.379,50.982 -12.591,75.957c-41.151,-66.749 -139.785,-111.263 -207.503,-134.476c6.51,21.297 12.268,42.758 16.249,63.239c-68.833,-55.199 -144.814,-68.268 -236.42,-63.138c12.48,20.945 34.645,47.024 55.108,65.479c-25.211,-0.43 -198.783,-11.134 -139.978,51.484c-43.589,19.665 -91.332,58.307 -114.328,102.446c2.085,8.281 4.319,0.806 9.338,4.314l17.606,-8.803c-14.889,-19.902 148.872,-56.999 175.521,-67.004c-16.713,-19.646 -41.065,-33.005 -63.911,-43.265c65.523,-9.685 129.723,1.386 190.805,8.364c-4.251,-3.528 -8.363,-7.784 -12.422,-12.316c7.341,-0.13 14.758,-0.541 22.185,-0.874c-1.341,-1.665 -3.04,-3.44 -4.922,-5.284c-3.2,-11.056 -16.573,-22.822 -29.024,-26.963c-8.595,-13.373 -20.737,-26.963 -32.498,-35.823c-3.229,-6.313 -6.327,-12.47 -9.073,-18.16c66.193,50.832 146.734,110.056 221.46,146.845c-0.106,-3.817 -0.106,-7.712 -0.043,-11.66c6.635,2.655 13.672,4.112 21.046,3.837c1.583,-8.262 1.655,-17.46 0.453,-26.799l51.841,16.491c13.117,11.042 26.08,22.093 38.396,33.492c30.857,28.507 59.963,73.249 99.55,90.294c-0.555,-3.127 -1.24,-6.24 -1.843,-9.362c4.488,5.844 9.406,10.868 15.047,13.87c-0.193,-49.032 -20.578,-96.313 -21.427,-143.255c2.514,1.979 4.855,4.078 7.287,6.081c29.303,32.266 76.313,89.816 106.432,129.742c15.41,28.83 33.083,58.621 56.397,65.614c0.111,-1.231 -0.029,-2.485 0.039,-3.706c0.651,2.528 1.23,4.98 1.713,7.263c17.817,-43.381 46.295,-86.675 52.478,-134.679c17.363,20.862 18.213,70.194 16.886,101.529c22.508,-27.923 45.258,-61.696 70.874,-86.525c56.015,-54.346 53.202,28.782 34.308,71.14c55.856,-74.523 106.597,-109.193 189.126,-152.067c-2.355,3.846 -4.488,7.774 -6.544,11.732c-0.198,-1.419 -0.637,-2.64 -1.694,-3.383l-8.972,11.978c2.949,-3.243 6.515,-6.013 10.55,-8.373c-12.046,23.261 -20.192,47.994 -37.093,69.668c2.452,-3.765 5.449,-7.394 8.663,-10.946c-3.783,7.413 -6.737,14.29 -7.673,19.758c30.022,-16.051 56.806,-37.242 86.626,-53.293c18.329,-9.86 36.625,-12.905 47.725,-27.774c82.258,-18.894 181.64,-18.242 249.286,9.121" style="fill:#030405;fill-rule:nonzero;"/><path d="M2491.66,1128.43c20.395,18.044 40.403,37.696 68.495,55.451c-12.866,-24.666 -37.348,-42.85 -68.495,-55.451" style="fill:#030405;fill-rule:nonzero;"/><path d="M2129.34,1135.9l4.232,-5.632c-1.578,1.737 -3.006,3.605 -4.232,5.632" style="fill:#030405;fill-rule:nonzero;"/></g><g opacity="0.24"><path d="M1394.27,268.778c12.35,2.881 24.415,6.283 36.349,9.908l-36.349,-9.908Zm204.12,81.13c75.811,37.903 85.391,95.25 133.839,156c17.06,-32.962 8.629,-60.991 31.538,-91.742c17.103,-22.962 39.703,-40.954 61.208,-58.448c-2.167,-2.384 -4.507,-4.753 -6.742,-7.142c18.947,-12.905 35.592,-33.599 43.024,-54.046c2.263,-1.762 3.75,-3.089 3.991,-3.745l-3.224,1.616c0.193,-0.54 0.42,-1.081 0.574,-1.616c130.5,-70.368 254.605,-130.225 397.039,-36.736c32.465,21.288 64.094,43.777 94.184,68.298c-92.702,-206.77 -276.032,-240.875 -469.424,-149.481c-39.148,18.522 -68.799,22.026 -110.901,8.542c4.899,42.064 7.741,84.832 -33.84,94.759c-85.125,-66.454 -190.438,-110.482 -296.837,-65.05c-32.01,13.672 -55.055,37.218 -74.513,65.566c22.021,0.796 58.834,5.598 72.935,5.299c54.225,17.538 105.091,41.894 157.149,67.926" style="fill:#030405;fill-rule:nonzero;"/><path d="M1010.26,625.044l-1.414,-0.353c0.676,-0.217 1.24,-0.458 1.93,-0.67c-0.193,0.323 -0.347,0.69 -0.516,1.023m89.097,0.265c-2.408,-2.389 -3.851,-6.399 -4.676,-11.418c0.034,-0.058 0.034,-0.121 0.034,-0.179l4.642,11.597Zm194.324,-330.107c-0.483,-0 -0.893,0.043 -1.376,0.043c1.033,-1.004 1.67,-1.279 1.376,-0.043m-393.256,491.532c0.546,-80.681 30.983,-138.429 109.454,-160.962c-17.847,33.42 -19.343,86.246 18.228,95.787c1.134,16.466 10.385,25.085 35.109,12.041c3.749,-1.994 6.997,-4.653 9.869,-7.732c1.959,13.31 1.853,26.606 -1.101,38.618c-25.93,22.45 -63.394,34.766 -95.289,33.15c27.354,70.43 103.783,29.255 131.161,-24.29c16.297,-26.079 16.259,-63.461 3.262,-104.743l1.443,0.724c-0.724,-2.495 -1.945,-4.372 -3.233,-6.139c-0.724,-2.176 -1.342,-4.309 -2.167,-6.5c-1.824,-0.333 -3.055,-0.251 -4.16,0.009c1.824,-18.044 0.845,-36.923 0.097,-52.733c-2.076,-0.517 -3.948,-0.497 -5.806,-0.449c3.957,-15.26 6.843,-30.211 8.387,-45.157c0.884,2.823 1.516,5.536 2.481,8.397c-0.589,-18.141 2.896,-36.344 9.044,-54.099c4.971,-4.189 9.628,-7.249 13.6,-8.614c-5.28,0.844 -9.474,3.918 -12.746,6.095c14.502,-39.993 42.599,-77.486 69.605,-106.177c33.98,-36.093 110.221,-73.852 131.224,-112.412c-18.262,-2.388 -31.321,-5.096 -47.864,-0.762l9.623,4.812c-144.563,3.252 -207.494,84.474 -187.789,209.197c-8.6,13.483 -18.947,25.476 -32.325,30.78c-10.762,-16.602 -21.248,-33.348 -25.79,-52.357c-8.802,-36.953 -2.422,-93.914 6.844,-130.133c-17.813,-1.588 -30.332,8.667 -34.661,25.732l4.402,-8.803c5.892,-2.08 11.259,-7.118 21.678,-3.402c-38.15,18.102 -57.724,55.533 -61.126,94.927c-85.381,22.721 -90.849,117.407 -84.006,193.233c13.17,-50.808 30.119,-103.465 78.282,-134.081c3.871,-2.466 7.408,-4.502 10.748,-6.36c7.012,24.67 20.631,46.768 40.094,61.57c-20.819,20.525 -52.01,33.767 -78.162,51.556c-62.448,26.779 -104.984,112.489 -38.41,159.277" style="fill:#030405;fill-rule:nonzero;"/><path d="M2401.5,494.377l-16.872,25.293c12.727,-3.282 16.785,-13.093 16.872,-25.293" style="fill:#030405;fill-rule:nonzero;"/><path d="M2200.23,775.816c23.435,25.317 81.077,25.66 113.112,33.7c24.217,-42.546 -10.752,-110.641 30.341,-141.257c65.884,-49.095 70.011,59.862 68.037,97.244c92.205,15.621 21.919,-144.915 17.518,-174.841c41.779,5.024 60.035,64.465 66.29,100.318c61.893,-84.059 -12.123,-235.813 -105.902,-254.504c2.935,15.569 12.003,39.487 11.877,57.903l0.734,-1.12c6.467,85.96 -117.47,261.829 -202.007,282.557" style="fill:#030405;fill-rule:nonzero;"/><path d="M908.504,970.177c-3.475,-6.525 -7.326,-12.904 -11.38,-19.207c11.419,8.749 24.068,16.302 38.034,22.286c-9.116,-0.063 -17.953,-1.25 -26.654,-3.079m-164.513,468.951c11.491,10.091 22.754,20.241 33.497,30.612c-11.244,-9.778 -22.388,-20.101 -33.497,-30.612m2074.81,-129.148c-24.612,16.326 -50.031,-0.072 -49.548,-31.581c0.285,-17.741 13.344,-41.456 28.208,-61.406c-44.472,34.26 -124.675,63.413 -132.469,20.863c29.251,-0.358 52.676,-18.571 71.642,-44.004c59.336,-30.133 90.266,-112.658 87.206,-172.041c-6.071,1.056 -1.202,3.817 -3.441,8.45l-4.401,-4.401c-8.205,17.363 -14.281,31.928 -21.824,45.846c-24.424,36.176 -103.937,83.254 -149.176,90.164c-11.568,-52.588 68.114,-95.279 87.317,-141.609c16.413,-39.607 27.416,-101.099 12.393,-142.723c-18.194,35.958 -22.146,68.49 -56.194,95.81c-22.986,18.435 -50.924,32.006 -74.431,50.523c-0.014,-0.087 -0.029,-0.169 -0.048,-0.256c46.836,-37.652 88.248,-135.764 82.36,-195.582c-17.649,24.477 -46.426,41.662 -70.971,62.018c36.002,-44.823 36.267,-101.625 50.123,-157.752c-25.578,39.052 -53.829,71.121 -100.979,77.313c-0.748,-11.718 1.288,-23.894 4.546,-35.896c53.163,-68.317 63.809,-206.659 5.178,-258.861l7.215,4.816c3.851,-16.505 -12.721,-30.804 -30.119,-34.622c-0.28,5.647 -0.309,11.317 -0.28,16.988c-0.14,-5.251 -0.294,-9.763 -0.41,-13.18l-0,30.814c0.27,-0.034 0.483,0.068 0.753,0.044c-0.015,-0.913 -0.029,-1.834 -0.029,-2.717c0.029,0.912 0.053,1.814 0.082,2.721c-0.01,0 -0.029,-0.004 -0.053,-0.004c0.96,79.884 -5.55,252.577 -97.891,217.275c-8.156,59.828 -60.151,85.102 -82.64,131.036c-3.648,2.413 -7.287,4.816 -11.138,6.983c-23.146,3.523 -45.186,9.695 -63.602,19.564c-0.396,1.646 -0.96,2.901 -1.501,4.233c-41.194,8.527 -85.14,7.364 -123.835,-3.716c-35.891,-10.285 -55.634,-31.741 -71.791,-58.052c2.543,-5.936 4.411,-12.746 5.362,-20.776c9.256,-79.363 -85.252,-110.356 -163.65,-118.71c49.732,-17.291 105.723,-38.54 159.673,-47.145c57.757,11.206 115.838,46.947 99.024,110.887c34.405,-50.789 53.028,-141.59 -24.414,-163.21c-31.374,-8.759 -72.873,-6.679 -115.134,-0.56c-20.839,-0.372 -39.201,1.385 -50.036,5.014c36.456,-31.509 73.674,-47.555 113.329,-65.32c59.128,-3.556 109,21.249 163.702,64.442c-27.32,-68.597 -55.04,-146.242 -135.224,-164.398c-21.485,-4.869 -44.413,-6.124 -67.921,-5.289c0.98,-0.449 1.911,-0.917 2.886,-1.37c5.449,-2.095 10.656,-4.46 15.805,-6.926c20.684,-8.624 41.784,-16.143 62.724,-21.837c49.567,-13.479 101.92,-5.323 150.546,-18.638c-87.722,-71.71 -307.251,-46.542 -417.091,38.936c-31.774,14.98 -59.596,38.144 -80.328,72.79c-47.623,79.537 -16.298,178.489 -61.286,260.917c-9.69,17.779 -49.427,88.007 -75.184,86.641c-29.211,-1.554 -14.492,-46.913 -12.6,-69.566c10.964,-130.915 -0.792,-283.691 -141.952,-339.349c-93.846,-37.011 -196.437,-11.216 -282.33,33.579c9.835,-1.704 19.56,-3.18 29.197,-4.527c-51.787,35.143 -81.274,96.776 -92.36,170.16c53.024,-160.233 227.406,-198.884 350.58,-120.722c17.146,13.353 33.492,29.351 48.906,48.723c53.501,67.264 93.533,219.201 -15.004,261.916c52.449,-132.628 -126.648,-293.039 -252.071,-258.017c68.341,30.269 146.918,39.39 174.122,121.63c6.771,20.481 14.13,63.215 8.942,95.023c-18.44,-24.443 -47.323,-48.477 -75.792,-62.183c-34.356,-28.618 -78.924,-41.682 -127.377,-23.994c-26.408,9.637 -46.32,30.519 -58.626,55.6c-11.249,10.545 -20.945,24.207 -28.715,41.349c-23.184,51.228 -53.423,90.217 -110.742,100.033c-4.015,0.121 -8.035,0.28 -12.041,0.285c-5.347,-0.657 -10.593,-0.705 -15.766,-0.396c-80.951,-2.973 -156.222,-31.379 -168.123,-128.714c-10.714,25.37 -13.223,48.998 -9.7,70.59c-8.026,-6.911 -15.458,-13.137 -20.236,-17.668c-7.615,12.673 -5.414,27.933 2.457,42.826c-28.676,-20.602 -57.183,-61.411 -65.267,-78.452c1.289,33.536 8.668,66.753 22.287,96.549c-24.574,-29.062 -48.835,-58.583 -65.098,-92.06c-0.16,3.421 -0.449,9.043 -0.893,12.547c-24.313,-40.196 16.539,-110.578 -0,-150.329l4.396,-4.407c7.191,-7.046 12.659,-7.581 12.418,-17.064c-87.727,51.165 -87.809,165.753 -40.201,249.272c-11.071,-7.669 -22.108,-14.724 -33.251,-20.467c11.211,61.922 64.717,138.057 127.662,169.643c-77.906,-30.848 -143.549,-95.429 -198.006,-155.547c-16.567,91.825 111.249,158.693 143.796,222.58c-55.47,-41.967 -155.122,-92.712 -175.343,-165.377c16.954,61.203 64.75,113.329 91.713,165.478c-32.411,-31.962 -67.54,-65.503 -99.729,-99.338c17.132,41.571 38.898,96.602 71.241,130.027c-32.416,-36.528 -80.488,-96.313 -108.343,-144.307c-40.51,32.503 29.472,156.859 56.416,187.437c35.746,40.581 71.675,74.981 112.532,109.868c-46.233,-35.828 -97.591,-75.754 -146.078,-109.034c-24.622,20.858 -9.391,53.535 18.209,85.198c-14.889,-11.138 -30.11,-21.668 -45.924,-30.944c12.277,42.31 34.472,77.549 61.449,109.005c-23.025,-19.405 -46.803,-37.402 -72.149,-52.13c-9.932,84.985 151.894,201.026 218.762,225.026c-0.12,3.069 -3.079,16.693 -4.628,20.351c-76.405,10.825 -168.393,-96.578 -197.832,-152.284c0.449,45.19 33.102,102.219 59.49,137.931c27.185,36.775 79.33,48.685 103.233,84.885c-29.091,-11.081 -45.118,-52.898 -78.094,-51.484c6.877,42.285 25.824,72.318 55.982,104.188c-22.485,-14.941 -47.199,-41.604 -68.983,-51.58c3.595,35.08 31.982,102.388 68.881,113.305c46.267,-61.454 54.109,-111.992 70.923,-186.476c16.355,-72.463 8.238,-118.565 0.709,-190.13c-8.083,-77.028 18.209,-112.132 76.787,-153.703c26.789,-19.014 54.987,-26.359 82.119,-43.347c40.113,-25.095 26.166,-63.389 52.854,-91.771c0.893,-0.96 2.027,-1.578 3.007,-2.432c9.304,-0.077 18.623,-2.828 27.474,-7.326c-8.064,1.892 -15.747,3.981 -22.605,6.698l-4.097,0c10.438,-8.662 24.414,-12.026 39.24,-14.405c-4.025,2.968 -8.219,5.516 -12.538,7.707c22.098,-5.193 47.237,-9.015 67.781,-19.849c22.064,-6.115 43.482,-12.176 53.766,-34.612c1.685,-3.683 2.819,-7.563 3.61,-11.534c12.577,-3.89 15.738,0.188 36.446,2.292c66.753,6.776 136.73,-2.124 193.228,-38.975c42.748,43.497 97.321,57.502 155.329,69.977c105.636,22.711 177.249,-4.261 266.781,-52.907c-3.214,-0.319 -6.308,-1.023 -9.421,-1.786c43.709,-1.366 85.488,0.599 125.138,28.136c123.02,85.434 308.111,75.975 424.34,-23.479c55.2,19.584 120.018,18.46 173.335,36.856c-50.359,37.31 40.408,153.192 85.237,148.279c0.198,27.021 35.963,51.826 46.209,81.265c-25.824,49.659 19.54,153.925 32.155,199.578c24.893,89.942 108.064,40.515 145.417,-14.946c-16.558,-1.39 -32.455,-6.915 -47.652,-14.743c-1.544,-31.929 19.782,-55.967 41.976,-75.937" style="fill:#030405;fill-rule:nonzero;"/><path d="M2825.1,1185.98c-8.078,7.118 -18.208,18.309 -27.633,31.011c13.595,-10.511 23.903,-21.48 27.633,-31.011" style="fill:#030405;fill-rule:nonzero;"/><path d="M2829.84,1300.3c-3.639,3.103 -7.345,6.36 -11.037,9.68c3.721,-2.47 7.446,-5.656 11.037,-9.68" style="fill:#030405;fill-rule:nonzero;"/></g><g opacity="0.24"><path d="M1227.01,2201.1c-14.536,35.799 -32.01,70.363 -57.636,101.244c115.717,128.072 338.48,133.569 488.341,185.516c0.782,27.18 -31.504,52.376 -46.319,74.605c60.677,-13.576 119.11,-39.313 161.622,-86.94c-5.917,25.727 -9.908,53.394 -21.524,77.346c27.643,-32.687 82.79,-39.67 116.693,-68.471c21.803,-18.513 39.549,-42.358 57.82,-63.081c-0.854,45.688 3.354,94.102 5.931,140.113c28.787,-7.842 72.293,-76.284 84.064,-108.083c11.862,22.837 12.412,59.741 34.148,72.902c25.892,-26.268 31.847,-46.904 40.582,-81.733c21.114,34.337 49.235,51.556 86.134,55.561c5.845,-27.609 -9.458,-47.55 -12.036,-73.171c49.727,26.75 124.516,49.891 179.629,29.795c-15.188,-46.575 -82.684,-49.847 -53.902,-97.683c21.63,-35.934 68.196,-64.04 92.693,-102.518c34.559,-54.312 134.592,-161.092 28.449,-191.177c-118.208,109.333 -231.498,245.281 -394.114,285.675c-175.724,43.651 -370.631,-13.122 -539.507,-62.198c-92.886,-26.972 -184.807,-57.25 -276.814,-87.041c-1.096,4.396 0.193,8.204 -0.661,12.542" style="fill:#030405;fill-rule:nonzero;"/></g><g opacity="0.24"><path d="M2287.62,3820.09c-3.34,-9.044 -8.789,-17.591 -16.047,-25.515c-5.593,-36.108 -38.965,-81.602 -72.868,-111.109c51.026,-14.506 98.933,-20.582 155.914,-3.952c-12.031,47.85 -37.759,103.73 -66.999,140.576m780.599,-7.384c-65.812,-74.701 -210.505,-367.701 -321.305,-354.068c6.38,-82.457 -101.51,-119.323 -167.674,-97.055c39.225,-31.495 43.429,-56.049 26.345,-75.267c30.881,-18.58 58.182,-43.849 75.43,-74.407c92.133,-24.265 178.653,31.919 264.826,88.277c22.842,-23.994 36.557,-54.876 38.965,-86.013c21.524,17.267 33.628,46.31 35.394,77.616c70.353,-71.439 -135.905,-283.131 -202.648,-317.536c-0.864,-32.271 -22.026,-65.213 -44.882,-84.971c50.992,-3.127 99.72,1.337 147.839,4.435c17.847,3.919 35.481,7.519 52.845,10.082c-6.496,-24.502 -29.849,-52.98 -58.423,-80.715c13.348,-3.368 26.933,-6.114 40.803,-7.253c-7.47,-22.099 -44.071,-29.502 -81.757,-29.473c-11.524,-9.661 -23.039,-18.951 -34.028,-27.575c5.068,-23.011 5.54,-46.045 1.11,-67.849c7.297,-18.705 10.569,-37.652 7.456,-53.264c-15.047,-75.662 -94.198,-80.59 -167.524,-69.731c-4.233,-0.565 -8.267,-1.289 -12.683,-1.694c-147.453,-14.169 -318.646,0.873 -475.582,32.706c-36.702,2.331 -73.283,6.467 -109.699,14.251c-223.907,47.951 -453.441,85.849 -679.688,123.241c-63.192,10.444 -290.515,91.284 -208.623,184.7c0.039,0.16 0.068,0.329 0.14,0.498c-34.182,-5.589 -67.66,-0.864 -85.555,25.746c40.987,20.014 87.601,12.128 121.248,44.283c-42.43,7.172 -96.365,35.563 -112.441,70.822c19.662,-5.236 39.057,-6.395 57.401,-17.157c-124.356,55.789 -189.97,224.983 -111.099,340.889c12.427,-42.319 27.831,-82.278 50.393,-119.052c23.864,48.81 62.998,96.78 107.832,123.246c37.126,-26.49 103.84,-65.991 151.705,-60.113c59.852,7.336 65.652,54.491 121.615,78.297c5.298,2.254 10.795,4.064 16.316,5.844c14.773,14.17 33.657,27.446 50.128,36.688c-50.625,21.659 -85.526,69.267 -109.787,114.916c57.179,44.819 59.968,126.88 110.154,175.188c61.459,59.181 84.15,24.931 160.285,1.279c-15.163,22.002 -26.374,40.331 -31.499,56.783c-39.921,52.565 -72.969,120.254 -71.454,178.735c31.702,-4.107 61.208,6.539 84.489,26.379c48.897,-70.734 81.931,-147.386 135.374,-217.165c74.185,-35.538 169.266,-43.993 238.013,-64.837c10.554,-3.199 20.665,-6.462 30.568,-9.71c22.006,59.553 44.22,134.645 59.248,212.175c0,0.014 0.015,0.029 0.015,0.043l0.019,0c0.063,0.435 0.179,0.845 0.241,1.27c-0.048,0.014 -0.106,0.014 -0.159,0.014c5.922,86.53 -7.138,174.889 -1.597,263.528c5.81,-6.332 11.389,-16.93 16.471,-30.191c-0.584,4.739 -1.202,9.454 -1.926,14.082c-20.148,23.478 -25.886,53.892 -26.61,85.936c-4.99,9.45 -10.724,18.185 -17.099,26.268c-27.537,0.652 -52.536,8.248 -70.276,28.087c8.518,12.302 11.307,33.116 17.161,42.276c-4.893,1.221 -9.85,2.283 -14.801,3.2c-15.636,73.239 10.931,162.061 7.278,240.421c-3.528,76.043 -19.063,160.324 -18.006,239.195c50.108,-44.539 101.293,-51.218 104.096,-128.265c-0.931,46.86 36.215,91.95 66.01,133.854c6.583,21.625 14.802,41.484 25.501,57.545c2.046,-0.256 21.509,-0.087 23.604,0.198c1.53,-29.864 5.83,-62.482 10.781,-96.52c12.446,-21.693 23.792,-44.211 26.065,-70.947c2.008,-23.86 -2.234,-48.617 -7.012,-73.934c0.806,-9.623 1.511,-19.232 1.95,-28.797c21.273,-84.566 24.969,-185.743 -4.45,-240.059c40.302,-32.778 48.091,-90.898 6.901,-88.538c-2.099,-4.657 -4.613,-9.439 -8.04,-14.579c-31.682,-12.181 -66.106,-42.686 -83.678,-70.151c4.851,-112.416 16.298,-276.201 -16.196,-377.903c10.304,15.583 20.95,29.385 31.702,40.152c3.157,5.265 6.438,10.458 10.014,15.525c1.202,-0.907 2.563,-2.008 4.069,-3.287c3.218,2.274 6.418,4.218 9.618,5.748c15.332,-14.69 24.347,-28.613 28.681,-41.803c44.22,-44.751 104.26,-114.684 113.7,-159.556c5.376,2.543 10.714,4.985 16.283,7.919c10.617,-23.324 5.974,-42.84 -0.83,-62.607c14.55,-14.739 21.355,-40.187 9.386,-73.819c68.607,-17.248 185.68,-24.313 153.201,65.32c15.941,3.161 23.764,11.259 40.973,11.824c55.798,145.276 287.677,276.471 414.142,362.253c-56.343,-64.413 -84.532,-211.731 -121.243,-299.004c47.468,38.96 94.083,90.265 154.49,103.131" style="fill:#030405;fill-rule:nonzero;"/><path d="M2164.56,3926.53c1.158,-0.241 2.229,-0.212 3.344,-0.323c-0.019,-0.425 -0.082,-0.849 -0.101,-1.289l-3.243,1.612Z" style="fill:#030405;fill-rule:nonzero;"/><path d="M1284.22,4085c-47.285,-11.196 -103.093,-44.751 -141.469,-76.115c3.369,15.766 -3.209,33.782 -0.893,48.573c-75.275,-26.07 -196.461,-16.307 -249.108,55.736c-17.122,14.019 -31.875,32.884 -38.308,49.91c16.403,-14.193 32.358,-9.637 51.237,-16.49l27.634,-33.14c76.251,-27.441 114.323,-40.08 150.218,58.24c62.927,-16.915 159.08,-38.806 206.64,-78.128c-7.066,-6.013 -13.566,-8.007 -20.824,-8.586l14.873,0Z" style="fill:#030405;fill-rule:nonzero;"/></g><g opacity="0.24"><path d="M1217.09,2605.1c-6.935,-56.624 -25.877,-130.258 -45.481,-174.175c0.43,-7.374 0.855,-14.753 1.424,-22.354c-2.08,4.71 -3.286,10.521 -4.102,16.746c-0.791,-1.655 -1.588,-3.436 -2.379,-4.985c0.482,30.944 0.14,62.415 3.783,91.646c1.564,40.673 7.013,80.328 19.256,122.387c-10.318,-0.705 -23.657,3.556 -33.869,2.2c28.971,32.305 54.968,62.95 98.267,39.057c-2.152,-7.118 -7.138,-20.646 -11.404,-30.254c-8.493,-10.646 -17.156,-24.434 -25.495,-40.268" style="fill:#030405;fill-rule:nonzero;"/><path d="M1237.29,2635.4c1.322,1.578 3.233,5.362 5.294,9.971c4.155,5.265 8.32,9.994 12.311,13.498l-17.605,-23.469Z" style="fill:#030405;fill-rule:nonzero;"/></g><g opacity="0.24"><path d="M2734.44,2452.26c13.561,-22.402 24.68,-47.348 21.683,-74.518c-19.005,6.225 -30.36,12.156 -40.335,32.86c0.892,-34.463 11.085,-82.978 -15.68,-107.533c-34.144,57.844 17.591,119.212 -19.077,179.73l5.868,-52.821c-4.174,27.716 -10.342,50.794 -22.88,75.107c40.703,2.693 90.106,6.67 127.652,-5.564c4.107,-33.662 -25.544,-52.362 -57.231,-47.261" style="fill:#030405;fill-rule:nonzero;"/></g><g opacity="0.24"><path d="M2135.22,1267.95c-2.148,1.559 -4.305,3.099 -6.293,4.826c94.686,-75.608 283.493,-36.557 387.623,1.854c27.455,10.11 53.989,22.141 81.859,31.185c-93.045,-109.439 -268.378,-160.754 -399.916,-89.874c-33.453,18.03 -59.933,43.356 -83.803,72.554" style="fill:#030405;fill-rule:nonzero;"/></g></g></svg>