<svg xmlns="http://www.w3.org/2000/svg" width="180" height="36.442" viewBox="0 0 180 36.442">
                            <g id="Group_1" data-name="Group 1" transform="translate(4202 8619.999)">
                                <rect id="Rectangle_1" data-name="Rectangle 1" width="4.883" height="19.691" transform="translate(-4161.539 -8611.576)" fill="#001457"></rect>
                                <path id="Path_1" data-name="Path 1" d="M112.342,52.016l-3.308,5.553-3.584-5.553H99.621l6.341,9.846-6.341,9.846h5.829l3.308-5.553,3.584,5.553h5.829l-6.38-9.846,6.38-9.846Z" transform="translate(-4254.076 -8663.627)" fill="#001457"></path>
                                <path id="Path_2" data-name="Path 2" d="M150.976,54.314a6.647,6.647,0,0,0-2.461-1.891,8.2,8.2,0,0,0-3.407-.67,9.762,9.762,0,0,0-2.285.257,8.628,8.628,0,0,0-1.909.689,7.217,7.217,0,0,0-1.458.965,3.635,3.635,0,0,0-.886,1.084,6.387,6.387,0,0,0-2.6-2.225A7.874,7.874,0,0,0,127.5,53.6l-.276-1.536h-4.016V71.761h4.883V57.386a4.533,4.533,0,0,1,3.624-1.615,5.639,5.639,0,0,1,1.811.256,2.517,2.517,0,0,1,1.222.887,4.2,4.2,0,0,1,.689,1.674,12.978,12.978,0,0,1,.217,2.579V71.761H140.5V59.59a4.257,4.257,0,0,1,.847-2.8,3.8,3.8,0,0,1,3.052-1.024,3.115,3.115,0,0,1,2.836,1.28,7.817,7.817,0,0,1,.827,4.115V71.761h4.884V61.166a14.355,14.355,0,0,0-.492-3.88A8.217,8.217,0,0,0,150.976,54.314Z" transform="translate(-4249.357 -8663.68)" fill="#001457"></path>
                                <path id="Path_3" data-name="Path 3" d="M180.255,45.026V54.4a8.164,8.164,0,0,0-4.608-1.3,9.947,9.947,0,0,0-4.037.788,8.776,8.776,0,0,0-3.032,2.166,9.662,9.662,0,0,0-1.909,3.248,11.751,11.751,0,0,0-.67,4,11.921,11.921,0,0,0,.649,3.977,9.808,9.808,0,0,0,1.871,3.25,8.433,8.433,0,0,0,3.013,2.185,10.125,10.125,0,0,0,4.115.788,8.387,8.387,0,0,0,4.8-1.5l.079,1.1h4.608v-23.2A4.884,4.884,0,0,0,180.255,45.026Zm-.882,22.8a3.814,3.814,0,0,1-3.391,1.654,4.34,4.34,0,0,1-3.648-1.674,7.182,7.182,0,0,1-1.295-4.508,7.186,7.186,0,0,1,1.295-4.51,4.344,4.344,0,0,1,3.648-1.674,3.814,3.814,0,0,1,3.391,1.654,8,8,0,0,1,1.118,4.53A8,8,0,0,1,179.373,67.828Z" transform="translate(-4240.8 -8665.025)" fill="#001457"></path>
                                <rect id="Rectangle_2" data-name="Rectangle 2" width="4.883" height="20.006" transform="translate(-4053.071 -8611.926)" fill="#001457"></rect>
                                <path id="Path_4" data-name="Path 4" d="M92.662,54.641a8.442,8.442,0,0,0-3.012-2.186,10.155,10.155,0,0,0-4.116-.787,8.381,8.381,0,0,0-4.8,1.5l-.433-1.1H76.043V80.139h0a4.883,4.883,0,0,0,4.883-4.883V70.767a8.175,8.175,0,0,0,4.608,1.3,9.923,9.923,0,0,0,4.037-.788A8.745,8.745,0,0,0,92.6,69.113a9.673,9.673,0,0,0,1.91-3.248,11.773,11.773,0,0,0,.67-4,11.922,11.922,0,0,0-.65-3.978A9.8,9.8,0,0,0,92.662,54.641ZM88.847,66.377A4.345,4.345,0,0,1,85.2,68.049,3.815,3.815,0,0,1,81.808,66.4a8,8,0,0,1-1.118-4.529,7.991,7.991,0,0,1,1.118-4.529A3.816,3.816,0,0,1,85.2,55.683a4.343,4.343,0,0,1,3.647,1.674,7.185,7.185,0,0,1,1.295,4.51A7.19,7.19,0,0,1,88.847,66.377Z" transform="translate(-4258.792 -8663.697)" fill="#001457"></path>
                                <path id="Path_5" data-name="Path 5" d="M96.159,46.21a2.442,2.442,0,0,0-2.442,2.441h0a2.442,2.442,0,0,0,4.884,0h0A2.442,2.442,0,0,0,96.159,46.21Z" transform="translate(-4255.257 -8664.789)" fill="#001457"></path>
                                <path id="Path_6" data-name="Path 6" d="M186.549,46.181a2.442,2.442,0,0,0-2.442,2.442h0a2.442,2.442,0,0,0,4.884,0h0A2.442,2.442,0,0,0,186.549,46.181Z" transform="translate(-4237.179 -8664.795)" fill="#001457"></path>
                                <path id="Path_7" data-name="Path 7" d="M204.139,53.805a8.257,8.257,0,0,0-4.536-1.237,10.081,10.081,0,0,0-3.974.75,8.622,8.622,0,0,0-2.986,2.063,9.131,9.131,0,0,0-1.882,3.092,10.888,10.888,0,0,0-.659,3.806,11.026,11.026,0,0,0,.64,3.787,9.3,9.3,0,0,0,1.842,3.094,8.308,8.308,0,0,0,2.966,2.081,10.29,10.29,0,0,0,4.052.75,8.446,8.446,0,0,0,4.729-1.426l.078,1.05h4.537V52.868h-4.808Zm-.869,12.786a3.8,3.8,0,0,1-3.338,1.576,4.333,4.333,0,0,1-3.592-1.594,6.681,6.681,0,0,1-1.274-4.294,6.684,6.684,0,0,1,1.274-4.294,4.337,4.337,0,0,1,3.592-1.594,3.8,3.8,0,0,1,3.338,1.576,7.412,7.412,0,0,1,1.1,4.312A7.412,7.412,0,0,1,203.271,66.591Z" transform="translate(-4235.979 -8663.518)" fill="#001457"></path>
                                <path id="Path_8" data-name="Path 8" d="M60.743,64.919a12.871,12.871,0,0,0,.712,1.588,9.056,9.056,0,0,0,6.509,4.979,9.734,9.734,0,0,0,2.666.091,10.037,10.037,0,0,0,2.728-.6c.042-.016.08-.035.124-.05a11.262,11.262,0,0,0,3.361-1.936V64.223l-.836-.374a5.376,5.376,0,0,1-3.3,2.891,7.972,7.972,0,0,1-.764.23,5.6,5.6,0,0,1-5.819-1.626,3.616,3.616,0,0,1-.293-.42l-.006-.01,11.017-4v-4.2c-.167-.272-.335-.53-.5-.769a9.7,9.7,0,0,0-6.283-4.031,5.063,5.063,0,0,0-.61-.074,8.664,8.664,0,0,0-6.58,2.394,8.844,8.844,0,0,0-2.147,3.032A9.391,9.391,0,0,0,60,60.906a10.631,10.631,0,0,0,.2,2.08A15.549,15.549,0,0,0,60.743,64.919Zm3.84-3.408a4.142,4.142,0,0,1,2.474-5.552,4.318,4.318,0,0,1,5.7,2.576Z" transform="translate(-4262 -8663.665)" fill="#001457"></path>
                                <path id="Path_9" data-name="Path 9" d="M208.806,65.344a1.79,1.79,0,1,0,1.79,1.79A1.79,1.79,0,0,0,208.806,65.344Zm0,3.192a1.4,1.4,0,1,1,1.4-1.4A1.4,1.4,0,0,1,208.806,68.536Z" transform="translate(-4232.597 -8660.962)" fill="#001457"></path>
                                <path id="Path_10" data-name="Path 10" d="M209.121,66.931a.46.46,0,0,0,.066-.242q0-.518-.56-.518h-.6v1.578h.414V67.22h.142l.292.528h.438l-.348-.65A.486.486,0,0,0,209.121,66.931Zm-.4-.132a.244.244,0,0,1-.166.041h-.113v-.316h.122a.233.233,0,0,1,.16.037.161.161,0,0,1,.038.118A.159.159,0,0,1,208.721,66.8Z" transform="translate(-4232.395 -8660.797)" fill="#001457"></path>
                                <path id="Path_11" data-name="Path 11" d="M149.351,61.889a13.082,13.082,0,0,0,.127,1.765,9.213,9.213,0,0,0,4.488,7.022,9.931,9.931,0,0,0,2.516,1.015,10.246,10.246,0,0,0,2.815.376c.047,0,.09-.006.137-.006a11.206,11.206,0,0,0,4.318-.838,8.341,8.341,0,0,0,3.314-2.375l-2.758-2.674a5.461,5.461,0,0,1-4.158,1.615,8.022,8.022,0,0,1-.81-.046,5.7,5.7,0,0,1-5-3.577,3.908,3.908,0,0,1-.133-.5l0-.011,13.759.008a19.224,19.224,0,0,0-.588-4.921,9.87,9.87,0,0,0-4.6-6.037,5.2,5.2,0,0,0-.557-.283,8.8,8.8,0,0,0-7.121,0,8.974,8.974,0,0,0-3.107,2.15,9.551,9.551,0,0,0-1.956,3.226,10.882,10.882,0,0,0-.528,2.058A17.105,17.105,0,0,0,149.351,61.889Zm4.855-1.92a4.212,4.212,0,0,1,4.295-4.446,4.392,4.392,0,0,1,4.556,4.446Z" transform="translate(-4244.13 -8663.697)" fill="#001457"></path>
                            </g>
                        </svg>