<?xml version="1.0" encoding="utf-8"?>
<!-- Generator: Adobe Illustrator 21.0.0, SVG Export Plug-In . SVG Version: 6.00 Build 0)  -->
<svg version="1.1" id="Layer_1" xmlns="http://www.w3.org/2000/svg" xmlns:xlink="http://www.w3.org/1999/xlink" x="0px" y="0px"
	 viewBox="0 0 217 30.3" style="enable-background:new 0 0 217 30.3;" xml:space="preserve">
<style type="text/css">
	.st0{fill:#D81F26;}
</style>
<path class="st0" d="M0,1.2h4.9v24.2h11v4.9H0V1.2z M40.3,30.3h5.6L32.7,0.1L19.5,30.3H25L32.7,12L40.3,30.3z M52.3,28.8
	c-1.7-1.2-2.8-2.9-3.4-4.8l4.5-2c0.3,1.2,0.9,2.1,1.7,2.8c0.8,0.7,1.8,1,3,1c1.2,0,2.3-0.4,3.1-1.2c0.8-0.8,1.3-1.8,1.3-2.9
	c0-0.9-0.2-1.5-0.6-2.1c-0.4-0.5-0.9-1-1.6-1.3c-0.6-0.3-1.7-0.8-3.3-1.4c-2.5-1-4.3-2.1-5.4-3.4c-1.1-1.3-1.7-3-1.7-5.1
	c0-1.4,0.4-2.7,1.1-3.9c0.7-1.2,1.7-2.1,2.9-2.8c1.2-0.7,2.6-1,4.1-1c1.8,0,3.5,0.5,4.9,1.5c1.4,1,2.4,2.3,2.9,3.9l-4.4,2
	c-0.2-0.8-0.6-1.4-1.2-1.9c-0.6-0.5-1.3-0.7-2.2-0.7c-0.9,0-1.7,0.3-2.2,0.8c-0.6,0.5-0.9,1.2-0.9,2c0,1,0.3,1.7,0.8,2.2
	c0.5,0.5,1.6,1.1,3.2,1.7c0.1,0.1,0.3,0.1,0.4,0.2c0.1,0,0.3,0.1,0.4,0.1c1.6,0.6,2.9,1.2,3.9,1.8c1.1,0.6,2,1.5,2.8,2.6
	s1.2,2.7,1.2,4.5c0,1.6-0.4,3.1-1.2,4.5c-0.8,1.4-1.9,2.5-3.4,3.2c-1.4,0.8-3,1.2-4.7,1.2C55.9,30.7,54,30,52.3,28.8z M115.7,30.3
	l-6-10.8h-4.3v10.8h-4.9V1.2h10.8c1.6,0,3.2,0.4,4.6,1.2c1.4,0.8,2.5,1.9,3.3,3.3c0.8,1.4,1.2,2.9,1.2,4.6c0,1.9-0.5,3.6-1.6,5.2
	c-1.1,1.5-2.4,2.7-4.2,3.3l6.6,11.4H115.7z M105.4,14.6h5.9c1.2,0,2.2-0.4,3-1.2c0.8-0.8,1.2-1.8,1.2-3c0-1.2-0.4-2.2-1.2-3
	c-0.8-0.8-1.8-1.2-3-1.2h-5.9V14.6z M156.2,30.3l-6-10.8h-4.3v10.8H141V1.2h10.8c1.6,0,3.2,0.4,4.6,1.2c1.4,0.8,2.5,1.9,3.3,3.3
	c0.8,1.4,1.2,2.9,1.2,4.6c0,1.9-0.5,3.6-1.6,5.2c-1.1,1.5-2.4,2.7-4.2,3.3l6.6,11.4H156.2z M145.9,14.6h5.9c1.2,0,2.2-0.4,3-1.2
	c0.8-0.8,1.2-1.8,1.2-3c0-1.2-0.4-2.2-1.2-3c-0.8-0.8-1.8-1.2-3-1.2h-5.9V14.6z M74.6,1.2h18.1v4.9H79.5v7.2h10.2l-1.9,4.9h-8.2v7.2
	h13.2v4.9H74.6V1.2z M168.1,1.2h18.1v4.9H173v7.2h10.2l-1.9,4.9H173v7.2h13.2v4.9h-18.1V1.2z M194,1.2h8.5c2.6,0,5.1,0.6,7.3,1.9
	c2.2,1.3,4,3.1,5.3,5.3c1.3,2.2,1.9,4.7,1.9,7.3c0,2.6-0.6,5.1-1.9,7.3c-1.3,2.2-3.1,4-5.3,5.3c-2.2,1.3-4.7,1.9-7.3,1.9H194V1.2z
	 M202.4,25.4c1.8,0,3.4-0.4,4.9-1.3c1.5-0.9,2.6-2,3.5-3.5c0.9-1.5,1.3-3.1,1.3-4.9s-0.4-3.4-1.3-4.9c-0.9-1.5-2-2.6-3.5-3.5
	c-1.5-0.9-3.1-1.3-4.9-1.3h-3.6v19.3H202.4z"/>
</svg>
