<svg xmlns="http://www.w3.org/2000/svg" xml:space="preserve" viewBox="0.3 151.3 841.7 237.1" class="h-10 dark:fill-white"><path d="M73.8 224.9c.3-.2.5-.4.8-.6l-3.8 2.6z" style="fill:url(#logo_svg__a)"></path><linearGradient id="logo_svg__b" x1="0.22" x2="237.23" y1="326.1" y2="326.1" gradientTransform="matrix(1 0 0 -1 0 595.89)" gradientUnits="userSpaceOnUse"><stop offset="0" stop-color="#1875F0"></stop><stop offset="1" stop-color="#4CD1C3"></stop></linearGradient><path fill="url(#logo_svg__b)" d="M118.7 151.3C58 151.3 7.2 197.1.8 257.3L72 209.7c3.1-2.1 7.2-1.2 9.3 2 .7 1.1 1.1 2.4 1.2 3.7 0 2.5-1.3 4.7-3.4 5.9l-4.4 3c-.2.2-.5.4-.8.6l-3 2-70.6 48c.3 6.6 1.1 13.3 2.5 19.8L154.6 195c3.1-2 7.2-1.1 9.2 1.9.7 1.1 1.1 2.3 1.1 3.6 0 2.3-1.1 4.4-3 5.6L6.5 308.2c2.2 6.2 4.8 12.3 8 18.1l19-12.1 91.6-60c1.6-1.5 3.9-2.1 6.2-1.5 1.3.3 2.5 1.1 3.3 2.2 2.8 3.5 1.4 8.4-2.4 10.1L21.6 337.5c3.9 5.5 8.2 10.7 13 15.4h.1l-.1-.1L88.2 318c3.1-2 7.1-1.1 9.1 1.9.7 1.1 1.1 2.4 1.1 3.6 0 2.2-1.1 4.3-2.9 5.5l-50.7 33c-.1-.1-.2-.1-.3-.2l-.3.2c21.1 17.1 47.4 26.4 74.6 26.4 65.5 0 118.5-53.1 118.5-118.6-.1-65.5-53.2-118.6-118.6-118.5"></path><path d="M299.9 215.5h20.8l2.3 11.6 1.2 1.2 1.2-1.2c7-9.3 16.2-13.9 25.5-13.9 4.6 0 7 0 11.6 2.3v20.8h-13.9c-13.7 0-25 11.1-25.5 24.6v63.5h-23.2zM395.3 275.7c0 16.2 11.6 30.1 31.3 30.1 13.9 0 23.4-7 26.9-16.2l19.5 9.3c-9.3 16.2-25.5 27.8-47.5 27.8-29 0-53.3-23.2-53.3-56.7s23.2-56.7 53.3-56.7c27.8 0 50.9 22 50.9 55.6l-2.3 7zm1.2-20.4H452c-1.2-12-12.7-21.3-26.6-21.3-16.2 0-25.5 9.3-28.9 21.3M545.3 305.8c13.9 0 24.5-9.3 28.2-18.5l18.1 11.6c-9 16.2-25.5 27.8-47.5 27.8-29.2 0-55.6-23.2-55.6-56.7s26.4-56.7 55.6-56.7c22 0 38.2 11.6 47.2 27.8l-18.1 11.6c-3.7-9.3-14.1-18.5-28-18.5-22 0-34 16.2-34 35.9.1 19.5 12.1 35.7 34.1 35.7M712.8 324.3H692l-2.3-9.3-1.2-1.2-1.2 1.2c-7 7-18.5 11.6-30.1 11.6-30.1 0-55.6-23.2-55.6-56.7s25.5-56.7 55.6-56.7c11.6 0 23.2 4.6 30.1 11.6l1.2 1.2 1.2-1.2 2.3-9.3h20.8zM658.3 234c-22 0-33.8 16.2-33.8 35.9s11.8 35.9 33.8 35.9c19.7 0 33.6-16.2 33.6-35.9S678 234 658.3 234M730.8 215.5h20.8l2.1 9.3 1.4 1.2 1.2-1.2c7-6.9 18.5-11.6 30.1-11.6 30.1 0 55.6 23.2 55.6 56.7s-25.5 56.7-55.6 56.7c-11.3 0-23.2-4.6-30.1-11.6l-1.2-1.2-1.4 1.2v58.4h-22.9zm54.4 90.3c22 0 33.6-16.2 33.6-35.9S807.2 234 785.2 234c-19.7 0-33.6 16.2-33.6 35.9.1 19.7 14 35.9 33.6 35.9"></path></svg>