<?xml version="1.0" encoding="UTF-8" standalone="no"?><!DOCTYPE svg PUBLIC "-//W3C//DTD SVG 1.1//EN" "http://www.w3.org/Graphics/SVG/1.1/DTD/svg11.dtd"><svg width="100%" height="100%" viewBox="0 0 750 250" version="1.1" xmlns="http://www.w3.org/2000/svg" xmlns:xlink="http://www.w3.org/1999/xlink" xml:space="preserve" xmlns:serif="http://www.serif.com/" style="fill-rule:evenodd;clip-rule:evenodd;stroke-linejoin:round;stroke-miterlimit:2;"><g id="Digital-Lincoln" serif:id="Digital Lincoln"><rect x="226.851" y="25.787" width="37.808" height="198.04" style="fill:#231f20;"/><path d="M375.771,44.608c-4.333,-3.219 -10.646,-4.829 -19.559,-4.829l-12.384,0l-0,54.228l12.384,-0c18.569,-0 28.968,-9.781 28.968,-27.236c-0,-9.287 -3.59,-17.831 -9.409,-22.163m14.982,51.131c-7.554,8.049 -18.324,12.01 -33.058,12.01l-30.208,0l-0,-81.713l30.332,-0c15.477,-0 25.132,3.468 33.182,12.01c7.056,7.552 11.017,17.953 11.017,28.6c0,10.894 -4.085,21.418 -11.265,29.093" style="fill:#231f20;fill-rule:nonzero;"/><rect x="414.64" y="26.037" width="15.6" height="81.712" style="fill:#231f20;"/><path d="M509.225,106.635c-8.668,2.106 -13.744,2.725 -20.553,2.725c-27.115,0 -45.934,-17.333 -45.934,-42.59c0,-12.382 4.706,-23.151 13.496,-31.201c8.42,-7.675 17.829,-10.896 31.944,-10.896c5.942,0 11.884,0.619 17.083,1.858c3.964,0.992 6.44,1.858 12.134,4.334l-3.714,13.001c-2.971,-1.114 -5.199,-1.859 -6.684,-2.352c-5.821,-1.981 -11.64,-2.973 -16.839,-2.973c-18.324,-0 -31.075,11.267 -31.075,27.485c-0,16.714 13.989,29.465 32.187,29.465c3.716,0 5.821,-0.369 10.651,-1.731l-0,-22.533l15.598,-0l0,33.429c-3.714,0.867 -6.437,1.608 -8.294,1.979" style="fill:#231f20;fill-rule:nonzero;"/><rect x="530.015" y="26.037" width="15.6" height="81.712" style="fill:#231f20;"/><path d="M598.103,39.284l0,68.465l-15.601,0l0,-68.465l-24.513,-0l-0,-13.246l64.63,-0l-0,13.246l-24.516,-0Z" style="fill:#231f20;fill-rule:nonzero;"/><path d="M651.952,44.733l-9.409,29.589l18.941,0l-9.532,-29.589Zm20.179,63.016l-6.436,-20.181l-27.363,0l-6.685,20.181l-16.343,-0l29.591,-81.712l13.99,0l29.589,81.712l-16.343,-0Z" style="fill:#231f20;fill-rule:nonzero;"/><path d="M700.972,107.749l0,-81.711l15.601,-0l-0,68.465l33.427,0l0,13.246l-49.028,0Z" style="fill:#231f20;fill-rule:nonzero;"/><path d="M327.848,223.827l0,-76.156l6.23,0l-0,70.616l34.037,0l0,5.54l-40.267,-0Z" style="fill:#231f20;fill-rule:nonzero;"/><rect x="385.545" y="147.672" width="6.234" height="76.156" style="fill:#231f20;"/><path d="M459.513,224.519l-45.117,-69.116l0,68.424l-6.229,-0l-0,-76.156l9.23,0l43.733,67.731l0,-67.731l6.23,0l-0,76.848l-7.847,-0Z" style="fill:#231f20;fill-rule:nonzero;"/><path d="M533.832,157.595c-5.537,-3.693 -11.077,-5.539 -18.232,-5.539c-17.306,-0 -29.421,14.077 -29.421,32.77c-0,20.424 12.229,34.73 31.268,34.73c6.114,-0 11.54,-1.5 17.306,-4.037l2.08,5.422c-5.886,2.771 -13.386,4.385 -19.964,4.385c-21.924,-0 -37.617,-16.27 -37.617,-39.923c0,-22.502 15.926,-39.118 36.697,-39.118c7.498,0 14.882,2.193 20.996,6.463l-3.113,4.847Z" style="fill:#231f20;fill-rule:nonzero;"/><path d="M584.149,152.056c-16.499,0 -29.77,15.462 -29.77,33.694c0,18.346 13.271,33.806 29.77,33.806c16.389,0 29.658,-15.46 29.658,-33.806c0,-18.232 -13.269,-33.694 -29.658,-33.694m-0,73.271c-21.115,-0 -36.69,-16.385 -36.69,-39.577c-0,-23.079 15.575,-39.464 36.69,-39.464c21.116,-0 36.58,16.385 36.58,39.464c0,23.192 -15.577,39.577 -36.58,39.577" style="fill:#231f20;fill-rule:nonzero;"/><path d="M634.929,223.827l-0,-76.156l6.233,0l0,70.616l34.038,0l0,5.54l-40.271,-0Z" style="fill:#231f20;fill-rule:nonzero;"/><path d="M742.131,224.519l-45.116,-69.116l-0,68.424l-6.234,-0l0,-76.156l9.235,0l43.731,67.731l-0,-67.731l6.232,0l-0,76.848l-7.848,-0Z" style="fill:#231f20;fill-rule:nonzero;"/><path d="M98.727,192.347c-37.158,0 -67.281,-30.123 -67.281,-67.283c0,-37.159 30.123,-67.285 67.281,-67.285c37.159,-0 67.282,30.126 67.282,67.285c-0,37.16 -30.123,67.283 -67.282,67.283m-0,-166.01c-54.526,-0 -98.727,44.201 -98.727,98.728c-0,54.525 44.201,98.724 98.727,98.724c54.526,0 98.728,-44.199 98.728,-98.724c-0,-54.527 -44.202,-98.728 -98.728,-98.728" style="fill:#231f20;fill-rule:nonzero;"/></g></svg>