<?xml version="1.0" encoding="UTF-8" standalone="no"?><!DOCTYPE svg PUBLIC "-//W3C//DTD SVG 1.1//EN" "http://www.w3.org/Graphics/SVG/1.1/DTD/svg11.dtd"><svg width="100%" height="100%" viewBox="0 0 750 250" version="1.1" xmlns="http://www.w3.org/2000/svg" xmlns:xlink="http://www.w3.org/1999/xlink" xml:space="preserve" xmlns:serif="http://www.serif.com/" style="fill-rule:evenodd;clip-rule:evenodd;stroke-linejoin:round;stroke-miterlimit:2;"><g id="Epix"><rect id="Rectangle_1" x="168.588" y="84.175" width="20.346" height="82.046" style="fill:#001457;"/><path id="Path_1" d="M251.108,84.029l-13.783,23.138l-14.933,-23.138l-24.288,0l26.421,41.025l-26.421,41.025l24.288,0l13.783,-23.137l14.933,23.137l24.288,0l-26.584,-41.025l26.584,-41.025l-24.288,0Z" style="fill:#001457;fill-rule:nonzero;"/><path id="Path_2" d="M431.746,93.383c-2.748,-3.398 -6.263,-6.098 -10.254,-7.879c-4.479,-1.933 -9.319,-2.885 -14.196,-2.792c-3.205,-0.019 -6.401,0.341 -9.521,1.071c-2.755,0.641 -5.425,1.605 -7.954,2.871c-2.181,1.089 -4.221,2.439 -6.075,4.021c-1.512,1.252 -2.766,2.786 -3.692,4.517c-2.7,-4.018 -6.446,-7.224 -10.833,-9.271c-11.603,-5.556 -25.448,-3.795 -35.292,4.487l-1.15,-6.4l-16.733,0l-0,82.071l20.346,0l-0,-59.896c3.729,-4.44 9.304,-6.924 15.1,-6.729c2.556,-0.057 5.105,0.303 7.546,1.067c2.035,0.682 3.812,1.972 5.091,3.696c1.453,2.088 2.432,4.469 2.871,6.975c0.659,3.543 0.962,7.142 0.904,10.745l0,44.142l20.192,0l-0,-50.712c-0.239,-4.183 1.012,-8.318 3.529,-11.667c3.395,-3.234 8.058,-4.799 12.717,-4.267c4.602,-0.457 9.114,1.58 11.816,5.334c2.69,5.293 3.882,11.223 3.446,17.145l0,44.167l20.35,0l0,-44.146c0.058,-5.457 -0.632,-10.896 -2.05,-16.166c-1.189,-4.504 -3.284,-8.718 -6.158,-12.384Z" style="fill:#001457;fill-rule:nonzero;"/><path id="Path_3" d="M589.396,49.079l-0,39.059c-5.714,-3.684 -12.404,-5.571 -19.2,-5.417c-5.774,-0.09 -11.504,1.029 -16.821,3.283c-4.808,2.069 -9.117,5.147 -12.633,9.025c-3.514,3.946 -6.217,8.544 -7.955,13.534c-1.889,5.351 -2.834,10.991 -2.791,16.666c-0.046,5.637 0.869,11.241 2.704,16.571c1.703,4.973 4.351,9.571 7.796,13.542c3.454,3.931 7.744,7.042 12.554,9.104c5.424,2.278 11.264,3.396 17.146,3.283c7.148,0.012 14.13,-2.17 20,-6.25l0.329,4.584l19.2,-0l-0,-96.667c-0.018,-11.143 -9.186,-20.305 -20.329,-20.317Zm-3.675,95c-3.161,4.624 -8.54,7.248 -14.129,6.892c-5.897,0.298 -11.581,-2.31 -15.2,-6.975c-3.85,-5.48 -5.75,-12.096 -5.396,-18.783c-0.355,-6.69 1.546,-13.31 5.396,-18.792c3.621,-4.663 9.303,-7.27 15.2,-6.975c5.589,-0.356 10.968,2.268 14.129,6.892c3.393,5.688 5.015,12.261 4.658,18.875c0.357,6.613 -1.265,13.186 -4.658,18.875l-0,-0.009Z" style="fill:#001457;fill-rule:nonzero;"/><rect id="Rectangle_2" x="620.538" y="82.717" width="20.346" height="83.358" style="fill:#001457;"/><path id="Path_4" d="M149.458,94.675c-3.453,-3.932 -7.741,-7.044 -12.55,-9.108c-5.426,-2.274 -11.267,-3.391 -17.15,-3.279c-7.148,-0.014 -14.131,2.169 -20,6.25l-1.804,-4.584l-17.742,0l0,116.963c11.162,-0 20.346,-9.185 20.346,-20.346l0,-18.704c5.716,3.68 12.404,5.567 19.2,5.416c5.775,0.093 11.505,-1.026 16.821,-3.283c4.806,-2.067 9.111,-5.146 12.621,-9.025c3.514,-3.946 6.218,-8.544 7.958,-13.533c1.888,-5.352 2.833,-10.992 2.792,-16.667c0.045,-5.639 -0.871,-11.244 -2.708,-16.575c-1.701,-4.967 -4.344,-9.559 -7.784,-13.525Zm-15.896,48.9c-3.622,4.658 -9.302,7.262 -15.195,6.967c-5.587,0.361 -10.967,-2.255 -14.134,-6.871c-3.392,-5.687 -5.014,-12.258 -4.658,-18.871c-0.359,-6.613 1.264,-13.185 4.658,-18.871c3.158,-4.631 8.539,-7.263 14.134,-6.912c5.895,-0.295 11.576,2.313 15.195,6.975c3.851,5.482 5.751,12.101 5.396,18.791c0.354,6.69 -1.547,13.309 -5.396,18.792Z" style="fill:#001457;fill-rule:nonzero;"/><path id="Path_5" d="M178.758,54.996c-5.58,-0 -10.172,4.59 -10.175,10.171c0,5.582 4.593,10.175 10.175,10.175c5.582,-0 10.175,-4.593 10.175,-10.175c-0.002,-5.581 -4.594,-10.171 -10.175,-10.171Z" style="fill:#001457;fill-rule:nonzero;"/><path id="Path_6" d="M630.708,54.85c-5.582,0 -10.175,4.593 -10.175,10.175c0,5.582 4.593,10.175 10.175,10.175c5.582,-0 10.175,-4.593 10.175,-10.175c0,-5.582 -4.593,-10.175 -10.175,-10.175Z" style="fill:#001457;fill-rule:nonzero;"/><path id="Path_7" d="M709,91.938c-5.667,-3.513 -12.234,-5.304 -18.9,-5.155c-5.674,-0.087 -11.307,0.976 -16.558,3.125c-4.71,1.95 -8.952,4.881 -12.442,8.596c-3.447,3.728 -6.114,8.109 -7.842,12.884c-1.853,5.08 -2.783,10.45 -2.746,15.858c-0.041,5.375 0.862,10.716 2.667,15.779c1.694,4.756 4.301,9.136 7.675,12.892c3.431,3.764 7.651,6.725 12.358,8.671c5.36,2.169 11.103,3.232 16.884,3.125c7.012,0.027 13.875,-2.043 19.704,-5.942l0.325,4.375l18.904,-0l0,-78.113l-20.033,0l0.004,3.905Zm-3.621,53.275c-3.187,4.44 -8.455,6.927 -13.908,6.566c-5.759,0.306 -11.329,-2.166 -14.967,-6.641c-3.774,-5.175 -5.65,-11.497 -5.308,-17.892c-0.341,-6.396 1.535,-12.717 5.308,-17.892c3.639,-4.473 9.208,-6.944 14.967,-6.641c5.453,-0.361 10.721,2.126 13.908,6.566c3.332,5.377 4.932,11.651 4.583,17.967c0.35,6.316 -1.249,12.589 -4.579,17.967l-0.004,-0Z" style="fill:#001457;fill-rule:nonzero;"/><path id="Path_8" d="M3.096,137.633c0.838,2.27 1.829,4.481 2.966,6.617c5.212,10.835 15.3,18.552 27.121,20.746c3.668,0.635 7.406,0.763 11.109,0.379c3.887,-0.299 7.713,-1.141 11.366,-2.5c0.175,-0.067 0.334,-0.146 0.517,-0.208c5.099,-1.859 9.838,-4.588 14.004,-8.067l0,-19.867l-3.483,-1.558c-2.661,5.785 -7.666,10.169 -13.75,12.046c-1.045,0.372 -2.107,0.692 -3.184,0.958c-8.696,2.665 -18.19,0.012 -24.245,-6.775c-0.448,-0.554 -0.856,-1.138 -1.221,-1.75l-0.025,-0.042l45.904,-16.666l-0,-17.5c-0.696,-1.134 -1.396,-2.209 -2.083,-3.204c-6.134,-8.864 -15.566,-14.915 -26.18,-16.796c-0.84,-0.154 -1.688,-0.257 -2.541,-0.309c-10.131,-0.68 -20.092,2.945 -27.417,9.975c-3.843,3.531 -6.892,7.837 -8.946,12.634c-2.001,4.805 -3.024,9.961 -3.008,15.166c-0.008,2.91 0.272,5.813 0.833,8.667c0.58,2.731 1.336,5.421 2.263,8.054Zm16,-14.2c-0.92,-2.147 -1.394,-4.458 -1.394,-6.794c0,-7.371 4.723,-13.966 11.702,-16.339c2.149,-0.872 4.447,-1.321 6.766,-1.321c7.63,0 14.466,4.853 16.984,12.054l-34.058,12.4Z" style="fill:#001457;fill-rule:nonzero;"/><path id="Path_9" d="M742.538,150.667c-4.092,-0 -7.459,3.366 -7.459,7.458c0,4.092 3.367,7.458 7.459,7.458c4.091,0 7.458,-3.366 7.458,-7.458c-0,-4.092 -3.367,-7.458 -7.458,-7.458Zm-0,13.3c-3.201,-0 -5.834,-2.634 -5.834,-5.834c0,-3.2 2.633,-5.833 5.834,-5.833c3.2,0 5.833,2.633 5.833,5.833c-0,3.2 -2.633,5.834 -5.833,5.834Z" style="fill:#001457;fill-rule:nonzero;"/><path id="Path_10" d="M744.692,157.967c0.183,-0.304 0.278,-0.654 0.275,-1.009c-0,-1.439 -0.778,-2.158 -2.334,-2.158l-2.5,-0l0,6.575l1.725,-0l0,-2.204l0.592,-0l1.217,2.2l1.825,-0l-1.45,-2.709c0.269,-0.176 0.491,-0.415 0.65,-0.695Zm-1.667,-0.55c-0.202,0.138 -0.448,0.199 -0.692,0.17l-0.471,0l0,-1.316l0.509,-0c0.233,-0.031 0.47,0.023 0.666,0.154c0.117,0.136 0.174,0.313 0.159,0.492c0.016,0.184 -0.046,0.367 -0.171,0.504l-0,-0.004Z" style="fill:#001457;fill-rule:nonzero;"/><path id="Path_11" d="M446.754,124.875c0.01,2.461 0.187,4.918 0.529,7.354c1.213,12.166 8.169,23.048 18.7,29.259c3.285,1.882 6.812,3.305 10.484,4.229c3.818,1.064 7.765,1.591 11.729,1.566c0.196,0 0.375,-0.025 0.571,-0.025c6.169,0.036 12.284,-1.15 17.991,-3.491c5.351,-2.106 10.096,-5.506 13.809,-9.896l-11.492,-11.142c-4.552,4.605 -10.859,7.054 -17.325,6.729c-1.128,-0.007 -2.254,-0.071 -3.375,-0.191c-9.242,-0.476 -17.399,-6.311 -20.833,-14.904c-0.231,-0.682 -0.416,-1.378 -0.555,-2.084l0,-0.046l57.33,0.034c0.071,-6.912 -0.752,-13.804 -2.45,-20.504c-2.78,-10.601 -9.684,-19.662 -19.167,-25.155c-0.749,-0.439 -1.524,-0.833 -2.321,-1.179c-9.444,-4.178 -20.227,-4.178 -29.671,0c-4.902,2.034 -9.315,5.088 -12.946,8.959c-3.583,3.894 -6.354,8.463 -8.15,13.441c-1.011,2.78 -1.748,5.652 -2.2,8.575c-0.387,2.808 -0.607,5.637 -0.658,8.471Zm20.229,-8c-0.018,-0.326 -0.027,-0.652 -0.027,-0.979c0,-9.628 7.922,-17.55 17.55,-17.55c0.124,0 0.249,0.001 0.373,0.004c0.228,-0.009 0.457,-0.013 0.685,-0.013c10.039,0 18.3,8.261 18.3,18.3c0,0.079 -0,0.159 -0.002,0.238l-36.879,0Z" style="fill:#001457;fill-rule:nonzero;"/></g></svg>