<?xml version="1.0" encoding="UTF-8" standalone="no"?><!DOCTYPE svg PUBLIC "-//W3C//DTD SVG 1.1//EN" "http://www.w3.org/Graphics/SVG/1.1/DTD/svg11.dtd"><svg width="100%" height="100%" viewBox="0 0 750 250" version="1.1" xmlns="http://www.w3.org/2000/svg" xmlns:xlink="http://www.w3.org/1999/xlink" xml:space="preserve" xmlns:serif="http://www.serif.com/" style="fill-rule:evenodd;clip-rule:evenodd;stroke-linejoin:round;stroke-miterlimit:2;"><g id="laser-red"><rect x="0" y="5.635" width="750" height="238.729" style="fill:#da1f26;"/><path d="M223.542,96.288l9.846,0l-0,48.48l21.967,-0l-0,9.845l-31.813,0l0,-58.325Z" style="fill:#fff;fill-rule:nonzero;"/><path d="M304.439,154.613l11.135,0l-26.511,-60.597l-26.513,60.597l11.137,0l15.376,-36.581l15.376,36.581Z" style="fill:#fff;fill-rule:nonzero;"/><path d="M328.489,151.621c-3.358,-2.499 -5.644,-5.718 -6.856,-9.657l8.939,-4.014c0.654,2.372 1.806,4.241 3.445,5.602c1.642,1.367 3.649,2.047 6.024,2.047c2.473,0 4.556,-0.782 6.249,-2.347c1.691,-1.564 2.536,-3.51 2.536,-5.833c0,-1.717 -0.415,-3.106 -1.249,-4.166c-0.834,-1.062 -1.894,-1.906 -3.181,-2.538c-1.287,-0.629 -3.497,-1.552 -6.629,-2.764c-5.051,-1.919 -8.685,-4.205 -10.908,-6.857c-2.222,-2.65 -3.332,-6.046 -3.332,-10.188c0,-2.879 0.707,-5.493 2.121,-7.838c1.412,-2.349 3.344,-4.191 5.795,-5.529c2.449,-1.339 5.162,-2.009 8.143,-2.009c3.686,0 6.957,1.011 9.809,3.03c2.851,2.019 4.81,4.647 5.869,7.878l-8.861,4.09c-0.406,-1.615 -1.211,-2.89 -2.423,-3.825c-1.213,-0.933 -2.68,-1.401 -4.394,-1.401c-1.819,0 -3.32,0.531 -4.508,1.59c-1.186,1.062 -1.779,2.399 -1.779,4.014c0,1.922 0.541,3.422 1.627,4.508c1.086,1.086 3.219,2.234 6.402,3.448c0.253,0.149 0.518,0.264 0.794,0.338c0.279,0.078 0.519,0.167 0.72,0.267c3.132,1.211 5.758,2.413 7.878,3.598c2.121,1.188 3.977,2.955 5.569,5.302c1.589,2.348 2.385,5.368 2.385,9.052c-0,3.283 -0.822,6.3 -2.461,9.052c-1.643,2.753 -3.891,4.923 -6.742,6.515c-2.853,1.589 -5.998,2.385 -9.43,2.385c-4.345,-0 -8.196,-1.251 -11.552,-3.75Z" style="fill:#fff;fill-rule:nonzero;"/><path d="M434.798,123.177l11.893,-0c2.373,-0 4.38,-0.832 6.021,-2.499c1.644,-1.667 2.463,-3.684 2.463,-6.06c0,-2.373 -0.819,-4.38 -2.463,-6.021c-1.641,-1.64 -3.648,-2.464 -6.021,-2.464l-11.893,0l-0,17.044Zm20.68,31.436l-11.969,-21.587l-8.711,0l-0,21.587l-9.848,0l0,-58.325l21.741,0c3.282,0 6.34,0.82 9.165,2.461c2.827,1.641 5.063,3.866 6.706,6.664c1.639,2.805 2.461,5.871 2.461,9.205c0,3.84 -1.06,7.311 -3.181,10.415c-2.121,3.107 -4.9,5.341 -8.334,6.706l13.333,22.874l-11.363,0Z" style="fill:#fff;fill-rule:nonzero;"/><path d="M516.076,123.177l11.893,-0c2.373,-0 4.382,-0.832 6.021,-2.499c1.642,-1.667 2.464,-3.684 2.464,-6.06c-0,-2.373 -0.822,-4.38 -2.464,-6.021c-1.639,-1.64 -3.648,-2.464 -6.021,-2.464l-11.893,0l-0,17.044Zm20.68,31.436l-11.968,-21.587l-8.712,0l-0,21.587l-9.845,0l-0,-58.325l21.738,0c3.282,0 6.338,0.82 9.167,2.461c2.827,1.641 5.061,3.866 6.702,6.664c1.641,2.805 2.461,5.871 2.461,9.205c0,3.84 -1.058,7.311 -3.179,10.415c-2.123,3.107 -4.9,5.341 -8.334,6.706l13.331,22.874l-11.361,0Z" style="fill:#fff;fill-rule:nonzero;"/><path d="M373.065,96.312l36.36,0l0,9.848l-26.515,-0l0,14.391l20.378,-0l-3.881,9.847l-16.497,0l0,14.392l26.515,-0l0,9.849l-36.36,-0l-0,-58.327Z" style="fill:#fff;fill-rule:nonzero;"/><path d="M560.613,96.288l36.36,0l-0,9.845l-26.513,0l0,14.394l20.376,-0l-3.881,9.847l-16.495,0l0,14.394l26.513,-0l-0,9.845l-36.36,0l-0,-58.325Z" style="fill:#fff;fill-rule:nonzero;"/><path d="M629.467,144.768c3.535,-0 6.779,-0.86 9.736,-2.577c2.952,-1.717 5.288,-4.052 7.005,-7.008c1.717,-2.954 2.574,-6.197 2.574,-9.732c0,-3.535 -0.857,-6.778 -2.574,-9.735c-1.717,-2.954 -4.053,-5.289 -7.005,-7.006c-2.957,-1.715 -6.201,-2.577 -9.736,-2.577l-7.12,0l-0,38.635l7.12,-0Zm-16.968,-48.48l16.968,0c5.301,0 10.188,1.299 14.657,3.901c4.469,2.602 8.004,6.135 10.604,10.606c2.602,4.468 3.902,9.352 3.902,14.656c-0,5.303 -1.3,10.187 -3.902,14.658c-2.6,4.468 -6.135,8.003 -10.604,10.603c-4.469,2.602 -9.356,3.901 -14.657,3.901l-16.968,0l0,-58.325Z" style="fill:#fff;fill-rule:nonzero;"/><path d="M135.004,80.612l-44.862,89.725l37.358,0l-5.409,-10.816l-14.781,0.014l27.694,-55.391l7.21,14.419l-13.093,26.183l12.794,25.591l11.768,0l-12.796,-25.591l13.094,-26.183l-18.977,-37.951Z" style="fill:#fff;fill-rule:nonzero;"/><path d="M161.189,132.981l-5.883,11.765l12.794,25.591l11.767,0l-18.678,-37.356Z" style="fill:#fff;fill-rule:nonzero;"/></g></svg>