<?xml version="1.0" encoding="UTF-8" standalone="no"?><!DOCTYPE svg PUBLIC "-//W3C//DTD SVG 1.1//EN" "http://www.w3.org/Graphics/SVG/1.1/DTD/svg11.dtd"><svg width="100%" height="100%" viewBox="0 0 750 250" version="1.1" xmlns="http://www.w3.org/2000/svg" xmlns:xlink="http://www.w3.org/1999/xlink" xml:space="preserve" xmlns:serif="http://www.serif.com/" style="fill-rule:evenodd;clip-rule:evenodd;stroke-linejoin:round;stroke-miterlimit:2;"><g id="PageTiger"><g><g><circle cx="364.975" cy="118.502" r="110.86" style="fill:#fff;"/><path d="M364.975,235.099c-64.325,0 -116.597,-52.329 -116.597,-116.597c-0,-64.268 52.33,-116.655 116.597,-116.655c64.326,-0 116.597,52.33 116.597,116.597c0,64.268 -52.271,116.655 -116.597,116.655Zm0,-221.662c-57.951,0 -105.065,47.114 -105.065,105.065c0,57.951 47.114,105.065 105.065,105.065c57.951,-0 105.065,-47.114 105.065,-105.065c0,-57.951 -47.114,-105.065 -105.065,-105.065Z" style="fill:#ee7d00;fill-rule:nonzero;"/><g><g><path d="M416.84,69.36c-4.346,-4.463 -11.358,-4.463 -15.704,-0c-0.116,0.116 -0.232,0.231 -0.29,0.347l-5.679,5.853c-8.345,-6.2 -18.603,-9.909 -29.671,-9.909l-1.391,-0c-11.069,-0 -21.326,3.651 -29.671,9.909l-5.679,-5.853c-0.116,-0.116 -0.174,-0.231 -0.29,-0.347c-4.346,-4.463 -11.358,-4.463 -15.704,-0c-4.347,4.462 -4.347,11.764 -0,16.226c0.115,0.116 0.231,0.232 0.347,0.29l6.549,6.838c-4.057,7.533 -6.375,16.226 -6.375,25.44l0,57.14l31.294,-0l-0,-4.636l3.94,-6.607l4.115,6.607l4.056,-6.607l3.999,6.607l3.998,-6.665l4.057,6.665l4.057,-6.607l4.114,6.607l4.115,-6.607l4.056,6.607l0,4.578l31.294,-0l-0,-55.053l-0.058,-0c-0,-0.696 0.058,-1.391 0.058,-2.087c-0,-9.272 -2.318,-17.907 -6.375,-25.44l6.607,-6.838c0.115,-0.116 0.231,-0.232 0.347,-0.29c4.173,-4.404 4.173,-11.706 -0.116,-16.168" style="fill:#ee7d00;fill-rule:nonzero;"/><path d="M349.155,102.565c0.115,-0.521 0.173,-1.101 0.173,-1.68c0,-4.346 -3.419,-7.881 -7.649,-7.881c-4.231,-0 -7.65,3.535 -7.65,7.881c0,4.346 3.419,7.881 7.65,7.881c1.68,0 3.245,-0.579 4.52,-1.564c2.202,5.099 1.796,11.126 -1.565,15.994c1.217,-0.985 2.376,-2.144 3.304,-3.477c3.708,-5.216 3.94,-11.88 1.217,-17.154Z" style="fill:#231f20;fill-rule:nonzero;"/><path d="M341.679,96.191c-2.492,-0 -4.52,2.086 -4.52,4.694c-0,2.608 2.028,4.694 4.52,4.694c2.492,-0 4.52,-2.086 4.52,-4.694c0,-2.55 -2.028,-4.694 -4.52,-4.694" style="fill:#fff;fill-rule:nonzero;"/><path d="M327.132,75.155c2.145,4.636 0.232,10.199 -4.23,12.401l-7.766,-16.806c4.463,-2.202 9.852,-0.231 11.996,4.405" style="fill:#231f20;fill-rule:nonzero;"/><path d="M316.064,86.281c-1.043,-2.26 -0.116,-4.983 2.086,-6.085l3.825,8.172c-2.26,1.101 -4.868,0.173 -5.911,-2.087" style="fill:#231f20;fill-rule:nonzero;"/><path d="M363.237,79.849l-4.752,4.056c-6.896,-5.621 -16.864,-5.795 -24.05,0c1.101,-1.622 2.434,-3.187 3.999,-4.462c7.417,-6.143 17.849,-5.737 24.803,0.406" style="fill:#231f20;fill-rule:nonzero;"/><path d="M364.801,71.272l-3.709,3.129c-5.389,-4.346 -13.097,-4.52 -18.718,0c0.812,-1.275 1.855,-2.434 3.13,-3.477c5.737,-4.752 13.85,-4.404 19.297,0.348" style="fill:#231f20;fill-rule:nonzero;"/><path d="M349.038,97.929l-14.082,-2.144l0.463,-3.245l12.692,-1.217l0.927,6.606Z" style="fill:#ee7d00;fill-rule:nonzero;"/><path d="M330.378,87.962l2.55,4.404c6.723,-2.318 14.314,0.29 18.255,6.722c-0.406,-1.564 -0.985,-3.071 -1.855,-4.52c-4.056,-6.722 -12.053,-9.33 -18.95,-6.606" style="fill:#231f20;fill-rule:nonzero;"/><path d="M345.908,150.896c-0.057,0.116 0,0.232 0,0Z" style="fill:#1d1c18;fill-rule:nonzero;"/><path d="M383.577,150.896c0,0.232 0.058,0.116 0.058,0l-0.058,0Z" style="fill:#1d1c18;fill-rule:nonzero;"/><path d="M387.807,93.004c-4.23,-0 -7.65,3.535 -7.65,7.881c0,0.579 0.058,1.159 0.174,1.68c-2.723,5.274 -2.492,11.938 1.159,17.154c0.985,1.391 2.087,2.55 3.304,3.477c-3.304,-4.81 -3.709,-10.895 -1.565,-15.994c1.275,0.985 2.839,1.564 4.52,1.564c4.23,0 7.65,-3.535 7.65,-7.881c0.057,-4.346 -3.362,-7.881 -7.592,-7.881Z" style="fill:#231f20;fill-rule:nonzero;"/><path d="M387.807,96.191c-2.492,-0 -4.52,2.086 -4.52,4.694c-0,2.608 2.028,4.694 4.52,4.694c2.492,-0 4.52,-2.086 4.52,-4.694c0,-2.55 -2.028,-4.694 -4.52,-4.694" style="fill:#fff;fill-rule:nonzero;"/><path d="M387.807,98.045c1.507,0 2.724,1.275 2.724,2.782c-0,1.565 -1.217,2.782 -2.724,2.782c-1.507,-0 -2.724,-1.275 -2.724,-2.782c0.058,-1.565 1.217,-2.782 2.724,-2.782" style="fill:#231f20;fill-rule:nonzero;"/><path d="M402.353,75.155c-2.144,4.636 -0.231,10.199 4.231,12.401l7.765,-16.806c-4.462,-2.202 -9.851,-0.231 -11.996,4.405" style="fill:#231f20;fill-rule:nonzero;"/><path d="M413.48,86.281c1.043,-2.26 0.116,-4.983 -2.086,-6.085l-3.825,8.172c2.202,1.101 4.868,0.173 5.911,-2.087" style="fill:#231f20;fill-rule:nonzero;"/><path d="M366.249,79.849l4.752,4.056c6.896,-5.621 16.864,-5.795 24.05,0c-1.101,-1.622 -2.434,-3.187 -3.999,-4.462c-7.418,-6.143 -17.849,-5.737 -24.803,0.406" style="fill:#231f20;fill-rule:nonzero;"/><path d="M364.743,71.272l3.709,3.129c5.389,-4.346 13.097,-4.52 18.718,0c-0.811,-1.275 -1.854,-2.434 -3.129,-3.477c-5.796,-4.752 -13.909,-4.404 -19.298,0.348" style="fill:#231f20;fill-rule:nonzero;"/><path d="M380.448,97.929l14.14,-2.144l-0.522,-3.245l-12.691,-1.217l-0.927,6.606Z" style="fill:#ee7d00;fill-rule:nonzero;"/><path d="M399.107,87.962l-2.549,4.404c-6.723,-2.318 -14.314,0.29 -18.255,6.722c0.406,-1.564 0.985,-3.071 1.854,-4.52c4.057,-6.722 12.054,-9.33 18.95,-6.606" style="fill:#231f20;fill-rule:nonzero;"/><path d="M341.679,98.045c-1.507,0 -2.724,1.275 -2.724,2.782c0,1.565 1.217,2.782 2.724,2.782c1.507,-0 2.724,-1.275 2.724,-2.782c-0,-1.565 -1.217,-2.782 -2.724,-2.782" style="fill:#231f20;fill-rule:nonzero;"/><path d="M419.043,118.212l0,-0.753c-0.116,-8.403 -3.477,-16.748 -7.128,-24.224c0,0 6.665,-5.041 8.461,-7.649c1.797,-2.608 2.434,-5.158 2.434,-8.113c0,-3.825 -1.449,-7.418 -4.056,-10.142c-2.608,-2.723 -6.085,-4.172 -9.794,-4.172c-2.898,-0 -5.621,0.927 -7.939,2.608l-7.824,5.273c-8.75,-5.911 -17.211,-9.214 -27.758,-9.214l-1.449,0c-10.547,0 -19.008,3.303 -27.759,9.214l-7.823,-5.273c-2.318,-1.681 -5.042,-2.608 -7.939,-2.608c-3.709,-0 -7.186,1.507 -9.794,4.172c-2.608,2.724 -4.056,6.317 -4.056,10.142c-0,2.955 0.637,5.505 2.433,8.113c1.797,2.608 8.461,7.649 8.461,7.649c-3.651,7.476 -7.012,15.763 -7.128,24.224l0,2.839l-3.766,55.054l6.548,-0l0,-33.09c0.116,0.29 0.232,0.579 0.406,0.869c1.506,3.245 3.419,6.143 5.679,8.635c-7.07,-15.763 -1.739,-34.249 11.996,-43.521l-4.636,-9.678c-5.969,3.709 -10.489,9.098 -13.271,15.299c0.579,-7.65 2.782,-14.835 6.201,-21.152l-6.607,-6.838c0,-0 -0.232,-0.232 -0.347,-0.348c-4.347,-4.462 -4.347,-11.764 -0,-16.226c2.144,-2.26 4.983,-3.361 7.823,-3.361c2.84,-0 5.679,1.101 7.823,3.361c0.116,0.116 0.29,0.347 0.29,0.347l5.679,5.853c8.345,-6.2 18.602,-9.909 29.671,-9.909l1.449,-0c11.068,-0 21.326,3.651 29.671,9.909l5.679,-5.853c0.116,-0.116 0.232,-0.231 0.29,-0.347c2.144,-2.26 4.983,-3.361 7.823,-3.361c2.84,-0 5.679,1.101 7.823,3.361c4.347,4.462 4.347,11.764 0,16.226c-0.116,0.116 -0.231,0.232 -0.289,0.348l-6.607,6.838c3.419,6.374 5.621,13.56 6.201,21.21c-2.724,-6.201 -7.244,-11.648 -13.271,-15.299l-4.636,9.678c13.735,9.272 19.066,27.758 11.996,43.521c2.26,-2.492 4.172,-5.39 5.679,-8.635c0.116,-0.29 0.29,-0.579 0.406,-0.927l-0,33.09l6.548,-0l-3.767,-55.054l0,-2.086l0.174,0Z" style="fill:#231f20;fill-rule:nonzero;"/><path d="M395.747,113.518l-0.579,1.275l-5.332,10.373c0.058,0.058 0.058,0.058 0.116,0.116c2.318,2.26 3.767,5.448 3.767,8.983c-0,3.535 -1.449,6.78 -3.767,8.982l0.695,-1.507l-20.804,-0.405c-2.782,-2.492 -4.752,-5.68 -5.042,-9.33c-0.29,3.65 -2.26,6.838 -5.099,9.33l-20.747,0.347l0.696,1.507c-2.318,-2.26 -3.767,-5.447 -3.767,-9.04c-0,-3.535 1.449,-6.723 3.767,-8.983c0.058,-0.058 0.058,-0.116 0.116,-0.116l-5.332,-10.373l-0.579,-1.275c-10.2,7.766 -13.967,22.138 -8.345,34.365c1.217,2.608 2.781,4.926 4.578,6.954c-4.231,-9.388 -2.956,-19.993 2.492,-27.874c0.521,8.75 4.404,18.602 12.053,23.702l1.333,0.174c0,-0.116 0,-0.174 0.058,-0c0,-0 0,-0.058 0,-0c0,-0 37.668,-0.058 37.668,-0c0.058,-0.174 0.058,-0.116 0.058,-0l1.333,-0.174c7.65,-5.158 11.532,-15.009 12.054,-23.702c5.389,7.881 6.664,18.486 2.434,27.874c1.796,-2.028 3.361,-4.346 4.578,-6.954c5.621,-12.112 1.796,-26.541 -8.403,-34.249Z" style="fill:#231f20;fill-rule:nonzero;"/><path d="M381.665,121.863l-2.26,0l-1.043,-10.315l-0,-0.464c-0,-6.49 -6.375,-15.299 -13.793,-15.299l-0.058,0c-7.417,0 -13.444,8.809 -13.444,15.299l-0,0.464l-1.043,10.315l-2.202,0c-6.607,0 -11.996,5.563 -11.996,12.402c-0,6.374 4.636,11.59 10.605,12.285c8.229,0 17.675,-6.259 18.312,-14.487c0.696,8.228 10.084,14.487 18.313,14.487c5.969,-0.695 10.605,-5.969 10.605,-12.285c-0,-6.839 -5.332,-12.402 -11.996,-12.402Z" style="fill:#fff;fill-rule:nonzero;"/><path d="M380.97,164.109l-4.115,6.606l-4.114,-6.606l-4.057,6.606l-3.941,-6.606l-4.114,6.606l-3.999,-6.606l-4.056,6.606l-4.115,-6.606l-3.941,6.606l0,4.636l40.508,0l0,-4.636l-4.056,-6.606Z" style="fill:#231f20;fill-rule:nonzero;"/><path d="M364.743,146.724l-20.225,3.998l-0,19.993l3.941,-6.606l4.114,6.606l4.057,-6.606l3.998,6.606l4.115,-6.606l3.941,6.606l4.056,-6.606l4.115,6.606l4.114,-6.606l4.057,6.606l-0,-19.993l-20.283,-3.998Z" style="fill:#fff;fill-rule:nonzero;"/><path d="M352.921,123.37c-0,1.333 0.232,2.55 0.579,3.709c1.275,3.94 4.463,6.954 8.461,7.939c0.87,0.232 1.855,0.348 2.782,0.348c0.985,-0 1.912,-0.116 2.84,-0.348c3.998,-0.985 7.185,-4.057 8.46,-7.939c0.348,-1.159 0.58,-2.434 0.58,-3.767l-23.702,-0l-0,0.058Z" style="fill:#ee7d00;fill-rule:nonzero;"/><path d="M354.196,127.079c-0.232,-0 -0.695,-0 -0.695,0.058c1.275,3.94 4.462,7.012 8.461,7.939c-0.058,-4.404 -3.535,-7.997 -7.766,-7.997" style="fill:#231f20;fill-rule:nonzero;"/><path d="M375.348,127.079c-4.288,-0 -7.708,3.593 -7.765,7.997c3.998,-0.927 7.185,-3.999 8.46,-7.939c-0.232,-0.058 -0.463,-0.058 -0.695,-0.058" style="fill:#231f20;fill-rule:nonzero;"/></g></g></g><g><g><path d="M-0,152.461l-0,-68.035l20.746,0c8.577,0 15.299,0.116 20.631,3.535c5.969,3.825 9.504,10.837 9.504,19.588c-0,9.04 -3.303,15.82 -9.446,19.413c-4.694,2.782 -9.91,3.072 -16.284,3.072l-7.766,-0l0,22.485l-17.385,-0.058Zm20.92,-37.379c7.882,0 11.996,-1.506 11.996,-8.113c0,-6.548 -4.288,-7.881 -11.822,-7.881l-3.709,-0l0,15.994l3.535,0Z" style="fill-rule:nonzero;"/><path d="M63.514,84.427l23.238,-0l23.529,68.034l-18.487,0l-3.419,-12.17l-26.368,0l-3.535,12.17l-18.428,0l23.47,-68.034Zm20.92,42.594l-6.954,-22.485c-0.289,-1.043 -1.043,-4.115 -2.26,-9.156c-1.217,5.041 -2.086,8.113 -2.376,9.156l-6.838,22.485l18.428,-0Z" style="fill-rule:nonzero;"/><path d="M139.082,113.17l36.509,0c0.116,1.449 0.116,2.782 0.116,4.115c0,23.528 -13.329,36.857 -35.408,36.857c-10.837,-0 -19.298,-3.13 -26.194,-10.084c-6.49,-6.548 -10.199,-15.878 -10.199,-25.498c-0,-20.631 15.415,-35.582 36.335,-35.582c13.213,0 23.586,5.332 30.656,15.705l-16.11,7.707c-3.825,-5.215 -8.577,-7.823 -14.546,-7.823c-10.837,-0 -17.907,7.591 -17.907,20.746c0,13.039 6.954,20.863 17.907,20.863c9.62,-0 16.342,-5.332 17.328,-12.634l-18.487,0l0,-14.372Z" style="fill-rule:nonzero;"/></g><path d="M178.662,86.107l41.493,0l0,14.894l-23.47,-0l-0,11.706l22.137,-0l0,14.488l-22.137,-0l-0,11.474l23.47,-0l0,15.125l-41.493,0l0,-67.687Z" style="fill-rule:nonzero;"/></g><g><path d="M518.718,100.827l-15.067,-0l-0,-15.995l48.679,0l-0,15.995l-15.184,-0l0,51.692l-18.428,0l-0,-51.692Z" style="fill:#ee7d00;fill-rule:nonzero;"/><rect x="555.807" y="84.832" width="18.66" height="67.687" style="fill:#ee7d00;"/><g><path d="M612.715,113.402l36.277,0c0.116,1.449 0.116,2.724 0.116,4.057c0,23.354 -13.27,36.625 -35.234,36.625c-10.779,-0 -19.239,-3.13 -26.02,-10.026c-6.432,-6.548 -10.141,-15.82 -10.141,-25.382c-0,-20.573 15.357,-35.408 36.161,-35.408c13.155,-0 23.47,5.273 30.482,15.589l-15.994,7.649c-3.767,-5.215 -8.519,-7.765 -14.488,-7.765c-10.779,-0 -17.791,7.591 -17.791,20.63c0,12.981 6.896,20.747 17.791,20.747c9.562,-0 16.284,-5.274 17.212,-12.576l-18.371,0l0,-14.14Z" style="fill:#ee7d00;fill-rule:nonzero;"/></g><path d="M652.006,84.832l41.435,0l-0,14.836l-23.47,-0l-0,11.764l22.137,-0l-0,14.488l-22.137,-0l-0,11.474l23.47,-0l-0,15.125l-41.435,0l-0,-67.687Z" style="fill:#ee7d00;fill-rule:nonzero;"/><path d="M696.222,84.832l20.456,0c9.388,0 16.574,0.116 22.369,4.521c4.926,3.767 7.592,9.562 7.592,16.574c-0,10.489 -5.274,17.211 -15.125,19.297l18.486,27.237l-20.804,0l-15.531,-26.483l-0,26.483l-17.327,0l-0.116,-67.629Zm20.688,31.989c7.766,0 11.474,-2.434 11.474,-8.402c0,-7.128 -3.477,-9.388 -11.184,-9.388l-3.709,-0l-0,17.79l3.419,0Z" style="fill:#ee7d00;fill-rule:nonzero;"/></g></g></g></svg>