<?xml version="1.0" encoding="UTF-8" standalone="no"?><!DOCTYPE svg PUBLIC "-//W3C//DTD SVG 1.1//EN" "http://www.w3.org/Graphics/SVG/1.1/DTD/svg11.dtd"><svg width="100%" height="100%" viewBox="0 0 3125 1042" version="1.1" xmlns="http://www.w3.org/2000/svg" xmlns:xlink="http://www.w3.org/1999/xlink" xml:space="preserve" xmlns:serif="http://www.serif.com/" style="fill-rule:evenodd;clip-rule:evenodd;stroke-linejoin:round;stroke-miterlimit:2;"><g><g><g id="Layer_2_3_"><g><path d="M272.885,353.947c1.114,-0.743 1.857,-1.485 2.97,-2.228l-14.108,9.653l11.138,-7.425Z" style="fill:url(#_Linear1);fill-rule:nonzero;"/><path d="M439.587,80.69c-225.363,0 -413.969,170.043 -437.731,393.549l264.346,-176.726c11.51,-7.796 26.732,-4.455 34.529,7.426c2.599,4.084 4.084,8.91 4.455,13.737c-0,9.282 -4.827,17.45 -12.623,21.905l-16.336,11.138c-0.743,0.743 -1.857,1.485 -2.97,2.228l-11.139,7.425l-262.118,178.211c1.114,24.504 4.084,49.379 9.282,73.512l563.591,-370.159c11.51,-7.425 26.732,-4.084 34.157,7.054c2.599,4.084 4.084,8.54 4.084,13.366c0,8.539 -4.084,16.336 -11.138,20.791l-576.957,379.07c8.168,23.018 17.821,45.666 29.702,67.2l70.541,-44.924l340.086,-222.764c5.94,-5.569 14.48,-7.796 23.019,-5.569c4.826,1.114 9.282,4.084 12.252,8.168c10.395,12.995 5.198,31.187 -8.911,37.499l-410.627,269.172c14.48,20.42 30.444,39.727 48.265,57.176l0.372,0l-0.372,-0.371l199.002,-129.203c11.51,-7.425 26.361,-4.084 33.786,7.054c2.599,4.084 4.084,8.911 4.084,13.366c0,8.168 -4.084,15.965 -10.767,20.42l-188.235,122.52c-0.371,-0.371 -0.742,-0.371 -1.114,-0.742l-1.113,0.742c78.338,63.488 175.983,98.016 276.969,98.016c243.183,0 439.958,-197.146 439.958,-440.329c-0.372,-243.183 -197.517,-440.329 -440.329,-439.958Z" style="fill:url(#_Linear2);fill-rule:nonzero;"/></g></g></g><g><path d="M1112.33,319.047l77.225,0l8.539,43.068l4.455,4.455l4.456,-4.455c25.989,-34.529 60.146,-51.607 94.674,-51.607c17.079,-0 25.989,-0 43.068,8.539l-0,77.225l-51.607,-0c-50.864,-0 -92.818,41.211 -94.675,91.333l0,235.758l-86.135,-0l0,-404.316Z" style="fill-rule:nonzero;"/><path d="M1466.53,542.553c0,60.146 43.068,111.753 116.208,111.753c51.607,0 86.878,-25.989 99.873,-60.146l72.398,34.528c-34.529,60.146 -94.675,103.214 -176.355,103.214c-107.669,-0 -197.888,-86.135 -197.888,-210.511c0,-124.377 86.135,-210.512 197.888,-210.512c103.214,0 188.978,81.68 188.978,206.428l-8.539,25.989l-292.563,-0.743Zm4.455,-75.74l206.057,0c-4.456,-44.552 -47.152,-79.081 -98.759,-79.081c-60.146,0 -94.674,34.529 -107.298,79.081Z" style="fill-rule:nonzero;"/><path d="M2023.43,654.306c51.607,0 90.961,-34.528 104.699,-68.685l67.2,43.067c-33.415,60.146 -94.675,103.214 -176.355,103.214c-108.411,-0 -206.427,-86.135 -206.427,-210.511c-0,-124.377 98.016,-210.512 206.427,-210.512c81.68,0 141.827,43.068 175.241,103.214l-67.2,43.067c-13.737,-34.528 -52.35,-68.685 -103.957,-68.685c-81.679,-0 -126.232,60.146 -126.232,133.287c0.371,72.398 44.924,132.544 126.604,132.544Z" style="fill-rule:nonzero;"/><path d="M2645.32,722.991l-77.225,0l-8.539,-34.528l-4.455,-4.455l-4.455,4.455c-25.99,25.989 -68.686,43.068 -111.753,43.068c-111.753,-0 -206.428,-86.136 -206.428,-210.512c0,-124.376 94.675,-210.511 206.428,-210.511c43.067,-0 86.135,17.078 111.753,43.067l4.455,4.456l4.455,-4.456l8.539,-34.528l77.225,0l0,403.944Zm-202.343,-335.259c-81.68,0 -125.491,60.147 -125.491,133.287c0,73.141 43.811,133.287 125.491,133.287c73.14,0 124.747,-60.146 124.747,-133.287c0,-73.14 -51.607,-133.287 -124.747,-133.287Z" style="fill-rule:nonzero;"/><path d="M2712.14,319.047l77.225,0l7.796,34.528l5.198,4.456l4.456,-4.456c25.989,-25.617 68.685,-43.067 111.753,-43.067c111.753,-0 206.427,86.135 206.427,210.511c0,124.376 -94.674,210.512 -206.427,210.512c-41.954,-0 -86.136,-17.079 -111.753,-43.068l-4.456,-4.455l-5.198,4.455l0,216.823l-85.021,0l0,-586.239Zm201.972,335.259c81.68,0 124.748,-60.146 124.748,-133.287c-0,-73.14 -43.068,-133.287 -124.748,-133.287c-73.14,0 -124.747,60.147 -124.747,133.287c0.371,73.141 51.978,133.287 124.747,133.287Z" style="fill-rule:nonzero;"/></g></g><defs><linearGradient id="_Linear1" x1="0" y1="0" x2="1" y2="0" gradientUnits="userSpaceOnUse" gradientTransform="matrix(14.1084,0,0,14.1084,261.736,356.657)"><stop offset="0" style="stop-color:#1875f0;stop-opacity:1"/><stop offset="1" style="stop-color:#4cd1c3;stop-opacity:1"/><stop offset="1" style="stop-color:#4cd1c3;stop-opacity:1"/></linearGradient><linearGradient id="_Linear2" x1="0" y1="0" x2="1" y2="0" gradientUnits="userSpaceOnUse" gradientTransform="matrix(879.953,0,0,879.953,-0.297018,520.629)"><stop offset="0" style="stop-color:#1875f0;stop-opacity:1"/><stop offset="1" style="stop-color:#4cd1c3;stop-opacity:1"/><stop offset="1" style="stop-color:#4cd1c3;stop-opacity:1"/></linearGradient></defs></svg>