<?xml version="1.0" encoding="UTF-8" standalone="no"?><!DOCTYPE svg PUBLIC "-//W3C//DTD SVG 1.1//EN" "http://www.w3.org/Graphics/SVG/1.1/DTD/svg11.dtd"><svg width="100%" height="100%" viewBox="0 0 750 250" version="1.1" xmlns="http://www.w3.org/2000/svg" xmlns:xlink="http://www.w3.org/1999/xlink" xml:space="preserve" xmlns:serif="http://www.serif.com/" style="fill-rule:evenodd;clip-rule:evenodd;stroke-linejoin:round;stroke-miterlimit:2;"><g id="Layer_1-2"><g id="Layer_2-2"><path d="M65.572,85.031c0.246,-0.158 0.478,-0.336 0.695,-0.531l-3.382,2.298l2.687,-1.767Z" style="fill:none;fill-rule:nonzero;"/><path d="M105.541,19.388c-53.755,0.004 -99.364,41.052 -105.01,94.51l63.461,-42.472c0.966,-0.649 2.104,-0.996 3.269,-0.996c2.03,0 3.922,1.055 4.988,2.784c0.642,0.994 0.996,2.147 1.022,3.33c-0.009,2.178 -1.179,4.193 -3.067,5.281l-3.937,2.674c-0.217,0.196 -0.449,0.373 -0.695,0.531l-2.687,1.768l-62.885,42.732c0.25,5.927 1.006,11.823 2.26,17.622l135.298,-88.792c2.732,-1.778 6.442,-1.001 8.23,1.724c0.618,0.958 0.945,2.074 0.941,3.214c0.017,2.013 -0.987,3.904 -2.665,5.017l-138.502,90.901c1.911,5.565 4.297,10.954 7.131,16.11l16.914,-10.813l81.626,-53.482c1.491,-1.373 3.588,-1.887 5.544,-1.359c1.178,0.311 2.224,0.996 2.979,1.952c0.848,1.045 1.311,2.351 1.311,3.697c0,2.296 -1.348,4.39 -3.439,5.34l-98.567,64.687c3.465,4.903 7.337,9.504 11.575,13.755l0.066,-0.042c-0.022,-0.022 -0.045,-0.043 -0.066,-0.065l47.772,-30.97c2.699,-1.756 6.363,-0.988 8.13,1.704c0.653,0.958 1.003,2.091 1.007,3.252c-0.009,1.961 -0.998,3.793 -2.633,4.877l-45.218,29.268c-0.082,-0.062 -0.156,-0.127 -0.236,-0.19l-0.289,0.19c18.79,15.192 42.237,23.485 66.401,23.485c57.937,0 105.612,-47.675 105.612,-105.612c-0,-57.937 -47.675,-105.612 -105.612,-105.612c-0.01,-0 -0.019,-0 -0.029,-0Z" style="fill:#4cd1c3;fill-rule:nonzero;"/><path d="M86.534,169.69c-1.77,-2.703 -5.447,-3.475 -8.154,-1.711l-47.831,31.045c0.021,0.021 0.044,0.042 0.066,0.064c1.453,1.453 2.822,2.886 4.275,4.188c1.389,1.137 2.636,2.453 3.921,3.554l0.652,0.536l45.44,-29.513c1.64,-1.09 2.632,-2.929 2.641,-4.898c-0.003,-1.165 -0.355,-2.302 -1.01,-3.265Z" style="fill:#fff;fill-rule:nonzero;"/><path d="M19.061,185.348l98.567,-64.687c2.092,-0.952 3.44,-3.048 3.44,-5.346c0,-1.467 -0.549,-2.882 -1.54,-3.965c-0.637,-0.723 -1.456,-1.264 -2.372,-1.567c-2.051,-0.698 -4.328,-0.219 -5.923,1.248l-81.626,53.482l-16.914,10.813c0.868,1.687 1.89,3.491 3.09,5.365c1.099,1.715 2.205,3.266 3.278,4.657Z" style="fill:#fff;fill-rule:nonzero;"/><path d="M146.729,63.298c0.005,-1.14 -0.322,-2.256 -0.941,-3.214c-1.788,-2.725 -5.498,-3.502 -8.229,-1.724l-135.299,88.792c0.392,2.038 0.828,3.867 1.377,5.826c0.549,1.96 1.298,4.279 1.925,6.238l138.502,-90.902c1.678,-1.112 2.682,-3.003 2.665,-5.016Z" style="fill:#fff;fill-rule:nonzero;"/><path d="M66.838,84.133l3.937,-2.675c1.887,-1.087 3.058,-3.103 3.067,-5.281c-0.026,-1.183 -0.38,-2.336 -1.022,-3.33c-1.066,-1.729 -2.958,-2.784 -4.988,-2.784c-1.165,0 -2.303,0.347 -3.269,0.996l-63.461,42.472l-0.63,0.422c-0.317,2.696 -0.475,5.409 -0.472,8.124l-0,7.474l0.571,-0.388l62.885,-42.732l3.382,-2.298Z" style="fill:#fff;fill-rule:nonzero;"/></g><path d="M266.999,76.614l18.569,0l2.063,10.317l1.032,1.031l1.032,-1.031c6.189,-8.254 14.442,-12.38 22.695,-12.38c4.127,0 6.189,0 10.317,2.063l-0,18.569l-12.38,0c-12.11,0.087 -22.161,9.773 -22.696,21.872l0,56.533l-20.632,0l0,-96.974Z" style="fill:#343a40;fill-rule:nonzero;"/><path d="M352.006,130.26c-0,14.443 10.316,26.822 27.854,26.822c12.379,0 20.838,-6.19 23.933,-14.443l17.332,8.253c-8.253,14.443 -22.695,24.759 -42.297,24.759c-25.79,0 -47.454,-20.632 -47.454,-50.55c-0,-29.918 20.632,-50.55 47.454,-50.55c24.76,-0 45.392,19.601 45.392,49.518l-2.063,6.19l-70.151,0.001Zm1.032,-18.157l49.518,0c-1.032,-10.728 -11.348,-18.982 -23.728,-18.982c-14.442,-0.001 -22.695,8.253 -25.79,18.982l-0,0Z" style="fill:#343a40;fill-rule:nonzero;"/><path d="M485.702,157.082c10.901,-0.021 20.807,-6.516 25.171,-16.506l16.094,10.316c-8.347,15.491 -24.703,25.065 -42.297,24.76c-25.997,0 -49.518,-20.632 -49.518,-50.55c-0,-29.918 23.521,-50.55 49.518,-50.55c19.601,-0 34.044,10.316 42.091,24.758l-16.093,10.317c-4.271,-9.975 -14.115,-16.484 -24.965,-16.506c-19.602,-0 -30.331,14.442 -30.331,31.981c0,17.538 10.728,31.98 30.33,31.98Z" style="fill:#343a40;fill-rule:nonzero;"/><path d="M634.872,173.588l-18.57,0l-2.062,-8.253l-1.032,-1.033l-1.031,1.033c-6.19,6.189 -16.506,10.316 -26.823,10.316c-26.822,0 -49.518,-20.632 -49.518,-50.55c0,-29.918 22.696,-50.55 49.518,-50.55c10.317,-0 20.633,4.126 26.823,10.316l1.031,1.032l1.032,-1.032l2.062,-8.253l18.57,-0l0,96.974Zm-48.486,-80.468c-19.602,0 -30.123,14.443 -30.123,31.981c-0,17.539 10.522,31.981 30.123,31.981c17.538,-0 29.917,-14.443 29.917,-31.981c0,-17.537 -12.379,-31.981 -29.917,-31.981l0,0Z" style="fill:#343a40;fill-rule:nonzero;"/><path d="M650.963,76.614l18.569,0l1.857,8.253l1.239,1.032l1.032,-1.032c6.188,-6.189 16.505,-10.316 26.822,-10.316c26.822,0 49.518,20.632 49.518,50.55c0,29.918 -22.696,50.55 -49.518,50.55c-10.11,0 -20.633,-4.127 -26.822,-10.316l-1.032,-1.033l-1.239,1.033l0,51.994l-20.426,-0l0,-140.715Zm48.486,80.468c19.601,-0 29.918,-14.443 29.918,-31.98c0,-17.538 -10.317,-31.981 -29.918,-31.981c-17.537,-0 -29.917,14.442 -29.917,31.981c-0,17.538 12.38,31.98 29.918,31.98l-0.001,-0Z" style="fill:#343a40;fill-rule:nonzero;"/></g></svg>