<svg xmlns="http://www.w3.org/2000/svg" xmlns:xlink="http://www.w3.org/1999/xlink" width="500" zoomAndPan="magnify" viewBox="0 0 375 112.499997" height="150" preserveAspectRatio="xMidYMid meet" version="1.0"><defs><clipPath id="id1"><path d="M 7.140625 27 L 100 27 L 100 99 L 7.140625 99 Z M 7.140625 27 " clip-rule="nonzero"/></clipPath><clipPath id="id2"><path d="M 320 44 L 367.789062 44 L 367.789062 100 L 320 100 Z M 320 44 " clip-rule="nonzero"/></clipPath><clipPath id="id3"><path d="M 268 45 L 283 45 L 283 100.585938 L 268 100.585938 Z M 268 45 " clip-rule="nonzero"/></clipPath><clipPath id="id4"><path d="M 267 11.730469 L 284 11.730469 L 284 43 L 267 43 Z M 267 11.730469 " clip-rule="nonzero"/></clipPath></defs><g clip-path="url(#id1)"><path fill="#a6a6a6" d="M 81.183594 98.78125 L 68.597656 98.78125 L 56.597656 56.417969 C 56.082031 54.570312 55.4375 51.90625 54.664062 48.425781 C 53.890625 44.945312 53.421875 42.523438 53.261719 41.164062 C 52.9375 43.238281 52.414062 45.925781 51.6875 49.226562 C 50.964844 52.53125 50.359375 54.992188 49.875 56.613281 L 38.164062 98.78125 L 25.578125 98.78125 L 16.433594 63.21875 L 7.140625 27.753906 L 18.949219 27.753906 L 29.0625 69.144531 C 30.644531 75.785156 31.773438 81.648438 32.449219 86.734375 C 32.804688 83.980469 33.335938 80.902344 34.046875 77.503906 C 34.757812 74.101562 35.402344 71.347656 35.980469 69.242188 L 47.5 27.753906 L 58.96875 27.753906 L 70.777344 69.4375 C 71.90625 73.292969 73.097656 79.058594 74.355469 86.734375 C 74.839844 82.101562 76 76.207031 77.839844 69.046875 L 87.90625 27.753906 L 99.617188 27.753906 Z M 81.183594 98.78125 " fill-opacity="1" fill-rule="nonzero"/></g><path fill="#a6a6a6" d="M 103.441406 30.816406 C 103.441406 28.773438 104 27.203125 105.109375 26.101562 C 106.226562 25 107.8125 24.453125 109.878906 24.453125 C 111.878906 24.453125 113.433594 25.003906 114.550781 26.101562 C 115.660156 27.203125 116.21875 28.773438 116.21875 30.816406 C 116.21875 32.757812 115.660156 34.289062 114.550781 35.40625 C 113.433594 36.523438 111.878906 37.082031 109.878906 37.082031 C 107.8125 37.082031 106.226562 36.523438 105.109375 35.40625 C 104 34.289062 103.441406 32.757812 103.441406 30.816406 Z M 115.492188 98.78125 L 104.121094 98.78125 L 104.121094 45.050781 L 115.492188 45.050781 Z M 115.492188 98.78125 " fill-opacity="1" fill-rule="nonzero"/><path fill="#a6a6a6" d="M 124.570312 23.1875 L 135.941406 23.1875 L 135.941406 98.78125 L 124.570312 98.78125 Z M 124.570312 23.1875 " fill-opacity="1" fill-rule="nonzero"/><path fill="#a6a6a6" d="M 143.582031 23.1875 L 154.957031 23.1875 L 154.957031 98.78125 L 143.582031 98.78125 Z M 143.582031 23.1875 " fill-opacity="1" fill-rule="nonzero"/><path fill="#7dd958" d="M 207.476562 79.492188 C 207.476562 85.808594 205.203125 90.765625 200.652344 94.359375 C 196.105469 97.957031 189.828125 99.753906 181.828125 99.753906 C 173.828125 99.753906 167.277344 98.507812 162.179688 96.011719 L 162.179688 85.03125 C 165.40625 86.554688 168.832031 87.753906 172.464844 88.625 C 176.09375 89.5 179.472656 89.9375 182.601562 89.9375 C 187.183594 89.9375 190.5625 89.066406 192.738281 87.316406 C 194.914062 85.566406 196.003906 83.21875 196.003906 80.273438 C 196.003906 77.617188 195.003906 75.363281 193.003906 73.519531 C 191.003906 71.671875 186.875 69.488281 180.617188 66.960938 C 174.164062 64.339844 169.613281 61.34375 166.96875 57.972656 C 164.324219 54.605469 163 50.558594 163 45.828125 C 163 39.902344 165.097656 35.238281 169.292969 31.835938 C 173.484375 28.4375 179.117188 26.734375 186.179688 26.734375 C 192.957031 26.734375 199.699219 28.226562 206.410156 31.207031 L 202.730469 40.679688 C 196.441406 38.023438 190.828125 36.695312 185.890625 36.695312 C 182.148438 36.695312 179.308594 37.511719 177.375 39.148438 C 175.4375 40.785156 174.472656 42.945312 174.472656 45.632812 C 174.472656 47.480469 174.859375 49.058594 175.632812 50.371094 C 176.40625 51.679688 177.679688 52.921875 179.453125 54.085938 C 181.230469 55.253906 184.421875 56.792969 189.039062 58.703125 C 194.230469 60.875 198.039062 62.898438 200.457031 64.777344 C 202.878906 66.65625 204.648438 68.777344 205.78125 71.140625 C 206.914062 73.5 207.476562 76.289062 207.476562 79.492188 Z M 207.476562 79.492188 " fill-opacity="1" fill-rule="nonzero"/><path fill="#7dd958" d="M 253.398438 98.78125 L 251.804688 91.738281 L 251.222656 91.738281 C 249.640625 94.230469 247.390625 96.191406 244.472656 97.613281 C 241.554688 99.039062 238.21875 99.753906 234.480469 99.753906 C 227.996094 99.753906 223.15625 98.132812 219.960938 94.894531 C 216.765625 91.65625 215.171875 86.75 215.171875 80.171875 L 215.171875 45.046875 L 226.640625 45.046875 L 226.640625 78.179688 C 226.640625 82.292969 227.480469 85.378906 229.15625 87.433594 C 230.835938 89.492188 233.464844 90.519531 237.046875 90.519531 C 241.820312 90.519531 245.328125 89.085938 247.570312 86.21875 C 249.8125 83.351562 250.933594 78.550781 250.933594 71.816406 L 250.933594 45.046875 L 262.351562 45.046875 L 262.351562 98.78125 Z M 253.398438 98.78125 " fill-opacity="1" fill-rule="nonzero"/><path fill="#7dd958" d="M 312.28125 90.523438 C 315.054688 90.523438 317.828125 90.082031 320.601562 89.210938 L 320.601562 97.808594 C 319.34375 98.359375 317.722656 98.820312 315.738281 99.191406 C 313.753906 99.566406 311.699219 99.753906 309.570312 99.753906 C 298.792969 99.753906 293.40625 94.050781 293.40625 82.652344 L 293.40625 53.699219 L 286.097656 53.699219 L 286.097656 48.644531 L 293.9375 44.46875 L 297.808594 33.097656 L 304.828125 33.097656 L 304.828125 45.050781 L 320.070312 45.050781 L 320.070312 53.699219 L 304.828125 53.699219 L 304.828125 82.457031 C 304.828125 85.210938 305.511719 87.242188 306.882812 88.554688 C 308.253906 89.863281 310.054688 90.523438 312.28125 90.523438 Z M 312.28125 90.523438 " fill-opacity="1" fill-rule="nonzero"/><g clip-path="url(#id2)"><path fill="#7dd958" d="M 346.980469 99.753906 C 338.65625 99.753906 332.148438 97.316406 327.453125 92.441406 C 322.761719 87.566406 320.414062 80.851562 320.414062 72.304688 C 320.414062 63.527344 322.589844 56.628906 326.945312 51.609375 C 331.300781 46.589844 337.285156 44.078125 344.898438 44.078125 C 351.964844 44.078125 357.546875 46.230469 361.644531 50.539062 C 365.742188 54.84375 367.789062 60.773438 367.789062 68.320312 L 367.789062 74.488281 L 332.125 74.488281 C 332.285156 79.703125 333.6875 83.710938 336.335938 86.511719 C 338.980469 89.3125 342.707031 90.714844 347.515625 90.714844 C 350.675781 90.714844 353.617188 90.414062 356.34375 89.816406 C 359.070312 89.214844 362 88.222656 365.128906 86.828125 L 365.128906 96.105469 C 362.355469 97.433594 359.546875 98.371094 356.707031 98.921875 C 353.867188 99.476562 350.625 99.753906 346.980469 99.753906 Z M 344.898438 52.726562 C 341.285156 52.726562 338.390625 53.875 336.214844 56.175781 C 334.039062 58.476562 332.738281 61.824219 332.320312 66.230469 L 356.613281 66.230469 C 356.546875 61.792969 355.484375 58.433594 353.417969 56.148438 C 351.351562 53.867188 348.511719 52.726562 344.898438 52.726562 Z M 344.898438 52.726562 " fill-opacity="1" fill-rule="nonzero"/></g><g clip-path="url(#id3)"><path fill="#7dd958" d="M 269.851562 45.050781 L 281.226562 45.050781 C 281.226562 45.050781 284.296875 94.964844 281.226562 98.78125 C 279.4375 101 271.863281 100.800781 269.851562 98.78125 C 266.488281 95.402344 269.851562 45.050781 269.851562 45.050781 Z M 269.851562 45.050781 " fill-opacity="1" fill-rule="nonzero"/></g><g clip-path="url(#id4)"><path fill="#a6a6a6" d="M 277.539062 11.945312 C 276.710938 11.945312 276.765625 11.945312 276.765625 11.945312 L 276.765625 25.539062 C 277.542969 26.039062 277.996094 27.492188 277.996094 29.277344 C 277.996094 31.464844 276.890625 33.105469 275.636719 33.105469 C 275.625 33.105469 275.527344 33.101562 275.527344 33.101562 C 275.515625 33.101562 275.488281 33.105469 275.480469 33.105469 C 274.226562 33.105469 273.125 31.46875 273.125 29.277344 C 273.125 27.496094 273.652344 26.039062 274.429688 25.539062 L 274.429688 11.945312 C 274.429688 11.945312 274.363281 11.945312 273.539062 11.945312 C 273.539062 22.496094 267.222656 24.484375 267.222656 24.484375 L 270.621094 42.421875 L 280.457031 42.421875 L 283.855469 24.484375 C 283.855469 24.484375 277.539062 22.496094 277.539062 11.945312 Z M 277.539062 11.945312 " fill-opacity="1" fill-rule="nonzero"/></g></svg>