<?xml version="1.0" encoding="UTF-8" standalone="no"?><!DOCTYPE svg PUBLIC "-//W3C//DTD SVG 1.1//EN" "http://www.w3.org/Graphics/SVG/1.1/DTD/svg11.dtd"><svg width="100%" height="100%" viewBox="0 0 750 250" version="1.1" xmlns="http://www.w3.org/2000/svg" xmlns:xlink="http://www.w3.org/1999/xlink" xml:space="preserve" xmlns:serif="http://www.serif.com/" style="fill-rule:evenodd;clip-rule:evenodd;stroke-linejoin:round;stroke-miterlimit:2;"><g id="CooperPress"><path d="M169.466,109.01l-4.845,6.126c-4.507,-4.233 -10.48,-6.795 -17.691,-6.795c-12.283,0 -21.071,8.8 -21.071,21.608c-0,12.809 8.788,21.72 21.071,21.72c7.775,-0 14.198,-2.674 18.367,-7.574l5.071,5.346c-5.296,6.349 -13.522,10.136 -23.776,10.136c-17.24,-0 -29.41,-12.141 -29.41,-29.628c-0,-17.487 12.282,-29.627 29.41,-29.627c9.578,-0.112 17.466,3.119 22.874,8.688Z" style="fill:#00aeef;fill-rule:nonzero;"/><path d="M181.861,129.949c0,12.921 8.902,21.831 21.297,21.831c12.395,0 21.298,-8.91 21.298,-21.831c-0,-12.808 -8.903,-21.719 -21.298,-21.719c-12.395,0 -21.297,8.911 -21.297,21.719Zm51.384,-0.111c-0,17.598 -12.508,29.739 -30.087,29.739c-17.578,-0 -30.086,-12.141 -30.086,-29.739c0,-17.487 12.508,-29.516 30.086,-29.516c17.579,-0 30.087,12.029 30.087,29.516Z" style="fill:#00aeef;fill-rule:nonzero;"/><path d="M246.992,129.949c-0,12.921 8.901,21.831 21.296,21.831c12.396,0 21.297,-8.91 21.297,-21.831c0,-12.808 -8.901,-21.719 -21.297,-21.719c-12.395,0 -21.296,8.911 -21.296,21.719Zm51.383,-0.111c-0,17.598 -12.508,29.739 -30.087,29.739c-17.578,-0 -30.085,-12.141 -30.085,-29.739c-0,-17.487 12.507,-29.516 30.085,-29.516c17.579,-0 30.087,12.029 30.087,29.516Z" style="fill:#00aeef;fill-rule:nonzero;"/><path d="M361.139,129.838c-0,-12.586 -8.789,-21.831 -21.184,-21.831c-12.508,0 -21.298,9.134 -21.298,21.831c0,12.809 8.79,21.831 21.298,21.831c12.395,-0 21.184,-9.134 21.184,-21.831Zm8.902,0.223c-0,17.375 -11.494,29.516 -28.284,29.516c-10.592,-0 -18.705,-4.79 -23.1,-12.92l0,34.194l-8.789,-0l0,-80.306l8.789,-0l0,12.697c4.395,-8.242 12.508,-13.032 22.875,-13.032c16.79,0 28.509,12.252 28.509,29.851Z" style="fill:#00aeef;fill-rule:nonzero;"/><path d="M424.24,126.162c-0.563,-11.249 -8.225,-18.378 -19.832,-18.378c-11.268,0 -19.381,7.24 -20.733,18.378l40.565,0Zm7.888,7.129l-48.453,-0c1.577,11.472 10.029,18.712 21.522,18.712c7.325,-0 13.747,-2.562 18.367,-7.351l4.846,5.123c-5.634,6.237 -13.973,9.802 -23.889,9.802c-17.465,-0 -29.523,-12.141 -29.523,-29.628c0,-17.487 12.17,-29.627 29.41,-29.627c19.156,-0.112 28.622,13.031 27.72,32.969Z" style="fill:#00aeef;fill-rule:nonzero;"/><path d="M451.509,113.577c3.945,-8.577 11.269,-13.255 21.298,-13.367l0,8.8c-12.508,-0.223 -20.283,7.462 -21.298,19.046l0,31.186l-8.789,0l0,-58.697l8.789,-0l0,13.032Z" style="fill:#00aeef;fill-rule:nonzero;"/><path d="M531.966,129.838c0,-12.586 -8.792,-21.831 -21.186,-21.831c-12.508,0 -21.297,9.134 -21.297,21.831c0,12.809 8.789,21.831 21.297,21.831c12.394,-0 21.186,-9.134 21.186,-21.831Zm8.902,0.223c0,17.375 -11.496,29.516 -28.285,29.516c-10.592,-0 -18.705,-4.79 -23.1,-12.92l0,34.194l-8.789,-0l-0,-80.306l8.789,-0l0,12.697c4.395,-8.242 12.508,-13.032 22.875,-13.032c16.789,0 28.51,12.252 28.51,29.851Z" style="fill:#00aeef;fill-rule:nonzero;"/><path d="M560.587,113.577c3.944,-8.577 11.266,-13.255 21.293,-13.367l-0,8.8c-12.506,-0.223 -20.278,7.462 -21.293,19.046l-0,31.186l-8.792,0l-0,-58.697l8.792,-0l-0,13.032Z" style="fill:#00aeef;fill-rule:nonzero;"/><path d="M632.479,126.162c-0.565,-11.249 -8.228,-18.378 -19.834,-18.378c-11.272,0 -19.384,7.24 -20.733,18.378l40.567,0Zm7.887,7.129l-48.454,-0c1.574,11.472 10.026,18.712 21.523,18.712c7.322,-0 13.745,-2.562 18.364,-7.351l4.848,5.123c-5.638,6.237 -13.975,9.802 -23.892,9.802c-17.464,-0 -29.52,-12.141 -29.52,-29.628c-0,-17.487 12.171,-29.627 29.41,-29.627c19.154,-0.112 28.621,13.031 27.721,32.969Z" style="fill:#00aeef;fill-rule:nonzero;"/><path d="M685.661,105.557l-3.379,6.905c-4.618,-2.896 -10.591,-4.789 -16.115,-4.789c-6.647,0 -11.716,2.339 -11.716,7.797c0,13.031 33.124,6.348 33.124,27.4c0,11.584 -10.366,16.707 -21.748,16.707c-8.447,-0 -17.124,-2.896 -22.757,-8.242l3.379,-6.572c5.068,4.678 12.731,7.462 19.718,7.462c6.988,0 12.621,-2.561 12.736,-8.353c0.335,-14.146 -32.904,-6.906 -32.794,-27.734c-0,-11.25 9.807,-15.928 20.623,-15.928c7.098,0 13.971,2.005 18.929,5.347Z" style="fill:#00aeef;fill-rule:nonzero;"/><path d="M732.201,105.557l-3.384,6.905c-4.618,-2.896 -10.592,-4.789 -16.115,-4.789c-6.648,0 -11.716,2.339 -11.716,7.797c0,13.031 33.129,6.348 33.129,27.4c0,11.584 -10.366,16.707 -21.748,16.707c-8.452,-0 -17.129,-2.896 -22.762,-8.242l3.379,-6.572c5.073,4.678 12.736,7.462 19.718,7.462c6.988,0 12.621,-2.561 12.736,-8.353c0.34,-14.146 -32.904,-6.906 -32.789,-27.734c-0,-11.25 9.802,-15.928 20.618,-15.928c7.098,0 13.976,2.005 18.934,5.347Z" style="fill:#00aeef;fill-rule:nonzero;"/><path d="M739.069,121.262c-0,-3.342 2.369,-5.792 5.523,-5.792c3.044,-0 5.408,2.45 5.408,5.792c0,3.341 -2.364,5.791 -5.408,5.791c-3.154,0 -5.523,-2.45 -5.523,-5.791Zm10.931,33.192c0,1.782 -0.675,3.229 -1.689,4.788l-5.299,8.02l-4.953,0l3.719,-8.131c-1.695,-1.002 -2.485,-2.784 -2.485,-4.789c0,-3.23 2.255,-5.569 5.299,-5.569c2.929,-0 5.408,2.116 5.408,5.681Z" style="fill:#00aeef;fill-rule:nonzero;"/><path d="M93.908,94.7c-0.234,1.262 -0.716,2.363 -1.443,3.304c-0.716,0.941 -1.614,1.604 -2.672,1.967c-1.048,0.374 -1.978,0.556 -2.769,0.556l-5.603,-0c-1.988,-0 -3.453,0.449 -4.383,1.369c-0.555,0.566 -1.069,1.571 -1.539,3.025l-2.534,-0c-0.331,-1.197 -0.759,-2.106 -1.294,-2.726c-0.941,-1.112 -2.309,-1.668 -4.094,-1.668l-6.532,-0c-2.117,-0 -3.753,-0.749 -4.918,-2.224c-1.165,-1.486 -1.774,-3.271 -1.828,-5.356l-0.043,-1.507l3.346,-0c0.299,1.058 0.663,1.796 1.08,2.223c0.695,0.717 1.807,1.091 3.314,1.112l5.282,-0c1.977,-0 3.431,0.396 4.383,1.165c0.962,0.781 1.785,2.021 2.502,3.71c0.887,-1.849 1.891,-3.121 3.025,-3.827c1.133,-0.695 2.619,-1.048 4.437,-1.048l4.832,-0c1.55,-0 2.598,-0.245 3.154,-0.748c0.556,-0.503 0.962,-1.358 1.208,-2.587l3.346,-0c-0.021,1.411 -0.096,2.501 -0.257,3.26Zm13.385,2.246c-1.561,-13.696 -12.732,-28.096 -30.864,-28.203l-0.375,-0c-9.696,-0 -23.38,2.395 -31.912,21.884c-0.075,0.182 -0.139,0.375 -0.214,0.556c-1.101,3.55 -1.657,7.013 -2.191,10.36c-0.609,3.816 -1.176,7.43 -2.534,10.808c-1.935,4.854 -22.889,39.738 -34.959,59.997c-0.994,1.539 -4.244,6.66 -4.244,6.66c-0,0 5.709,1.026 7.569,1.219c21.05,2.224 37.022,2.405 52.653,-15.972c0.256,-0.299 8.809,-9.868 7.174,-23.894c-0.642,-8.531 -4.181,-11.985 -4.641,-12.754c-2.095,-2.299 -1.326,-3.175 -0.631,-4.106c1.807,-1.689 3.272,-0.577 3.646,-0.299c4.202,3.122 6.03,10.691 6.65,14.497c1.925,11.621 -2.063,20.259 -4.116,24.182c-2.726,4.854 -4.544,6.618 -6.394,8.596l4.384,4.779c2.405,2.587 4.715,5.131 5.431,5.847l15.972,0c-4.843,-4.842 -6.029,-6.029 -9.793,-9.792c0.417,-0.631 26.225,-32.511 29.015,-49.723c1.54,-7.869 1.294,-16.646 0.374,-24.642Z" style="fill:#00aeef;fill-rule:nonzero;"/></g></svg>