<?xml version="1.0" encoding="UTF-8" standalone="no"?><!DOCTYPE svg PUBLIC "-//W3C//DTD SVG 1.1//EN" "http://www.w3.org/Graphics/SVG/1.1/DTD/svg11.dtd"><svg width="100%" height="100%" viewBox="0 0 750 250" version="1.1" xmlns="http://www.w3.org/2000/svg" xmlns:xlink="http://www.w3.org/1999/xlink" xml:space="preserve" xmlns:serif="http://www.serif.com/" style="fill-rule:evenodd;clip-rule:evenodd;stroke-linejoin:round;stroke-miterlimit:2;"><g id="Layer_1-2"><path d="M210.544,220.202l0,-29.994l5.05,-0l-0,25.171l13.749,0l-0,4.823l-18.799,-0Z" style="fill-rule:nonzero;"/><rect x="233.579" y="199.607" width="4.86" height="20.595"/><path d="M249.635,220.202l-4.917,-0l0,-20.595l4.917,-0l0,2.742c1.274,-2.13 3.609,-3.406 6.09,-3.328c5.03,-0 7.451,3.631 7.451,8.15l-0,13.031l-4.917,-0l-0,-12.18c-0,-2.534 -1.135,-4.576 -4.218,-4.576c-0.045,-0.002 -0.091,-0.002 -0.137,-0.002c-2.365,-0 -4.312,1.946 -4.312,4.312c-0,0.203 0.014,0.406 0.043,0.607l0,11.839Z" style="fill-rule:nonzero;"/><path d="M272.329,209.876c-0.021,0.202 -0.031,0.404 -0.031,0.607c-0,3.157 2.549,5.776 5.705,5.861c2.377,0.072 4.515,-1.494 5.163,-3.783l4.311,1.57c-1.273,4.102 -5.163,6.864 -9.455,6.714l-0.01,-0c-6.017,-0 -10.969,-4.952 -10.969,-10.969c0,-6.014 4.946,-10.964 10.96,-10.969c4.34,-0.262 8.305,2.577 9.455,6.77l-4.406,1.608c-0.505,-2.307 -2.635,-3.921 -4.993,-3.782c-0.033,-0.001 -0.066,-0.001 -0.1,-0.001c-3.112,-0 -5.673,2.561 -5.673,5.673c-0,0.235 0.014,0.468 0.043,0.701Z" style="fill-rule:nonzero;"/><path d="M311.439,209.876c-0.153,5.752 -4.927,10.401 -10.682,10.401c-5.861,0 -10.685,-4.823 -10.685,-10.685c0,-5.839 4.786,-10.652 10.625,-10.685c0.092,-0.003 0.184,-0.003 0.276,-0.003c5.748,-0 10.477,4.729 10.477,10.477c0,0.165 -0.003,0.33 -0.011,0.495Zm-4.936,-0c-0,-4.274 -2.705,-6.468 -5.674,-6.468c-2.969,-0 -5.673,2.194 -5.673,6.468c-0,4.274 2.742,6.562 5.673,6.562c2.932,0 5.674,-2.25 5.674,-6.562Z" style="fill-rule:nonzero;"/><rect x="316.166" y="189.584" width="4.917" height="30.618"/><path d="M332.317,220.202l-4.898,-0l0,-20.595l4.785,-0l-0,2.742c1.271,-2.132 3.608,-3.41 6.089,-3.328c5.031,-0 7.433,3.631 7.433,8.15l-0,13.031l-4.898,-0l-0,-12.18c-0,-2.534 -1.154,-4.576 -4.237,-4.576c-2.369,0.009 -4.314,1.961 -4.314,4.33c0,0.197 0.014,0.393 0.04,0.587l0,11.839Z" style="fill-rule:nonzero;"/><path d="M351.21,189.886c1.946,0.022 3.534,1.629 3.534,3.574c0,0.114 -0.005,0.228 -0.016,0.341c-0,5.503 -3.688,7.564 -6.26,7.867l-0,-2.326c1.824,-0.392 3.197,-1.925 3.385,-3.782c-0.28,0.126 -0.582,0.196 -0.889,0.208c-0.039,0.002 -0.078,0.002 -0.117,0.002c-1.515,0 -2.762,-1.246 -2.762,-2.761c0,-0.051 0.002,-0.103 0.005,-0.154c0.008,-1.633 1.355,-2.972 2.988,-2.972c0.044,0 0.088,0.001 0.132,0.003Z" style="fill-rule:nonzero;"/><path d="M359.55,213.431c0.137,1.972 1.797,3.521 3.773,3.521c0.136,-0 0.272,-0.008 0.407,-0.022c2.023,-0 3.082,-1.097 3.082,-2.364c0,-1.267 -0.756,-1.891 -2.402,-2.269l-3.044,-0.681c-3.631,-0.813 -5.542,-3.177 -5.542,-6.014c0.262,-3.893 3.672,-6.885 7.565,-6.638c5.674,-0 7.565,3.782 7.943,5.673l-4.141,1.192c-0.236,-1.861 -1.913,-3.228 -3.783,-3.083c-0.099,-0.011 -0.199,-0.017 -0.299,-0.017c-1.355,0 -2.506,1.033 -2.651,2.381c0.044,1.131 0.934,2.062 2.061,2.156l3.14,0.643c3.782,0.832 5.919,3.196 5.919,6.241c0,3.045 -2.553,6.6 -7.792,6.6c-5.957,0 -8.245,-3.896 -8.491,-6.203l4.255,-1.116Z" style="fill-rule:nonzero;"/><path d="M405.922,216.438c0.002,1.264 0.071,2.526 0.208,3.783l-4.69,-0c-0.132,-0.883 -0.202,-1.774 -0.208,-2.667c-1.307,2.056 -3.619,3.262 -6.052,3.158c-5.919,0 -9.891,-4.633 -9.891,-10.855c0,-5.919 4.009,-10.78 9.796,-10.78c2.415,-0.272 4.78,0.881 6.052,2.951l0,-12.444l4.785,-0l-0,26.854Zm-10.194,0c3.215,0 5.447,-2.648 5.447,-6.581c-0,-3.934 -2.194,-6.392 -5.409,-6.392c-3.215,-0 -5.674,2.496 -5.674,6.43c0,3.934 2.289,6.487 5.636,6.487l0,0.056Z" style="fill-rule:nonzero;"/><rect x="412.276" y="199.607" width="4.86" height="20.595"/><path d="M426.573,220.145c0.293,2.589 2.56,4.54 5.163,4.444c3.896,0 5.844,-1.891 5.844,-6.165l-0,-2.156c-1.302,2.003 -3.593,3.148 -5.976,2.988c-5.329,-0.231 -9.588,-4.679 -9.588,-10.014c-0,-5.334 4.259,-9.782 9.588,-10.013c2.43,-0.247 4.798,0.915 6.089,2.987l0,-2.609l4.842,-0l-0,18.647c-0,5.484 -2.837,10.609 -10.572,10.609c-5.465,0 -9.266,-3.385 -9.815,-7.564l4.425,-1.154Zm11.12,-10.893c-0.243,-2.747 -2.573,-4.879 -5.33,-4.879c-2.937,-0 -5.353,2.416 -5.353,5.352c0,2.936 2.416,5.352 5.353,5.352l0.062,-0c2.905,-0 5.295,-2.391 5.295,-5.296c0,-0.177 -0.009,-0.353 -0.027,-0.529Z" style="fill-rule:nonzero;"/><rect x="448.435" y="199.607" width="4.86" height="20.595"/><path d="M465.855,199.607l4.275,-0l-0,4.35l-4.275,-0l0,9.455c0,1.892 0.795,2.591 2.61,2.591c0.571,-0.013 1.14,-0.069 1.702,-0.17l0,4.066c-0.965,0.338 -1.985,0.492 -3.007,0.454c-0.17,0.016 -0.341,0.023 -0.512,0.023c-3.112,0 -5.673,-2.561 -5.673,-5.673c-0,-0.16 0.007,-0.319 0.02,-0.477l0,-10.269l-3.782,-0l-0,-4.35l1.059,-0c0.093,0.009 0.187,0.013 0.282,0.013c1.597,0 2.912,-1.314 2.912,-2.912c0,-0.106 -0.006,-0.211 -0.017,-0.316l0,-3.158l4.444,-0l-0.038,6.373Z" style="fill-rule:nonzero;"/><path d="M480.13,208.363l5.295,-0.813c1.173,-0.171 1.513,-0.757 1.513,-1.476c0,-1.72 -1.191,-3.12 -3.895,-3.12c-0.09,-0.006 -0.179,-0.009 -0.269,-0.009c-2.107,-0 -3.863,1.686 -3.949,3.792l-4.482,-1.003c0.378,-3.555 3.593,-6.732 8.662,-6.732c6.354,-0 8.756,3.593 8.756,7.697l-0,10.231c-0.012,1.108 0.07,2.215 0.246,3.31l-4.558,-0c-0.165,-0.866 -0.235,-1.748 -0.208,-2.629c-1.393,2.128 -3.813,3.367 -6.354,3.253c-0.178,0.014 -0.356,0.022 -0.534,0.022c-3.453,-0 -6.325,-2.774 -6.445,-6.225c0,-3.726 2.667,-5.75 6.222,-6.298Zm6.808,3.291l0,-0.965l-5.371,0.794c-1.512,0.265 -2.742,1.097 -2.742,2.799c0.023,1.478 1.245,2.682 2.723,2.682c0.095,-0 0.19,-0.005 0.284,-0.015c0.153,0.015 0.305,0.022 0.458,0.022c2.573,0 4.69,-2.117 4.69,-4.69c0,-0.21 -0.014,-0.42 -0.042,-0.627Z" style="fill-rule:nonzero;"/><rect x="497.682" y="189.584" width="4.898" height="30.618"/><path d="M524.311,220.202l-4.918,-0l0,-30.618l4.918,-0l-0,12.008c1.459,-1.716 3.631,-2.665 5.881,-2.571c5.069,-0 7.565,3.631 7.565,8.15l0,13.031l-4.898,-0l-0,-12.18c-0,-2.534 -1.135,-4.576 -4.236,-4.576c-2.344,0.001 -4.272,1.93 -4.272,4.274c-0,0.126 0.005,0.253 0.017,0.378l-0.057,12.104Z" style="fill-rule:nonzero;"/><path d="M550.936,220.788c-0.085,0.003 -0.17,0.004 -0.255,0.004c-4.15,0 -7.564,-3.415 -7.564,-7.564c-0,-0.216 0.009,-0.432 0.027,-0.648l0,-12.973l4.917,-0l0,12.084c0,2.535 1.172,4.691 4.142,4.691c0.079,0.004 0.159,0.006 0.238,0.006c2.251,0 4.104,-1.852 4.104,-4.104c0,-0.166 -0.01,-0.333 -0.03,-0.498l-0,-12.179l4.898,-0l-0,16.831c-0.002,1.264 0.073,2.528 0.227,3.783l-4.709,-0c-0.11,-0.758 -0.166,-1.523 -0.17,-2.289c-1.304,1.907 -3.52,2.993 -5.825,2.856Z" style="fill-rule:nonzero;"/><path d="M567.752,220.202l-0,-30.618l4.822,-0l0,12.557c1.485,-2.066 3.929,-3.231 6.468,-3.083c6.184,0 9.456,4.69 9.456,10.742c-0,6.052 -3.669,10.894 -9.683,10.894c-2.54,0.135 -4.965,-1.11 -6.335,-3.253l-0,2.761l-4.728,-0Zm10.326,-16.794c-3.14,-0 -5.541,2.326 -5.541,6.43c-0,4.104 2.401,6.506 5.541,6.506c3.139,-0 5.541,-2.459 5.541,-6.506c-0,-4.047 -2.288,-6.43 -5.541,-6.43Z" style="fill-rule:nonzero;"/><rect x="233.579" y="190.208" width="4.86" height="4.86"/><rect x="412.333" y="190.208" width="4.86" height="4.86"/><rect x="448.435" y="190.208" width="4.86" height="4.86"/><rect x="42.117" y="21.137" width="42.117" height="42.117"/><rect x="0" y="63.253" width="42.117" height="42.117"/><rect x="0" y="105.351" width="42.117" height="42.117"/><rect x="84.214" y="63.253" width="42.117" height="42.117"/><rect x="126.33" y="21.137" width="42.117" height="42.117"/><path d="M210.544,147.467l0,-85.935l19.593,0l0,10.95c4.936,-8.832 15.697,-13.409 25.399,-13.409c11.347,0 21.181,5.107 25.757,15.13c6.714,-11.347 16.756,-15.13 27.876,-15.13c15.527,0 30.354,9.872 30.354,32.642l-0,55.752l-19.763,-0l-0,-52.404c-0,-10.062 -5.125,-17.645 -16.586,-17.645c-10.761,-0 -17.815,8.473 -17.815,19.063l0,51.062l-20.122,-0l0,-52.48c0,-9.872 -4.936,-17.645 -16.585,-17.645c-10.931,-0 -17.815,8.113 -17.815,19.063l-0,51.062l-20.293,-0.076Z" style="fill-rule:nonzero;"/><path d="M443.102,104.348c0,26.477 -18.912,45.71 -44.631,45.71c-25.72,0 -44.462,-19.233 -44.462,-45.71c-0,-26.476 18.874,-45.388 44.462,-45.388c25.587,-0 44.631,19.158 44.631,45.388Zm-20.632,0c-0,-17.815 -11.347,-26.987 -23.999,-26.987c-12.652,0 -24.018,9.229 -24.018,26.987c-0,17.758 11.479,27.347 23.999,27.347c12.519,-0 24.018,-9.286 24.018,-27.347Z" style="fill-rule:nonzero;"/><path d="M469.618,119.232c0.699,7.773 6.525,14.638 17.475,14.638c8.453,-0 12.878,-4.577 12.878,-9.872c0,-4.596 -3.177,-8.114 -10.061,-9.456l-12.708,-2.818c-15.13,-3.348 -23.111,-13.238 -23.111,-25.058c0,-14.997 13.768,-27.706 31.583,-27.706c23.999,-0 31.753,15.527 33.171,23.999l-17.285,4.955c-0.719,-4.955 -4.425,-12.898 -15.886,-12.898c-7.243,0 -12.35,4.596 -12.35,9.891c0,4.577 3.348,7.943 8.643,9.002l13.049,2.648c16.246,3.517 24.699,13.408 24.699,26.098c0,13.068 -10.572,27.535 -32.452,27.535c-24.869,0 -34.401,-16.245 -35.46,-25.946l17.815,-5.012Z" style="fill-rule:nonzero;"/><path d="M557.29,98.24l22.051,-3.348c4.936,-0.718 6.355,-3.177 6.355,-6.184c-0,-7.224 -4.936,-13.049 -16.227,-13.049c-10.761,0 -16.775,6.884 -17.644,15.527l-18.704,-4.237c1.588,-14.751 14.997,-27.989 36.121,-27.989c26.477,-0 36.519,14.997 36.519,32.15l-0,42.589c-0.051,4.612 0.303,9.219 1.059,13.768l-19.007,-0c-0.725,-3.603 -1.023,-7.278 -0.888,-10.95c-4.048,6.544 -12.52,13.598 -26.477,13.598c-18.004,-0 -29.124,-12.35 -29.124,-25.947c0.095,-15.338 11.31,-23.81 25.966,-25.928Zm28.368,13.579l-0,-3.877l-22.411,3.347c-6.354,1.059 -11.46,4.595 -11.46,11.65c-0,5.824 4.406,11.12 12.519,11.12c11.499,-0 21.39,-5.466 21.39,-22.146l-0.038,-0.094Z" style="fill-rule:nonzero;"/><rect x="625.713" y="61.532" width="20.292" height="85.935"/><rect x="625.713" y="21.137" width="20.292" height="20.292"/><path d="M729.443,105.351c-0.397,17.379 -11.48,26.476 -23.962,26.476c-12.481,0 -23.999,-9.456 -23.999,-27.346c0,-17.891 11.48,-27.063 23.924,-27.063l0,-18.458c-25.512,-0 -44.386,19.158 -44.386,45.388c0,26.231 18.874,45.767 44.386,45.767c25.512,-0 44.14,-18.799 44.594,-44.764l-20.557,-0Z" style="fill-rule:nonzero;"/></g></svg>