<?xml version="1.0" encoding="UTF-8" standalone="no"?><!DOCTYPE svg PUBLIC "-//W3C//DTD SVG 1.1//EN" "http://www.w3.org/Graphics/SVG/1.1/DTD/svg11.dtd"><svg width="100%" height="100%" viewBox="0 0 750 250" version="1.1" xmlns="http://www.w3.org/2000/svg" xmlns:xlink="http://www.w3.org/1999/xlink" xml:space="preserve" xmlns:serif="http://www.serif.com/" style="fill-rule:evenodd;clip-rule:evenodd;stroke-linejoin:round;stroke-miterlimit:2;"><g id="StreetsHeaver"><rect x="223.863" y="234.043" width="304.298" height="10.846" style="fill:#0c5baa;"/><path d="M254.7,20.844c-2.06,-2.634 -6.178,-3.872 -9.308,-3.872c-3.622,-0 -8.645,1.647 -8.645,6.013c0,10.624 26.85,3.789 26.85,24.216c-0,13.013 -10.461,19.192 -22.489,19.192c-7.492,-0 -14.082,-2.225 -19.6,-7.334l9.141,-10.046c2.637,3.455 6.919,5.517 11.202,5.517c4.203,-0 8.895,-1.975 8.895,-6.094c0,-10.708 -27.346,-4.943 -27.346,-24.38c0,-12.437 10.793,-18.946 22.241,-18.946c6.585,0 12.932,1.73 17.873,6.097l-8.814,9.637Z" style="fill:#0c5baa;fill-rule:nonzero;"/><path d="M280.826,17.961l-15.089,-0l0,-11.366l43.027,-0l0,11.366l-15.088,-0l-0,46.948l-12.85,-0l0,-46.948Z" style="fill:#0c5baa;fill-rule:nonzero;"/><path d="M324.514,30.728l7.578,-0c4.691,-0 10.788,-0.165 10.788,-6.508c0,-5.847 -5.272,-6.753 -9.967,-6.753l-8.399,0l0,13.261Zm-12.854,-24.133l22.57,-0c11.941,-0 21.993,4.119 21.993,17.709c0,8.155 -4.366,14.495 -12.605,15.977l14.828,24.628l-15.404,-0l-12.188,-23.31l-6.34,-0l0,23.31l-12.854,-0l0,-58.314Z" style="fill:#0c5baa;fill-rule:nonzero;"/><path d="M359.861,6.595l39.616,-0l0,11.859l-26.767,0l0,10.875l25.287,0l0,11.857l-25.287,-0l0,11.863l28.25,0l0,11.86l-41.099,-0l0,-58.314Z" style="fill:#0c5baa;fill-rule:nonzero;"/><path d="M402.986,6.595l39.618,-0l0,11.859l-26.769,0l0,10.875l25.287,0l0,11.857l-25.287,-0l0,11.863l28.252,0l0,11.86l-41.101,-0l-0,-58.314Z" style="fill:#0c5baa;fill-rule:nonzero;"/><path d="M459.999,17.961l-15.09,-0l0,-11.366l43.032,-0l-0,11.366l-15.094,-0l-0,46.948l-12.848,-0l0,-46.948Z" style="fill:#0c5baa;fill-rule:nonzero;"/><path d="M519.594,20.844c-2.059,-2.634 -6.176,-3.872 -9.305,-3.872c-3.624,-0 -8.651,1.647 -8.651,6.013c-0,10.624 26.854,3.789 26.854,24.216c0,13.013 -10.464,19.192 -22.488,19.192c-7.497,-0 -14.082,-2.225 -19.602,-7.334l9.143,-10.046c2.634,3.455 6.918,5.517 11.201,5.517c4.198,-0 8.896,-1.975 8.896,-6.094c0,-10.708 -27.348,-4.943 -27.348,-24.38c-0,-12.437 10.791,-18.946 22.241,-18.946c6.588,0 12.93,1.73 17.873,6.097l-8.814,9.637Z" style="fill:#0c5baa;fill-rule:nonzero;"/><path d="M225.87,74.511l12.851,0l-0,21.742l24.956,0l0,-21.742l12.85,0l-0,58.315l-12.85,0l0,-25.206l-24.956,0l-0,25.206l-12.851,0l0,-58.315Z" style="fill:#0c5baa;fill-rule:nonzero;"/><path d="M283.212,74.511l39.619,0l-0,11.856l-26.769,0l-0,10.877l25.287,0l0,11.859l-25.287,-0l-0,11.86l28.252,-0l0,11.863l-41.102,0l0,-58.315Z" style="fill:#0c5baa;fill-rule:nonzero;"/><path d="M356.17,91.478l-7.085,18.118l14.25,0l-7.165,-18.118Zm-4.942,-16.967l10.627,0l25.367,58.315l-14.495,0l-5.026,-12.357l-22.65,0l-4.861,12.357l-14.165,0l25.203,-58.315Z" style="fill:#0c5baa;fill-rule:nonzero;"/><path d="M373.981,74.511l14.66,0l14.412,38.213l0.163,-0l14.662,-38.213l13.755,0l-24.05,58.315l-10.296,0l-23.306,-58.315Z" style="fill:#0c5baa;fill-rule:nonzero;"/><path d="M435.649,74.511l39.619,0l-0,11.856l-26.769,0l-0,10.877l25.287,0l0,11.859l-25.287,-0l-0,11.86l28.254,-0l-0,11.863l-41.104,0l0,-58.315Z" style="fill:#0c5baa;fill-rule:nonzero;"/><path d="M494.228,98.643l7.578,-0c4.696,-0 10.789,-0.165 10.789,-6.509c-0,-5.847 -5.271,-6.754 -9.966,-6.754l-8.401,0l0,13.263Zm-12.849,-24.132l22.569,0c11.944,0 21.989,4.117 21.989,17.706c0,8.155 -4.364,14.497 -12.6,15.979l14.824,24.63l-15.399,0l-12.193,-23.314l-6.341,-0l0,23.314l-12.849,0l-0,-58.315Z" style="fill:#0c5baa;fill-rule:nonzero;"/><path d="M277.053,221.517c-8.996,0 -15.278,-6.534 -15.278,-15.887c0,-9.355 6.282,-15.888 15.278,-15.888c8.993,-0 15.275,6.533 15.275,15.888c-0,9.353 -6.282,15.887 -15.275,15.887Zm-0,-34.839c-10.98,-0 -18.649,7.793 -18.649,18.952c-0,11.158 7.669,18.952 18.649,18.952c10.979,0 18.648,-7.794 18.648,-18.952c-0,-11.159 -7.669,-18.952 -18.648,-18.952Z" style="fill:#b18dc1;fill-rule:nonzero;"/><path d="M495.367,152.679c0,1.504 -0.609,6.415 -8.452,6.415l-7.124,-0l0,-12.83l7.124,0c7.843,0 8.452,4.911 8.452,6.415Zm-17.261,26.591c0.913,-0 1.669,-0.746 1.685,-1.665l0,-15.448l6.134,0l9.653,16.296l0.156,0.257l0.103,0.111l0.025,-0.016c0.309,0.297 0.724,0.465 1.157,0.465c0.93,-0 1.687,-0.757 1.687,-1.687c-0,-0.184 -0.031,-0.365 -0.09,-0.538l0.033,-0.028l-9.13,-15.065c6.116,-0.786 9.218,-3.907 9.218,-9.273c-0,-6.29 -4.32,-9.48 -12.841,-9.48l-7.79,0c-0.93,0 -1.686,0.757 -1.686,1.685l-0,32.699c-0,0.93 0.756,1.687 1.686,1.687Z" style="fill:#b18dc1;fill-rule:nonzero;"/><path d="M296.98,166.628l7.311,-17.39l7.31,17.39l-14.621,0Zm-7.09,12.509c0.21,0.088 0.429,0.133 0.653,0.133c0.682,-0 1.292,-0.406 1.556,-1.033l3.591,-8.543l17.199,-0l3.592,8.545l0.079,0.18l0.053,0.087l0.014,-0c0.309,0.473 0.842,0.764 1.411,0.764c0.225,-0 0.446,-0.045 0.655,-0.133c0.415,-0.176 0.737,-0.501 0.907,-0.92c0.088,-0.215 0.129,-0.446 0.124,-0.674l0.126,-0l-14.004,-33.313c-0.033,-0.076 -0.075,-0.148 -0.113,-0.211l-0.034,-0.058c-0.046,-0.071 -0.099,-0.136 -0.157,-0.2l-0.051,-0.059c-0.056,-0.057 -0.117,-0.105 -0.192,-0.164l-0.068,-0.052c-0.066,-0.045 -0.138,-0.081 -0.209,-0.116l-0.086,-0.044c-0.097,-0.039 -0.198,-0.07 -0.319,-0.094l-0.054,-0.008c-0.09,-0.014 -0.18,-0.025 -0.272,-0.025c-0.1,0 -0.199,0.011 -0.262,0.023l-0.066,0.008c-0.108,0.022 -0.214,0.056 -0.33,0.103c-0.029,0.012 -0.055,0.025 -0.058,0.03c-0.078,0.036 -0.155,0.076 -0.228,0.126c-0.025,0.017 -0.047,0.035 -0.076,0.059c-0.061,0.047 -0.122,0.094 -0.18,0.154c-0.02,0.019 -0.037,0.041 -0.074,0.085c-0.046,0.054 -0.092,0.107 -0.129,0.165c-0.002,0.003 -0.004,0.006 -0.006,0.009l-0.034,0l-13.859,32.969c-0.175,0.414 -0.178,0.871 -0.009,1.287c0.171,0.419 0.493,0.744 0.91,0.92Z" style="fill:#b18dc1;fill-rule:nonzero;"/><path d="M342.131,146.573l10.64,-0l-0,31.01c-0,0.93 0.755,1.687 1.685,1.687c0.93,-0 1.688,-0.757 1.688,-1.687l-0,-31.01l10.639,-0c0.93,-0 1.687,-0.757 1.687,-1.689c0,-0.928 -0.757,-1.685 -1.687,-1.685l-24.652,0c-0.93,0 -1.686,0.757 -1.686,1.685c-0,0.932 0.756,1.689 1.686,1.689Z" style="fill:#b18dc1;fill-rule:nonzero;"/><path d="M264.41,179.27l19.662,-0c0.843,-0 1.531,-0.687 1.531,-1.532c0,-0.674 -0.453,-1.271 -1.093,-1.463l0,-0.069l-18.417,-0l-0,-14.049l16.072,-0.001c0.798,-0.042 1.422,-0.68 1.452,-1.491l-0.001,-0.097c-0.03,-0.8 -0.685,-1.447 -1.494,-1.474l-16.029,-0l-0,-12.83l17.244,0c0.811,-0.045 1.447,-0.717 1.447,-1.528c0,-0.847 -0.689,-1.537 -1.536,-1.537l-18.838,0c-0.93,0 -1.686,0.757 -1.686,1.685l0,32.699c0,0.93 0.756,1.687 1.686,1.687Z" style="fill:#b18dc1;fill-rule:nonzero;"/><path d="M339.146,189.067l-0.016,-0.128l-0.019,-0.003c-0.106,-0.5 -0.431,-0.927 -0.887,-1.158c-0.235,-0.118 -0.498,-0.18 -0.76,-0.18c-0.54,0 -1.042,0.254 -1.358,0.685l-0.028,0l-15.071,29.938l-14.95,-29.696c-0.288,-0.571 -0.865,-0.927 -1.506,-0.927c-0.265,0 -0.521,0.06 -0.759,0.18c-0.463,0.233 -0.789,0.666 -0.892,1.174l-0.035,0.006l0,33.022c0,0.929 0.756,1.686 1.686,1.686c0.927,-0 1.683,-0.754 1.685,-1.683l-0,-25.599l13.241,26.299c0.147,0.318 0.384,0.576 0.703,0.764l0.067,0.04c0.018,0.009 0.036,0.017 0.054,0.025l0.211,0.079c0.065,0.018 0.13,0.032 0.212,0.047c0.04,0.008 0.079,0.015 0.11,0.017c0.049,0.005 0.099,0.007 0.195,0.007c0.051,-0 0.101,-0.002 0.142,-0.007c0.04,-0.002 0.08,-0.011 0.134,-0.02c0.067,-0.012 0.131,-0.026 0.206,-0.049c0.027,-0.008 0.121,-0.045 0.121,-0.045c0.048,-0.016 0.094,-0.033 0.144,-0.061l0.084,-0.049c0.296,-0.175 0.528,-0.426 0.668,-0.728l13.25,-26.317l0,25.598c0.002,0.928 0.759,1.682 1.686,1.682c0.93,-0 1.687,-0.757 1.687,-1.686l-0.001,-32.652l-0.004,-0.261Z" style="fill:#b18dc1;fill-rule:nonzero;"/><path d="M253.197,216.94l-0.084,0.122l0.028,-0.166c-0.281,-0.184 -0.605,-0.282 -0.935,-0.282c-0.149,-0 -0.294,0.018 -0.436,0.056l0,-0.45l-0.775,0.9c-2.79,3.242 -6.889,4.397 -9.794,4.397c-8.995,0 -15.277,-6.534 -15.277,-15.886c0,-9.353 6.282,-15.886 15.277,-15.886c3.454,0 6.655,1.297 8.783,3.558l0.762,0.81l0,-0.339c0.154,0.045 0.315,0.068 0.481,0.068c0.929,0 1.685,-0.756 1.685,-1.686c-0,-0.434 -0.168,-0.849 -0.474,-1.171c-2.847,-2.858 -6.628,-4.307 -11.237,-4.307c-10.978,-0 -18.646,7.793 -18.646,18.953c0,11.159 7.668,18.953 18.646,18.953c5.071,-0 9.214,-1.762 12.32,-5.239c0.244,-0.308 0.372,-0.669 0.372,-1.046c-0,-0.542 -0.267,-1.062 -0.696,-1.359Z" style="fill:#b18dc1;fill-rule:nonzero;"/><path d="M254.127,144.589l-0.031,-0.146l-0.029,-0c-0.198,-0.719 -0.87,-1.235 -1.644,-1.244c-0.91,0.011 -1.642,0.734 -1.665,1.652l0,14.243l-20.159,-0l-0,-14.211c-0,-0.919 -0.763,-1.673 -1.704,-1.684c-0.919,0.011 -1.667,0.766 -1.667,1.684l-0,32.7c-0,0.93 0.756,1.687 1.686,1.687c0.928,-0 1.685,-0.757 1.685,-1.687l-0,-15.426l20.159,0l0,15.474c0.024,0.92 0.763,1.639 1.682,1.639c0.765,-0 1.431,-0.518 1.629,-1.246l0.061,-0l0,-33.142l-0.003,-0.293Z" style="fill:#b18dc1;fill-rule:nonzero;"/><path d="M448.21,188.843l-0.03,0c-0.197,-0.729 -0.863,-1.246 -1.629,-1.246c-0.928,-0 -1.684,0.757 -1.684,1.687l0,32.696c0,0.929 0.756,1.686 1.684,1.686c0.765,-0 1.432,-0.516 1.629,-1.245l0.06,0l0,-33.137l-0.001,-0.295l-0.029,-0.146Z" style="fill:#b18dc1;fill-rule:nonzero;"/><path d="M486.18,187.597c-0.922,-0 -1.678,0.751 -1.686,1.677l0,27.937l-23.334,-28.915c-0.036,-0.052 -0.075,-0.099 -0.111,-0.139l-0.674,-0.834l0,0.378c-0.186,-0.069 -0.384,-0.104 -0.583,-0.104c-0.346,-0 -0.679,0.105 -0.963,0.303c-0.463,0.322 -0.731,0.851 -0.72,1.411l-0,32.683c0.007,0.922 0.763,1.672 1.685,1.672c0.921,-0 1.677,-0.752 1.686,-1.676l0,-27.936l23.316,28.892c0.314,0.451 0.831,0.721 1.382,0.721c0.346,0 0.68,-0.105 0.965,-0.303c0.296,-0.206 0.516,-0.502 0.629,-0.845l0.091,-0l0,-33.248c-0.004,-0.923 -0.759,-1.674 -1.683,-1.674Z" style="fill:#b18dc1;fill-rule:nonzero;"/><path d="M448.01,166.628l7.311,-17.389l7.311,17.389l-14.622,0Zm15.912,3.066l3.591,8.542c0.263,0.628 0.873,1.034 1.555,1.034c0.224,-0 0.444,-0.045 0.652,-0.133c0.857,-0.359 1.262,-1.35 0.903,-2.207l-13.747,-32.7c-0.012,-0.028 -0.025,-0.054 -0.039,-0.078l-0.112,-0.198c-0.038,-0.059 -0.081,-0.109 -0.148,-0.187l-0.06,-0.068c-0.048,-0.05 -0.1,-0.091 -0.182,-0.155l-0.074,-0.057c-0.066,-0.045 -0.136,-0.079 -0.208,-0.116l-0.089,-0.044c-0.093,-0.038 -0.189,-0.067 -0.293,-0.09c-0.028,-0.005 -0.055,-0.009 -0.096,-0.015c-0.084,-0.012 -0.169,-0.023 -0.255,-0.023c-0.084,0 -0.166,0.011 -0.262,0.025c-0.034,0.004 -0.067,0.009 -0.1,0.015c-0.081,0.02 -0.161,0.041 -0.293,0.091c-0.032,0.015 -0.061,0.03 -0.083,0.045c-0.071,0.034 -0.141,0.07 -0.2,0.111c-0.029,0.018 -0.056,0.04 -0.088,0.068c-0.06,0.045 -0.119,0.092 -0.17,0.144c-0.021,0.022 -0.041,0.045 -0.072,0.084c-0.048,0.055 -0.096,0.111 -0.14,0.176c-0.019,0.029 -0.034,0.059 -0.05,0.088l-0.023,0.043c-0.027,0.045 -0.053,0.093 -0.073,0.143l-13.746,32.698c-0.175,0.414 -0.178,0.871 -0.009,1.287c0.17,0.419 0.492,0.746 0.908,0.92c0.209,0.088 0.429,0.133 0.654,0.133c0.68,-0 1.291,-0.406 1.557,-1.033l3.591,-8.543l17.201,-0Z" style="fill:#b18dc1;fill-rule:nonzero;"/><path d="M343.833,176.056l-15.203,-0l0,-31.172c0,-0.928 -0.756,-1.685 -1.685,-1.685c-0.93,0 -1.687,0.757 -1.687,1.685l-0,32.699c-0,0.93 0.757,1.687 1.687,1.687l16.888,-0c0.885,-0 1.606,-0.72 1.606,-1.606c0,-0.888 -0.721,-1.608 -1.606,-1.608Z" style="fill:#b18dc1;fill-rule:nonzero;"/><path d="M527.133,176.276l0,-0.07l-18.423,-0l-0,-14.049l16.073,-0.001c0.797,-0.04 1.422,-0.68 1.455,-1.491l-0.001,-0.097c-0.032,-0.8 -0.687,-1.447 -1.496,-1.474l-16.031,-0l-0,-12.83l17.245,0c0.813,-0.045 1.45,-0.717 1.45,-1.528c0,-0.847 -0.69,-1.537 -1.538,-1.537l-18.837,0c-0.93,0 -1.687,0.757 -1.687,1.685l-0,32.699c-0,0.93 0.757,1.687 1.687,1.687l19.662,-0c0.843,-0 1.53,-0.687 1.53,-1.532c-0,-0.673 -0.452,-1.27 -1.089,-1.462Z" style="fill:#b18dc1;fill-rule:nonzero;"/><path d="M525.809,203.891l-8.666,0c-0.93,0 -1.685,0.757 -1.685,1.688c-0,0.93 0.755,1.687 1.685,1.687l6.972,0l-0,12.114c-2.466,1.457 -5.669,2.137 -10.081,2.137c-8.995,0 -15.277,-6.534 -15.277,-15.887c-0,-9.355 6.282,-15.888 15.277,-15.888c3.364,-0 7.081,1.291 9.471,3.287l0.286,0.234l0.158,0.085l0.018,-0.037c0.204,0.085 0.426,0.13 0.649,0.13c0.447,-0 0.871,-0.177 1.196,-0.5c0.315,-0.318 0.489,-0.74 0.489,-1.187c0,-0.49 -0.215,-0.957 -0.593,-1.281c-3.109,-2.554 -6.929,-3.795 -11.674,-3.795c-10.98,-0 -18.648,7.793 -18.648,18.952c0,11.158 7.668,18.952 18.648,18.952c4.827,0 8.93,-0.905 12.543,-2.769l0.58,-0.303l-0.093,-0.079c0.268,-0.303 0.42,-0.701 0.42,-1.11l-0,-14.742c-0,-0.92 -0.751,-1.678 -1.675,-1.688Z" style="fill:#b18dc1;fill-rule:nonzero;"/><path d="M434.57,187.595l-24.653,0c-0.93,0 -1.688,0.757 -1.688,1.687c0,0.93 0.758,1.687 1.688,1.687l10.64,-0l0,31.013c0,0.93 0.757,1.687 1.687,1.687c0.93,-0 1.686,-0.757 1.686,-1.687l0,-31.013l10.64,-0c0.929,-0 1.685,-0.757 1.685,-1.687c0,-0.93 -0.756,-1.687 -1.685,-1.687Z" style="fill:#b18dc1;fill-rule:nonzero;"/><path d="M396.264,177.632c0.025,0.919 0.766,1.638 1.683,1.638c0.764,-0 1.43,-0.518 1.627,-1.246l0.062,-0l-0,-33.142l-0.004,-0.293l-0.03,-0.146l-0.029,-0c-0.199,-0.719 -0.87,-1.235 -1.644,-1.244c-0.908,0.011 -1.64,0.734 -1.666,1.652l0,14.243l-20.157,-0l-0,-14.211c-0,-0.919 -0.763,-1.673 -1.704,-1.684c-0.92,0.011 -1.668,0.766 -1.668,1.684l-0,32.7c-0,0.93 0.755,1.687 1.685,1.687c0.93,-0 1.687,-0.757 1.687,-1.687l-0,-15.426l20.157,0l0.001,15.475Z" style="fill:#b18dc1;fill-rule:nonzero;"/><path d="M423.454,180.187c5.076,0 9.217,-1.759 12.317,-5.235c0.243,-0.302 0.372,-0.664 0.372,-1.048c0,-0.545 -0.266,-1.065 -0.695,-1.358l-0.083,0.121l0.029,-0.166c-0.28,-0.185 -0.604,-0.283 -0.937,-0.283c-0.271,0 -0.538,0.065 -0.777,0.19l-0.074,-0.102l-0.36,0.418c-2.788,3.244 -6.886,4.399 -9.792,4.399c-8.994,0 -15.276,-6.534 -15.276,-15.89c0,-9.351 6.282,-15.882 15.276,-15.882c3.455,-0 6.656,1.296 8.781,3.556l0.762,0.811l0,-0.342c0.156,0.047 0.317,0.071 0.481,0.071c0.93,0 1.687,-0.757 1.687,-1.687c0,-0.432 -0.167,-0.847 -0.474,-1.169c-2.847,-2.86 -6.628,-4.309 -11.237,-4.309c-10.979,-0 -18.647,7.792 -18.647,18.951c0,11.16 7.668,18.954 18.647,18.954Z" style="fill:#b18dc1;fill-rule:nonzero;"/><path d="M367.136,197.123c0,3.984 -2.854,6.363 -7.635,6.363l-7.633,-0l-0,-12.826l7.428,-0c3.617,-0 7.84,1.693 7.84,6.463Zm-8.245,-9.526l-8.712,-0c-0.93,-0 -1.688,0.757 -1.688,1.687l0,32.696c0,0.929 0.758,1.686 1.688,1.686c0.765,-0 1.431,-0.516 1.629,-1.245l0.06,0l-0,-15.87l7.786,0c5.007,0 10.853,-2.469 10.853,-9.428c-0,-8.84 -8.891,-9.526 -11.616,-9.526Z" style="fill:#b18dc1;fill-rule:nonzero;"/><path d="M401.668,187.597c-0.904,-0 -1.643,0.715 -1.683,1.634l0,19.762c0,5.714 -1.696,12.524 -9.777,12.524c-8.078,0 -9.773,-6.81 -9.773,-12.524l-0.001,-19.758c-0.028,-0.919 -0.766,-1.638 -1.682,-1.638c-0.929,-0 -1.686,0.757 -1.686,1.687l-0,20.576c-0,5.498 1.707,14.722 13.142,14.722c11.436,0 13.145,-9.224 13.145,-14.722l-0,-20.576c-0,-0.93 -0.757,-1.687 -1.685,-1.687Z" style="fill:#b18dc1;fill-rule:nonzero;"/></g></svg>