<?xml version="1.0" encoding="UTF-8" standalone="no"?>
<!DOCTYPE svg PUBLIC "-//W3C//DTD SVG 1.1//EN" "http://www.w3.org/Graphics/SVG/1.1/DTD/svg11.dtd">
<svg width="100%" height="100%" viewBox="0 0 60 60" version="1.1" xmlns="http://www.w3.org/2000/svg" xmlns:xlink="http://www.w3.org/1999/xlink" xml:space="preserve" xmlns:serif="http://www.serif.com/" style="fill-rule:evenodd;clip-rule:evenodd;stroke-linejoin:round;stroke-miterlimit:2;">
    <g id="_8-Email">
        <g id="_Group_">
            <path d="M57,12L57.24,11.76C58.37,12.88 59.005,14.409 59,16L59,44C59.005,45.591 58.37,47.12 57.24,48.24L36,27L35.94,26.92L57,12Z" style="fill:none;fill-rule:nonzero;stroke:white;stroke-width:1px;"/>
            <path d="M24,27L2.76,48.24C1.63,47.12 0.995,45.591 1,44L1,16C0.995,14.409 1.63,12.88 2.76,11.76L3,12L24.06,26.92L24,27Z" style="fill:none;fill-rule:nonzero;stroke:white;stroke-width:1px;"/>
            <path d="M36,27L57.24,48.24C56.12,49.37 54.591,50.005 53,50L7,50C5.409,50.005 3.88,49.37 2.76,48.24L24,27L24.06,26.92L27,29C27.84,29.695 28.911,30.052 30,30C31.089,30.052 32.16,29.695 33,29L35.94,26.92L36,27Z" style="fill:none;fill-rule:nonzero;stroke:white;stroke-width:1px;"/>
            <path d="M2.76,11.76C3.88,10.63 5.409,9.995 7,10L53,10C54.591,9.995 56.12,10.63 57.24,11.76L57,12L35.94,26.92L33,29C32.16,29.695 31.089,30.052 30,30C28.911,30.052 27.84,29.695 27,29L24.06,26.92L3,12L2.76,11.76Z" style="fill:none;fill-rule:nonzero;stroke:white;stroke-width:1px;"/>
            <path d="M55,46L5,46L2.76,48.24C3.88,49.37 5.409,50.005 7,50L53,50C54.591,50.005 56.12,49.37 57.24,48.24L55,46Z" style="fill:none;fill-rule:nonzero;stroke:white;stroke-width:1px;"/>
            <g opacity="0.54">
                <path d="M13.616,10L7,10C5.409,9.995 3.88,10.63 2.76,11.76L3,12L7.862,15.444L7.762,15.225C9.252,11.989 11.323,10 13.616,10Z" style="fill:white;fill-rule:nonzero;stroke:white;stroke-width:1px;"/>
            </g>
            <g transform="matrix(0.930999,0,0,0.898571,2.07,3.0429)">
                <path d="M57.951,11.056C56.645,9.734 54.859,8.992 53,9L7,9C3.162,9.005 0.005,12.162 0,16L0,44C0.004,47.838 3.162,50.996 7,51L53,51C56.838,50.996 59.996,47.838 60,44L60,16C60.008,14.144 59.27,12.362 57.951,11.056ZM53,11C53.926,11.001 54.833,11.263 55.617,11.754L32.422,28.184C32.38,28.215 32.341,28.248 32.304,28.284C31.647,28.791 30.829,29.045 30,29C29.176,29.044 28.363,28.793 27.707,28.293C27.667,28.253 27.624,28.216 27.578,28.184L4.383,11.754C5.167,11.262 6.074,11.001 7,11L53,11ZM2,16C1.999,14.981 2.314,13.986 2.9,13.153L22.53,27.058L2.83,46.758C2.286,45.941 1.997,44.981 2,44L2,16ZM7,49C6.019,49.003 5.06,48.714 4.244,48.17L24.184,28.231L26.369,29.778C27.39,30.613 28.682,31.047 30,31C31.318,31.047 32.61,30.613 33.631,29.778L35.816,28.231L55.757,48.171C54.941,48.714 53.981,49.003 53,49L7,49ZM58,44C58.003,44.981 57.714,45.94 57.17,46.756L37.47,27.056L57.1,13.156C57.686,13.988 58,14.982 58,16L58,44Z" style="fill:white;fill-rule:nonzero;"/>
                <path d="M59.071,9.856C60.709,11.481 61.622,13.7 61.611,16L61.611,44L61.611,44.002C61.606,48.738 57.738,52.664 53.002,52.669L6.998,52.669C2.262,52.664 -1.606,48.738 -1.611,44.002L-1.611,44L-1.611,16L-1.611,15.998C-1.605,11.262 2.262,7.337 6.998,7.331L7,7.331C7,7.331 53,7.331 52.993,7.331C55.275,7.321 57.465,8.234 59.071,9.856ZM57.951,11.056C56.645,9.734 54.859,8.992 53,9L7,9C3.162,9.005 0.005,12.162 0,16L0,44C0.004,47.838 3.162,50.996 7,51L53,51C56.838,50.996 59.996,47.838 60,44L60,16C60.008,14.144 59.27,12.362 57.951,11.056ZM58,44C58.003,44.981 57.714,45.94 57.17,46.756L37.47,27.056L57.1,13.156C57.686,13.988 58,14.982 58,16L58,44ZM56.389,43.655L56.389,16C56.389,15.897 56.384,15.794 56.374,15.692C56.374,15.692 40.012,27.278 40.012,27.278L56.389,43.655ZM2,16C1.999,14.981 2.314,13.986 2.9,13.153L22.53,27.058L2.83,46.758C2.286,45.941 1.997,44.981 2,44L2,16ZM3.611,43.657L19.988,27.28C19.988,27.28 3.626,15.689 3.626,15.689C3.616,15.791 3.611,15.896 3.611,15.999L3.611,43.657ZM7,49C6.019,49.003 5.06,48.714 4.244,48.17L24.184,28.231L26.369,29.778C27.39,30.613 28.682,31.047 30,31C31.318,31.047 32.61,30.613 33.631,29.778L35.816,28.231L55.757,48.171C54.941,48.714 53.981,49.003 53,49L7,49ZM52.597,47.331L35.641,30.376C35.641,30.376 34.596,31.116 34.589,31.121C33.291,32.166 31.664,32.717 30.011,32.67C28.345,32.719 26.716,32.169 25.418,31.126C25.418,31.126 24.359,30.376 24.359,30.376L7.403,47.331L52.597,47.331ZM53,11C53.926,11.001 54.833,11.263 55.617,11.754L32.422,28.184C32.38,28.215 32.341,28.248 32.304,28.284C31.647,28.791 30.829,29.045 30,29C29.176,29.044 28.363,28.793 27.707,28.293C27.667,28.253 27.624,28.216 27.578,28.184L4.383,11.754C5.167,11.262 6.074,11.001 7,11L53,11ZM8.53,12.669L28.483,26.803C28.567,26.862 28.648,26.926 28.724,26.994C29.072,27.237 29.492,27.355 29.917,27.333C29.973,27.33 30.029,27.33 30.085,27.333C30.514,27.357 30.939,27.235 31.293,26.982C31.356,26.925 31.423,26.872 31.491,26.821C31.498,26.816 31.506,26.811 31.513,26.806L51.47,12.669L8.53,12.669Z" style="fill:white;"/>
            </g>
        </g>
    </g>
</svg>
